<?xml version="1.0" encoding="utf-8" standalone="yes"?>
<!DOCTYPE svg PUBLIC "-//W3C//DTD SVG 1.1//EN" "http://www.w3.org/Graphics/SVG/1.1/DTD/svg11.dtd">
<svg style="fill:none;stroke:none;fill-rule:evenodd;clip-rule:evenodd;stroke-linecap:round;stroke-linejoin:round;stroke-miterlimit:1.5;" version="1.1" xmlns="http://www.w3.org/2000/svg" xmlns:xlink="http://www.w3.org/1999/xlink" width="721" height="612" viewBox="0 0 721 612"><style class="text-font-style fontImports" data-font-family="Shantell Sans">@import url(https://fonts.googleapis.com/css2?family=Shantell+Sans:wght@300..800&amp;amp;display=block);</style><g id="items" style="isolation: isolate"><g id="blend" style="mix-blend-mode: normal"><g id="g-root-cp_4_g-4_v4uw1bthnjta-fill" data-item-order="-359128" transform="translate(563, 192.96099853515625)"><g id="cp_4_g-4_v4uw1bthnjta-fill-merged" stroke="none" fill="#ffd7ef" fill-opacity="1"><g><path d="M13 146L18.8 148.4L26.5 130L20.7 127.6L13 146 M59.6 138.6L73 145.1L81.7 127.1L68.3 120.6L59.6 138.6 M39.2 46.4L47.5 48.6L64.1 32.3L44.4 27.1L39.2 46.4 M64.1 32.3L58.1 8L42.6 28.8L47.5 48.6L64.1 32.3 M42.6 28.8L61.5 27.8L60.5 7.8L58.1 8L42.6 28.8 M38.6 43.3L52.8 53L64.1 36.4L49.8 26.7L38.6 43.3" fill-rule="nonzero"></path></g></g><g id="cp_4_g-4_v4uw1bthnjta-fill-merged" stroke="none" fill="#ffd7ef" fill-opacity="1"><g><path d="M7.6 130.3L8.2 129.4L19.2 149.1L24.3 141.2L7.6 130.3 M19.2 149.1L47.2 148.3L38.8 128.6L8.2 129.4L19.2 149.1 M38.8 128.6L14.8 151.9L25.5 169.5L47.2 148.3L38.8 128.6 M25.5 169.5L84.4 150.1L74.8 132.2L14.8 151.9L25.5 169.5 M74.8 132.2L14.3 180.4L23.8 198.3L84.4 150.1L74.8 132.2 M23.8 198.3L84.7 179.2L75.1 161.3L14.3 180.4L23.8 198.3 M75.1 161.3L27.4 199.6L36.1 218.3L84.7 179.2L75.1 161.3 M36.1 218.3L77.8 209.9L73.2 190.4L27.4 199.6L36.1 218.3 M73.2 190.4L62.4 193.4L67.6 212.7L77.8 209.9L73.2 190.4" fill-rule="nonzero"></path></g></g></g><g id="g-root-cp_4_g-4_v4uw1bthnjta-stroke" data-item-order="-359128" transform="translate(563, 192.96099853515625)"><g id="cp_4_g-4_v4uw1bthnjta-stroke" fill="none" stroke-linecap="round" stroke-linejoin="round" stroke-miterlimit="4" stroke="#484848" stroke-width="4" stroke-opacity="1"><g><path d="M 48.5 126.0736C 45.8384 126.1651 43.2786 126.4455 41.5 127.0384C 37 128.5384 32 130.0384 25 130.0384C 19.4 130.0384 15 133.0384 13.5 134.5384L 83.5 134.5384C 83 131.0384 75 129.5384 71.5 129.5384C 69.8148 129.5384 67.666 128.9588 65.5 128.302C 63.1674 127.5947 60.8148 126.7977 59 126.5384C 56.8834 126.236 52.5724 125.9337 48.5 126.0736ZM 48.5 126.0736C 48.0157 116.6217 48.5 108.0391 49.8432 102.5386M 52.5 39.0391C 54.3333 40.3724 58.3 42.9391 59.5 42.5391C 60.7 42.1391 58.6667 37.0391 57.5 34.5391M 52.5 39.0391C 51.1667 42.8724 48.1 50.0391 46.5 48.0391C 44.9 46.0391 45.5 38.5391 46 35.0391M 52.5 39.0391C 53.5346 43.2716 54.8029 51.3898 54.9206 61.0391M 52.5 39.0391C 52.5 35.8391 50.8333 31.0391 50 29.0391M 57.5 34.5391C 60.8333 35.0391 67.8 35.7391 69 34.5391C 70.5 33.0391 63 28.5391 59.5 27.5391M 57.5 34.5391C 56.968 33.3391 52.2783 30.3724 50 29.0391M 59.5 27.5391C 61.3333 25.8724 64.8 21.9391 64 19.5391C 63.2 18.3391 57.6667 20.3724 55 21.5391M 59.5 27.5391C 58.3116 28.7391 52.6715 29.0391 50 29.0391M 55 21.5391C 55.5 18.0387 56.1 10.8379 54.5 10.0379C 53 9.5379 49 14.0379 48 20.0379M 55 21.5391C 54.8028 23.1391 51.5845 27.2057 50 29.0391M 48 20.0379C 46.5 18.205 43 14.6391 41 15.0391C 39 15.4391 40.8333 20.5391 42 23.0391M 48 20.0379C 48 21.2371 49.3333 26.5383 50 29.0391M 42 23.0391C 38.8333 22.7057 32.3 22.5391 31.5 24.5391C 30.5 27.0391 39 29.5391 41 30.0391M 42 23.0391C 43.6 23.0391 48 27.0391 50 29.0391M 41 30.0391C 39.3333 31.8724 36.1 36.1391 36.5 38.5391C 37.3 39.7391 43.1667 36.7057 46 35.0391M 41 30.0391C 43.4 28.8391 48 28.8724 50 29.0391M 46 35.0391C 47.1667 33.8724 49.6 31.0391 50 29.0391M 54.3877 73.5391C 54.0045 77.3358 53.3971 81.2061 52.5 85.0391C 52.0692 86.8797 51.6829 88.8346 51.337 90.8759M 54.3877 73.5391C 56.0918 69.2057 61.3 60.4391 68.5 60.0391C 77.5 59.5391 80.5 62.539 81.5 65.5391C 82.5 68.5391 80 77.0391 72.5 77.5391C 66.5 77.9391 57.9251 75.0391 54.3877 73.5391ZM 54.3877 73.5391C 56.1941 72.5178 59.1316 70.9488 62 69.6046M 54.3877 73.5391C 54.7688 69.7632 54.9279 66.0601 54.9295 62.5391M 69 67.0391C 67.819 67.1867 66.0014 67.8382 64 68.7022M 62 69.6046C 63.5 70.5828 67 72.5391 69 72.5391M 62 69.6046C 62.6757 69.288 63.3476 68.9838 64 68.7022M 64 68.7022C 64.8333 67.3145 66.6 64.4391 67 64.0391M 54.9206 61.0391C 52.7804 57.0391 46.8 49.0391 40 49.0391C 33.2 49.0391 29.5 54.7057 28.5 57.5391C 28 60.8505 29.1 67.6866 37.5 68.5391C 45.9 69.3915 52.6196 64.8943 54.9295 62.5391M 54.9206 61.0391C 54.9267 61.5351 54.9297 62.0352 54.9295 62.5391M 54.9295 62.5391C 53.309 61.7701 50.4215 60.5577 47.5 59.6691M 41.5 58.5391C 43.1932 58.5391 45.3557 59.0169 47.5 59.6691M 47.5 59.6691C 47.1667 58.1258 46 54.9391 44 54.5391M 47.5 59.6691C 47 60.9591 45.4 63.6391 43 64.0391M 51.337 90.8759C 49.8913 85.597 45.3 75.0391 38.5 75.0391C 30 75.0391 27 76.0396 25 82.5391C 23 89.0386 31.5 93.5386 34 93.5386C 36.5 93.5386 41.674 95.2128 51.337 90.8759ZM 51.337 90.8759C 49.5787 89.9136 46.3434 88.3055 43 86.9953M 51.337 90.8759C 50.7164 94.5386 50.226 98.4797 49.8432 102.5386M 36.5 85.0391C 38.4349 85.3616 40.7421 86.1105 43 86.9953M 43 86.9953C 43 85.1762 42.4 81.4382 40 81.0386M 43 86.9953C 42.1667 88.2889 40.1 90.8759 38.5 90.8759M 49.8432 102.5386C 52.0621 98.0386 58 89.0386 64 89.0386C 71.5 89.0386 75.5183 92.5386 77 97.5386C 78.4817 102.5386 72.2696 108.0391 66.6348 108.0391C 62.127 108.0391 53.5621 104.3721 49.8432 102.5386ZM 49.8432 102.5386C 51.6976 101.8951 54.6246 100.9179 57.5 100.034M 65.1858 98.0386C 63.8891 98.2086 61.6178 98.8059 59.1394 99.5391M 59.1394 99.5391C 59.4263 98.0392 60.3 94.8395 61.5 94.0391M 59.1394 99.5391C 58.6001 99.6986 58.051 99.8646 57.5 100.034M 57.5 100.034C 59.4572 101.3689 63.7344 104.0388 65.1858 104.0388M 48.5 126.1C 45.8 126.2 43.2 126.3 41.5 127C 37.1 128.8 31.8 128.3 25 130C 19.6 131.4 15.3 133.3 13.5 134.5C 36.8 136 60.2 135.4 83.5 134.5C 82.7 131.1 75 129.1 71.5 129.5C 69.8 129.7 67.5 129.4 65.5 128.3C 63.4 127.1 60.8 126.4 59 126.5C 56.9 126.7 52.6 126.3 48.5 126.1M 48.5 126.1C 48.7 116.6 49.6 108.2 49.8 102.5M 52.5 39C 54.2 40.6 58.3 42.7 59.5 42.5C 60.8 42.3 58.6 37.1 57.5 34.5M 52.5 39C 52 43.1 48.1 50 46.5 48C 44.9 46.1 45.5 38.5 46 35M 52.5 39C 53.4 43.3 55.4 51.4 54.9 61M 52.5 39C 53.3 35.9 51.2 30.8 50 29M 57.5 34.5C 60.8 35.3 67.5 35.4 69 34.5C 70.8 33.5 63 28.7 59.5 27.5M 57.5 34.5C 57 33.3 51.7 31.1 50 29M 59.5 27.5C 61.6 26.2 65.3 21.7 64 19.5C 63.1 18.4 57.7 20.3 55 21.5M 59.5 27.5C 58.3 28.7 52.6 29.4 50 29M 55 21.5C 55.7 18.1 55.8 11.3 54.5 10C 53.1 9.2 47.6 14 48 20M 55 21.5C 55.2 23.1 51.9 27.5 50 29M 48 20C 46.6 18.1 42.9 14.2 41 15C 39.1 15.9 40.9 20.5 42 23M 48 20C 47.7 21.2 49.5 26.5 50 29M 42 23C 38.9 22.6 32.5 22.6 31.5 24.5C 30.2 26.9 39.2 29 41 30M 42 23C 43.6 23 47.8 27.3 50 29M 41 30C 39.9 32.3 35.8 36.2 36.5 38.5C 37.7 39.4 43.1 36.6 46 35M 41 30C 43.5 29.2 48 28.8 50 29M 46 35C 47.4 34.1 49.1 30.9 50 29M 54.4 73.5C 53.9 77.3 52.8 81.1 52.5 85C 52.4 86.9 52.3 89.1 51.3 90.9M 54.4 73.5C 55.6 69 61.3 60.7 68.5 60C 77.5 59.2 80.4 62.6 81.5 65.5C 82.6 68.5 79.8 76 72.5 77.5C 66.6 78.8 57.6 75.6 54.4 73.5M 54.4 73.5C 56.4 73.3 59.1 70.9 62 69.6M 54.4 73.5C 55.1 69.8 55.2 66 54.9 62.5M 69 67C 67.8 67.3 66 67.8 64 68.7M 62 69.6C 63.5 70.6 67 72.3 69 72.5M 62 69.6C 62.7 69.2 63.3 68.9 64 68.7M 64 68.7C 64.3 67.1 66.6 64.5 67 64M 54.9 61C 53.1 56.9 46.8 48.9 40 49C 33.2 49.2 29.6 54.8 28.5 57.5C 27.6 60.8 29.1 68.3 37.5 68.5C 45.9 68.8 52.5 64.8 54.9 62.5M 54.9 61C 54.8 61.5 54.9 62 54.9 62.5M 54.9 62.5C 53.2 62.1 50.5 60 47.5 59.7M 41.5 58.5C 43.1 58 45.6 58.5 47.5 59.7M 47.5 59.7C 47.7 58.1 45.9 55.2 44 54.5M 47.5 59.7C 46.6 60.7 45.4 64.5 43 64M 51.3 90.9C 50.1 85.6 45.1 73.5 38.5 75C 30.2 76.9 27.4 76.2 25 82.5C 22.6 88.9 31.6 94.1 34 93.5C 36.4 92.9 41.2 93.9 51.3 90.9M 51.3 90.9C 49.8 89.6 46.5 87.5 43 87M 51.3 90.9C 51.7 94.6 49.3 98.5 49.8 102.5M 36.5 85C 38.4 85.6 40.6 86.8 43 87M 43 87C 42.9 85.2 42.4 81 40 81M 43 87C 42.1 88.3 40.1 90.7 38.5 90.9M 49.8 102.5C 52.2 98.1 58.1 88 64 89C 71.4 90.3 74.6 92.9 77 97.5C 79.4 102.2 72.3 108.2 66.6 108C 62.1 107.9 53.4 104.6 49.8 102.5M 49.8 102.5C 51.8 102.2 54.7 101.2 57.5 100M 65.2 98C 64 98.6 61.6 98.8 59.1 99.5M 59.1 99.5C 59.9 98.2 60.4 95 61.5 94M 59.1 99.5C 58.6 99.5 58.1 99.9 57.5 100M 57.5 100C 59.6 101.2 63.8 104.3 65.2 104"></path></g></g><g id="cp_4_g-4_v4uw1bthnjta-stroke" fill="none" stroke-linecap="round" stroke-linejoin="round" stroke-miterlimit="4" stroke="#484848" stroke-width="4" stroke-opacity="1"><g><path d="M 21 197.039063L 18 197.039063C 17.8333 199.872363 18.2 206.239063 21 209.039063L 75 209.039063C 78 206.539063 78 200.639063 78 197.039063L 75 197.039063M 21 197.039063L 75 197.039063M 21 197.039063L 17 169.289063M 13 141.539063L 11 141.539063L 10 134.539063L 86 134.539063L 85 141.539063L 83 141.539063M 13 141.539063L 83 141.539063M 13 141.539063L 16.3874 165.039063M 75 197.039063L 79 169.289063M 83 141.539063L 79.6126 165.039063M 17 169.289063L 79 169.289063M 17 169.289063L 16.3874 165.039063M 79 169.289063L 79.6126 165.039063M 79.6126 165.039063L 16.3874 165.039063M 21 197C 20 197.1 19 197 18 197C 17.4 199.8 17.5 207.2 21 209C 38.9 210.5 57 209.9 75 209C 77.8 206.3 78.4 200.6 78 197C 77 197.3 76 197.2 75 197M 21 197C 39 195.9 57 196.6 75 197M 21 197C 19.9 187.8 17.7 178.6 17 169.3M 13 141.5C 12.3 141.5 11.7 141.6 11 141.5C 10.2 139.3 10.4 136.9 10 134.5C 22.9 135.2 35.7 134.6 48.6 134.5C 61.1 134.5 73.5 134.3 86 134.5C 85.1 136.7 84.8 139.2 85 141.5C 84.3 141.5 83.7 141.7 83 141.5M 13 141.5C 36.3 143.5 59.7 140.8 83 141.5M 13 141.5C 15.6 149 15.6 157.2 16.4 165M 75 197C 76.2 187.8 76.8 178.4 79 169.3M 83 141.5C 81.5 149.3 80.3 157.2 79.6 165M 17 169.3C 37.6 171.3 58.3 168.6 79 169.3M 17 169.3C 16.5 168 16.4 166.5 16.4 165M 79 169.3C 79.6 168 79.1 166.4 79.6 165M 79.6 165C 58.5 165.6 37.5 164.7 16.4 165"></path></g></g></g><g id="g-root-cp_3_g-3_v4uw1bthnjtb-fill" data-item-order="-359118" transform="translate(395, 240.6561279296875)"><g id="cp_3_g-3_v4uw1bthnjtb-fill-merged" stroke="none" fill="#ffd9d8" fill-opacity="1"><g><path d="M8 91.5L11.3 92.7L34.6 94.4L42.1 90.8L50.6 96.7L62.1 80.4L55.5 75.8L28.5 75.9L24 79.1L21.9 77.1L8 91.5 M58.6 50.5L69.3 55.3L81.4 38.8L66.9 32.2L58.6 50.5 M81.4 38.8L51.7 5.5L38.3 20.5L69.3 55.3L81.4 38.8 M38.3 20.5L57.5 34L69 17.6L51.7 5.5L38.3 20.5" fill-rule="nonzero"></path></g></g><g id="cp_3_g-3_v4uw1bthnjtb-fill-merged" stroke="none" fill="#ffd9d8" fill-opacity="1"><g><path d="M10.3 75.7L4.7 82.8L15.6 101.3L26 88.1L10.3 75.7 M15.6 101.3L45.3 96.5L35.7 77.8L4.7 82.8L15.6 101.3 M35.7 77.8L8.3 105.6L19.7 122.7L45.3 96.5L35.7 77.8 M19.7 122.7L83.4 97.3L72.7 80L8.3 105.6L19.7 122.7 M72.7 80L15.6 131.3L26.1 148.7L83.4 97.3L72.7 80 M26.1 148.7L81.8 128.6L70.4 111.5L15.6 131.3L26.1 148.7 M70.4 111.5L32 153.8L43.6 170.7L81.8 128.6L70.4 111.5 M43.6 170.7L80.8 156.3L70.3 138.9L32 153.8L43.6 170.7 M70.3 138.9L54.3 153L67.5 168L80.8 156.3L70.3 138.9 M71.5 84.8L67.5 95.8L86.2 102.7L90.3 91.7L71.5 84.8" fill-rule="nonzero"></path></g></g></g><g id="g-root-cp_3_g-3_v4uw1bthnjtb-stroke" data-item-order="-359118" transform="translate(395, 240.6561279296875)"><g id="cp_3_g-3_v4uw1bthnjtb-stroke" fill="none" stroke-linecap="round" stroke-linejoin="round" stroke-miterlimit="4" stroke="#484848" stroke-width="4" stroke-opacity="1"><g><path d="M 49.499984 77.892878C 48.043284 77.840978 46.683984 77.840978 45.499984 77.840978C 41.499984 77.840978 43.999984 81.340978 30.999984 81.840978C 20.599984 82.240978 14.999984 85.340978 13.499984 86.840978L 83.999984 86.840978C 82.833284 85.340978 79.499984 82.240978 75.499984 81.840978C 70.499984 81.340978 65.499984 81.840978 60.499984 79.840978C 56.979984 78.432978 52.964484 78.016278 49.499984 77.892878ZM 49.499984 77.892878C 49.412884 76.407978 49.303084 74.384978 49.188284 72.049478M 48.499984 36.840978C 48.499984 37.507678 48.499984 41.040978 48.499984 49.840978C 48.499984 56.341978 48.863784 65.445178 49.188284 72.049478M 48.499984 36.840978C 51.166684 35.507678 57.299984 31.640978 60.499984 26.840978C 64.499984 20.840978 62.499984 11.840978 55.999984 10.340978C 49.499984 8.840978 44.212484 12.490878 42.999984 17.341678C 41.499984 23.342478 40.999984 32.341078 48.499984 36.840978ZM 48.499984 36.840978C 48.406484 35.251378 48.512284 32.392378 49.188284 29.340978M 51.999984 22.340978C 50.841784 24.078278 50.041584 26.086278 49.499984 28.075878M 49.188284 29.340978C 51.458884 28.674278 55.999984 27.040978 55.999984 25.840978M 49.188284 29.340978C 49.281084 28.921978 49.384684 28.499378 49.499984 28.075878M 49.499984 28.075878C 48.666684 26.997578 46.999984 24.340978 46.999984 22.340978M 49.188284 72.049478C 49.292184 69.646578 50.599984 63.640978 54.999984 58.840978C 59.399984 54.040978 61.833284 51.174278 62.499984 50.340978M 49.188284 72.049478C 48.458884 69.646578 45.899984 63.440978 41.499984 57.840978C 39.099984 54.640978 37.499984 52.930978 36.999984 52.476078M 62.499984 50.340978C 61.666684 48.007678 61.199984 42.041078 65.999984 36.840978C 70.799984 31.640978 76.999984 32.007578 79.499984 32.840978C 81.999984 34.507578 86.299984 39.140978 83.499984 44.340978C 79.999984 50.840978 75.499984 51.840978 71.499984 51.840978C 68.299984 51.840978 64.166684 50.840978 62.499984 50.340978ZM 62.499984 50.340978C 63.171684 49.266178 64.244084 47.758278 65.494584 46.340978M 71.499984 42.340978C 70.237184 42.340978 68.829084 43.171478 67.484484 44.340978M 65.494584 46.340978C 66.662984 46.674278 69.499984 47.140978 71.499984 46.340978M 65.494584 46.340978C 66.122384 45.629378 66.795084 44.940578 67.484484 44.340978M 67.484484 44.340978C 67.156284 43.007578 66.799984 39.940978 67.999984 38.340978M 36.999984 52.476078C 34.166684 51.930978 27.299984 50.840978 22.499984 50.840978C 16.499984 50.840978 12.499984 45.340978 11.999984 40.840978C 11.499984 36.340978 11.999984 31.340978 19.499984 28.840978C 26.999984 26.340978 33.499984 33.840978 35.999984 39.340978C 37.849284 43.409378 37.561084 49.008278 37.111984 51.840978M 36.999984 52.476078C 37.037684 52.284278 37.075284 52.071778 37.111984 51.840978M 37.111984 51.840978C 36.044584 50.181878 34.143484 47.571278 31.999984 45.288978M 25.999984 40.840978C 27.269584 41.221778 28.647384 42.149978 30.001884 43.340978M 31.999984 45.288978C 31.166684 45.604978 28.799984 46.047378 25.999984 45.288978M 31.999984 45.288978C 31.350684 44.597578 30.679184 43.936378 30.001884 43.340978M 30.001884 43.340978C 30.334584 41.674278 30.599984 38.041078 28.999984 36.840978M 49.5 77.899878C 48.1 77.599878 46.7 77.599878 45.5 77.799878C 41.6 78.799878 44 81.099878 31 81.799878C 20.6 82.499878 14.9 85.299878 13.5 86.799878C 37 85.499878 60.6 88.799878 84 86.799878C 83 85.199878 79.5 81.199878 75.5 81.799878C 70.5 82.599878 65.7 81.199878 60.5 79.799878C 56.8 78.899878 53 78.299878 49.5 77.899878M 49.5 77.899878C 49.3 76.399878 49 74.399878 49.2 71.999878M 48.5 36.799878C 48.4 37.499878 47.7 41.099878 48.5 49.799878C 49.1 56.299878 48.4 65.499878 49.2 71.999878M 48.5 36.799878C 51.2 35.499878 56.8 31.199878 60.5 26.799878C 65.2 21.299878 62.2 12.899878 56 10.299878C 49.8 7.799878 43.4 12.299878 43 17.299878C 42.6 23.499878 40.8 32.599878 48.5 36.799878M 48.5 36.799878C 48.5 35.299878 48.2 32.299878 49.2 29.299878M 52 22.299878C 50.3 23.499878 49.4 25.999878 49.5 28.099878M 49.2 29.299878C 51.2 28.099878 56.2 26.999878 56 25.799878M 49.2 29.299878C 49.2 28.899878 49.5 28.499878 49.5 28.099878M 49.5 28.099878C 48.8 26.899878 47.2 24.299878 47 22.299878M 49.2 71.999878C 49.8 69.699878 50.7 63.799878 55 58.799878C 59.3 53.899878 62 51.299878 62.5 50.299878M 49.2 71.999878C 48.3 69.699878 45.2 63.999878 41.5 57.799878C 38.5 55.199878 37.6 52.699878 37 52.499878M 62.5 50.299878C 62 47.899878 60.5 41.399878 66 36.799878C 71.4 32.299878 76.9 32.499878 79.5 32.799878C 82.4 33.799878 86.9 39.499878 83.5 44.299878C 79.3 50.399878 75.5 51.499878 71.5 51.799878C 68.3 52.099878 64.2 50.799878 62.5 50.299878M 62.5 50.299878C 63.4 49.399878 64.1 47.599878 65.5 46.299878M 71.5 42.299878C 70.3 41.999878 68.4 42.799878 67.5 44.299878M 65.5 46.299878C 66.6 46.799878 69.6 47.299878 71.5 46.299878M 65.5 46.299878C 66.1 45.599878 66.8 44.999878 67.5 44.299878M 67.5 44.299878C 67.5 42.999878 66.7 39.899878 68 38.299878M 37 52.499878C 34.3 51.399878 27.1 49.599878 22.5 50.799878C 16.7 52.399878 12.8 45.299878 12 40.799878C 11.2 36.399878 11.6 29.499878 19.5 28.799878C 27.4 28.199878 33.9 33.699878 36 39.299878C 37.6 43.499878 37.2 48.999878 37.1 51.799878M 37 52.499878C 37 52.299878 37 52.099878 37.1 51.799878M 37.1 51.799878C 36.5 49.999878 34.8 46.699878 32 45.299878M 26 40.799878C 27.3 40.899878 28.6 42.199878 30 43.299878M 32 45.299878C 31.1 45.399878 28.8 45.899878 26 45.299878M 32 45.299878C 31.5 44.499878 30.6 43.999878 30 43.299878M 30 43.299878C 30.3 41.699878 30.6 37.999878 29 36.799878"></path></g></g><g id="cp_3_g-3_v4uw1bthnjtb-stroke" fill="none" stroke-linecap="round" stroke-linejoin="round" stroke-miterlimit="4" stroke="#484848" stroke-width="4" stroke-opacity="1"><g><path d="M 18 149.343628C 17.8333 152.176928 18.2 158.543628 21 161.343628L 75 161.343628C 78 158.843628 78 152.943628 78 149.343628L 75 149.343628L 79 121.593628L 79.6126 117.343628L 83 93.843628L 85 93.843628L 86 86.843628L 10 86.843628L 11 93.843628L 13 93.843628L 16.3874 117.343628L 17 121.593628L 21 149.343628L 18 149.343628ZM 21 149.343628L 18 149.343628C 17.8333 152.176928 18.2 158.543628 21 161.343628L 75 161.343628C 78 158.843628 78 152.943628 78 149.343628L 75 149.343628M 21 149.343628L 75 149.343628M 21 149.343628L 17 121.593628M 13 93.843628L 11 93.843628L 10 86.843628L 86 86.843628L 85 93.843628L 83 93.843628M 13 93.843628L 83 93.843628M 13 93.843628L 16.3874 117.343628M 75 149.343628L 79 121.593628M 83 93.843628L 79.6126 117.343628M 17 121.593628L 79 121.593628M 17 121.593628L 16.3874 117.343628M 79 121.593628L 79.6126 117.343628M 79.6126 117.343628L 16.3874 117.343628M 18 149.299878C 17.4 152.099878 17.6 159.299878 21 161.299878C 39 160.299878 57 161.799878 75 161.299878C 77.8 158.599878 78.8 152.899878 78 149.299878C 77 149.199878 76 149.099878 75 149.299878C 77 140.199878 78.3 130.899878 79 121.599878C 79.1 120.199878 79.1 118.699878 79.6 117.299878C 82.3 109.899878 82.7 101.799878 83 93.799878C 83.7 93.899878 84.4 93.999878 85 93.799878C 85.6 91.599878 86.2 89.199878 86 86.799878C 74.2 85.799878 62.3 86.799878 50.5 86.799878C 37 86.899878 23.5 85.999878 10 86.799878C 10 89.199878 10.4 91.599878 11 93.799878C 11.6 93.599878 12.3 93.799878 13 93.799878C 14.3 101.699878 16.8 109.399878 16.4 117.299878C 16.3 118.799878 16.4 120.299878 17 121.599878C 20.9 130.099878 17.8 140.599878 21 149.299878C 20 149.399878 19 149.099878 18 149.299878M 21 149.299878C 20 149.499878 19 149.499878 18 149.299878C 18.5 152.099878 18.8 158.099878 21 161.299878C 39 161.099878 57 160.399878 75 161.299878C 77.4 158.299878 79.3 152.699878 78 149.299878C 77 149.199878 76 149.599878 75 149.299878M 21 149.299878C 38.9 151.099878 57 149.799878 75 149.299878M 21 149.299878C 19.3 140.099878 19.6 130.599878 17 121.599878M 13 93.799878C 12.3 93.799878 11.7 93.799878 11 93.799878C 10.1 91.699878 9.8 89.199878 10 86.799878C 35.3 85.299878 60.7 85.899878 86 86.799878C 85.7 89.199878 85.6 91.599878 85 93.799878C 84.3 93.799878 83.7 93.799878 83 93.799878M 13 93.799878C 36.3 92.499878 59.7 93.499878 83 93.799878M 13 93.799878C 14.4 101.599878 15.9 109.399878 16.4 117.299878M 75 149.299878C 76.7 140.199878 75.8 130.399878 79 121.599878M 83 93.799878C 81.3 101.599878 79.7 109.399878 79.6 117.299878M 17 121.599878C 37.6 119.799878 58.4 123.099878 79 121.599878M 17 121.599878C 16.8 120.199878 16.3 118.799878 16.4 117.299878M 79 121.599878C 79.1 120.199878 79.7 118.799878 79.6 117.299878M 79.6 117.299878C 58.5 116.599878 37.4 118.899878 16.4 117.299878"></path></g></g></g><g id="g-root-cp_2_g-2_qp1dwvthnklk-fill" data-item-order="-359108" transform="translate(227, 272.3590087890625)"><g id="cp_2_g-2_qp1dwvthnklk-fill-merged" stroke="none" fill="#ffe4cb" fill-opacity="1"><g><path d="M11.6 52.7L9.5 56.5L25.5 68.9L29.1 62.4L11.6 52.7 M25.5 68.9L47.8 47.7L27.3 39.6L9.5 56.5L25.5 68.9 M27.3 39.6L28 52.8L48.7 64.6L47.8 47.7L27.3 39.6 M48.7 64.6L69.9 53.8L51.9 40.5L28 52.8L48.7 64.6 M51.9 40.5L51.1 45L67.7 65.7L69.9 53.8L51.9 40.5 M67.7 65.7L83.7 66.4L69.9 45.8L51.1 45L67.7 65.7 M69.9 45.8L65.7 57.5L84.5 64.3L83.7 66.4L69.9 45.8 M43.6 12.7L44.6 27.4L64.6 26L63.5 11.3L43.6 12.7" fill-rule="nonzero"></path></g></g><g id="cp_2_g-2_qp1dwvthnklk-fill-merged" stroke="none" fill="#ffe4cb" fill-opacity="1"><g><path d="M17.7 42.6L9.7 48.7L16.5 68.7L29.8 58.5L17.7 42.6 M16.5 68.7L46.8 68.8L38.5 48.8L9.7 48.7L16.5 68.7 M38.5 48.8L10.6 76.6L21.5 93.9L46.8 68.8L38.5 48.8 M21.5 93.9L85.2 70.9L75.4 53.2L10.6 76.6L21.5 93.9 M75.4 53.2L13.4 101.8L22.8 119.8L85.2 70.9L75.4 53.2 M22.8 119.8L84.6 100.5L75.8 82.3L13.4 101.8L22.8 119.8 M75.8 82.3L30.7 112.6L37.9 131.8L84.6 100.5L75.8 82.3 M37.9 131.8L78.4 126.8L68.1 108L30.7 112.6L37.9 131.8 M68.1 108L58.5 119.5L73.8 132.3L78.4 126.8L68.1 108" fill-rule="nonzero"></path></g></g></g><g id="g-root-cp_2_g-2_qp1dwvthnklk-stroke" data-item-order="-359108" transform="translate(227, 272.3590087890625)"><g id="cp_2_g-2_qp1dwvthnklk-stroke" fill="none" stroke-linecap="round" stroke-linejoin="round" stroke-miterlimit="4" stroke="#484848" stroke-width="4" stroke-opacity="1"><g><path d="M 52.5 46.2212C 48.573 46.2974 44.4154 46.8205 42.5 47.1398C 39.5 47.6398 41 50.6398 29 50.6398C 19.4 50.6398 14.6667 53.6398 13.5 55.1398L 83 54.6396C 81 53.3063 76 50.6398 72 50.6398C 67 50.6398 63 47.6398 58.5 46.6398C 56.8732 46.2782 54.7235 46.1781 52.5 46.2212ZM 52.5 46.2212C 52.5 43.8607 52.8 38.4396 54 35.6396M 54 35.6396C 55.5 32.1396 64.5 30.1396 66 23.1396C 67.5 16.1396 65 11.1396 60 10.1396C 55 9.1396 48.9617 13.6365 48.5 19.6396C 48 26.1406 49.5 31.6385 54 35.6396ZM 54 35.6396C 53.8149 33.9738 53.7429 31.0747 54.1949 28.1406M 56.5 21.6406C 55.7 22.7835 55.1258 24.1713 54.7215 25.6406M 54.1949 28.1406C 55.7966 27.6406 59 26.2406 59 24.6406M 54.1949 28.1406C 54.3243 27.3008 54.4966 26.4581 54.7215 25.6406M 54.7215 25.6406C 54.1477 24.9743 53 23.2414 53 21.6406M 52.5 46.2C 48.7 45.3 44.3 46.5 42.5 47.1C 39.6 48.2 40.9 52.4 29 50.6C 19.5 49.2 14.8 53.7 13.5 55.1C 36.7 54.5 59.9 56.5 83 54.6C 80.7 53.9 76 50.5 72 50.6C 67 50.8 62.7 48.7 58.5 46.6C 57 45.9 54.7 45.8 52.5 46.2M 52.5 46.2C 52.4 43.9 52.8 38.5 54 35.6M 54 35.6C 56 32.4 63.6 29.9 66 23.1C 68.4 16.4 64.9 11.4 60 10.1C 55.1 8.8 49.5 13.7 48.5 19.6C 47.4 26.1 49.7 31.4 54 35.6M 54 35.6C 54 34 53.1 30.9 54.2 28.1M 56.5 21.6C 55.5 22.6 55.3 24.2 54.7 25.6M 54.2 28.1C 55.7 27.4 59.1 26.2 59 24.6M 54.2 28.1C 54.6 27.4 54.4 26.4 54.7 25.6M 54.7 25.6C 54.3 24.9 53.6 23.1 53 21.6"></path></g></g><g id="cp_2_g-2_qp1dwvthnklk-stroke" fill="none" stroke-linecap="round" stroke-linejoin="round" stroke-miterlimit="4" stroke="#484848" stroke-width="4" stroke-opacity="1"><g><path d="M 21 117.640625L 18 117.640625C 17.8333 120.473925 18.2 126.840625 21 129.640625L 75 129.640625C 78 127.140625 78 121.240625 78 117.640625L 75 117.640625M 21 117.640625L 75 117.640625M 21 117.640625L 17 89.890625M 13 62.140625L 11 62.140625L 10 55.140625L 86 55.140625L 85 62.140625L 83 62.140625M 13 62.140625L 83 62.140625M 13 62.140625L 16.3874 85.640625M 75 117.640625L 79 89.890625M 83 62.140625L 79.6126 85.640625M 17 89.890625L 79 89.890625M 17 89.890625L 16.3874 85.640625M 79 89.890625L 79.6126 85.640625M 79.6126 85.640625L 16.3874 85.640625M 21 117.6C 20 117.4 19 117.5 18 117.6C 17.7 120.5 18.8 126.3 21 129.6C 39 129.2 57.1 131.4 75 129.6C 77.4 126.6 78.1 121.2 78 117.6C 77 117.8 76 117.9 75 117.6M 21 117.6C 39 117 57 117.8 75 117.6M 21 117.6C 20.2 108.3 17.4 99.2 17 89.9M 13 62.1C 12.3 62.1 11.7 62.2 11 62.1C 11.2 59.8 10.2 57.5 10 55.1C 22.7 56.5 35.7 53.6 48.4 55.1C 60.8 56.7 73.6 53.5 86 55.1C 86.1 57.5 85.2 59.8 85 62.1C 84.4 62 83.7 62.2 83 62.1M 13 62.1C 36.3 62.3 59.7 63.5 83 62.1M 13 62.1C 13.6 70 16.6 77.7 16.4 85.6M 75 117.6C 74.7 108.3 77 99 79 89.9M 83 62.1C 82.4 70 81.5 77.9 79.6 85.6M 17 89.9C 37.6 88.5 58.3 89.4 79 89.9M 17 89.9C 16.9 88.5 16.5 87.1 16.4 85.6M 79 89.9C 78.8 88.5 79.1 87 79.6 85.6M 79.6 85.6C 69.5 87.3 59.2 86.1 49 85.6C 38.1 85.1 27.2 85.1 16.4 85.6"></path></g></g></g><g id="g-root-cp_1_g-1_qp1dwvthnkll-fill" data-item-order="-359098" transform="translate(14, 208.5)"><g id="cp_1_g-1_qp1dwvthnkll-fill-merged" stroke="none" fill="#fff8b6" fill-opacity="1"><g><path d="M123.5 131.3L128.3 128.1L120.4 109.3L112.4 114.6L123.5 131.3 M120.4 109.3L92.3 115L105.4 132.8L128.3 128.1L120.4 109.3 M105.4 132.8L111.1 122.5L97.7 105.2L92.3 115L105.4 132.8 M97.7 105.2L63 114L73.8 131.9L111.1 122.5L97.7 105.2 M73.8 131.9L86.2 118.2L71.4 104.7L63 114L73.8 131.9 M95.1 139.4L110 125.3L96.2 110.8L81.3 124.9L95.1 139.4 M103 67.4L104.8 63.8L93 42.6L85.1 58.5L103 67.4 M93 42.6L65.3 39.9L72.4 60.7L104.8 63.8L93 42.6 M72.4 60.7L99.7 35.2L88.5 18.4L65.3 39.9L72.4 60.7 M88.5 18.4L37.9 41.6L49 58.5L99.7 35.2L88.5 18.4 M49 58.5L85.2 25.9L74.8 8.3L37.9 41.6L49 58.5 M74.8 8.3L20.5 27.5L31.3 44.9L85.2 25.9L74.8 8.3 M31.3 44.9L45.6 30.9L38.3 10.1L20.5 27.5L31.3 44.9 M38.3 10.1L7.7 7L11.3 27.5L45.6 30.9L38.3 10.1 M11.3 27.5L25.3 20.8L16.7 2.7L7.7 7L11.3 27.5" fill-rule="nonzero"></path></g></g><g id="cp_1_g-1_qp1dwvthnkll-fill-merged" stroke="none" fill="#fff8b6" fill-opacity="1"><g><path d="M64.6 109L61.5 109.2L62.2 129.2L65.8 128.9L64.6 109 M62.2 129.2L94.5 128.7L85.6 108.8L61.5 109.2L62.2 129.2 M85.6 108.8L56.6 140.4L68.4 157L94.5 128.7L85.6 108.8 M68.4 157L132.7 129.3L121.8 112.2L56.6 140.4L68.4 157 M121.8 112.2L62 164.9L72.3 182.5L132.7 129.3L121.8 112.2 M72.3 182.5L126.5 163.2L116.9 145.4L62 164.9L72.3 182.5 M116.9 145.4L71.6 179.8L79.2 199.2L126.5 163.2L116.9 145.4 M79.2 199.2L127 194.4L118.9 175.1L71.6 179.8L79.2 199.2 M118.9 175.1L105 186.6L117.7 202L127 194.4L118.9 175.1 M116.1 109.6L111.1 116.6L127.4 128.2L132.5 121.1L116.1 109.6" fill-rule="nonzero"></path></g></g></g><g id="g-root-cp_1_g-1_qp1dwvthnkll-stroke" data-item-order="-359098" transform="translate(14, 208.5)"><g id="cp_1_g-1_qp1dwvthnkll-stroke" fill="none" stroke-linecap="round" stroke-linejoin="round" stroke-miterlimit="4" stroke="#484848" stroke-width="4" stroke-opacity="1"><g><path d="M 97 104.6283C 96.223 104.5464 95.386 104.6457 94.5 105.0001C 90.5 106.6001 90.8333 114.9999 91.5 118.9998C 89.3333 117.4998 82.7 114.3998 73.5 113.9998C 64.3 113.5998 59 117.1665 57.5 118.9998L 130.5 118.9998C 130.3333 117.6665 128 114.7998 120 113.9998C 112 113.1999 107.6667 116.9999 106.5 118.9998C 105.7 115.7999 103.5 111 102.5 109.0001C 101.7215 107.4431 99.7309 104.9164 97 104.6283ZM 97 104.6283C 96.6667 106.7522 96.5 111.5999 98.5 113.9998M 95.125 78.9998C 97.6514 79.8185 98.5 81.8713 98.5 83.4998C 98.5 85.9998 97 86.9998 96.5 93.9998C 96.1 99.5998 91.6667 100.9998 89.5 100.9998C 83.9 100.1996 82.5 95.9997 82.5 93.9998C 82.5 89.4998 83.9 80.1998 89.5 78.9998C 91.9403 78.4769 93.7729 78.5616 95.125 78.9998ZM 95.125 78.9998C 93.5833 79.9999 90.4 83.7 90 90.5M 75 31C 71 32.5 70.5 37.5 73.5 40.5C 76.5 43.5 77.5 42.5 82.5 45.5C 84.8515 46.9109 86.5394 47.8794 88.5 48.7176M 95.125 71C 95.5833 72.1667 97.5 74.5 101.5 74.5C 104.5925 74.5 105.8918 71.5114 106.3222 69M 95.125 71C 94.25 71.3333 92 71.5 90 69.5C 87.5 67 86 65.0135 82.5 56.7567M 95.125 71C 94.9167 70.5 94.4 69 94 67C 93.8502 66.4942 93.7508 65.9923 93.6928 65.5M 82.5 56.7567C 81.751 56.6552 81.0753 56.569 80.5 56.5C 71 56 60.5 58 51 51C 41.5 44 17.5 39.3333 10 38.5L 10 10C 18 13 39.3 18.6 54.5 17C 73.5 15 77.5 12 83.5 16C 88.3 19.2 97.5 29 101.5 33.5C 103.1667 34.8333 106.5 39.1 106.5 45.5C 106.5 51.9 106.5 62.5 106.5 67C 106.5 67.5672 106.4485 68.263 106.3222 69M 82.5 56.7567C 84.7502 57.0617 87.6619 57.5049 90.5 58.0364M 81 30L 92 39C 93.5 40.1667 96.5 43.4 96.5 47C 96.5 48.6 96.5 50.4981 96.5 51.2472M 96.5 51.2472C 96.8227 51.3297 97.1558 51.4139 97.5 51.5C 105.5 53.5 106.5 55.5 106.5 57.5C 106.5 58.7396 105.5397 60.1712 103.5 60.6045M 96.5 51.2472C 92.8497 50.313 90.5289 49.5851 88.5 48.7176M 80 38.5L 85.5 43C 86.3333 43.8118 88.1 46.0918 88.5 48.7176M 95.125 59.017C 96.4105 59.3313 97.5681 59.6611 98.5 60C 99.0274 60.1918 99.5273 60.3422 100 60.4556M 95.125 59.017C 93.6965 58.6678 92.1101 58.3379 90.5 58.0364M 95.125 59.017C 94.4381 60.0533 93.3521 62.6095 93.6928 65.5M 90.5 58.0364C 90.9619 59.8576 92.247 63.9 93.6928 65.5M 100 60.4556C 99.6667 61.4704 99.2 64.2 100 67M 100 60.4556C 101.4015 60.792 102.5643 60.8033 103.5 60.6045M 106.3222 69C 105.0482 67.2363 102.7 63.0881 103.5 60.6045M 97 104.6C 96.2 104.6 95.3 104.5 94.5 105C 90.8 107.2 91 115 91.5 119C 89.3 117.6 82.4 116.2 73.5 114C 64.6 111.8 59.1 117.2 57.5 119C 69.7 120.2 82.1 117.7 94.4 119C 106.3 120.2 118.5 119.5 130.5 119C 130.6 117.7 128 114.4 120 114C 112 113.6 108.1 117.3 106.5 119C 105.8 115.8 104.2 110.5 102.5 109C 101.2 107.8 99.7 104.9 97 104.6M 97 104.6C 96.6 106.7 96.2 111.9 98.5 114M 95.1 79C 97.8 79.1 98.4 81.9 98.5 83.5C 98.6 86 97.8 87.1 96.5 94C 95.5 99.5 91.7 100.9 89.5 101C 83.9 100.1 83.1 95.9 82.5 94C 81.3 89.7 83.9 80.3 89.5 79C 91.9 78.5 93.7 78.7 95.1 79M 95.1 79C 93.3 79.4 92.3 84.1 90 90.5M 75 31C 71.5 33.5 71.3 36.9 73.5 40.5C 75.7 44.1 77.4 42.7 82.5 45.5C 84.9 46.8 86.7 47.6 88.5 48.7M 95.1 71C 95.7 72.1 97.5 74.3 101.5 74.5C 104.6 74.7 106.6 71.5 106.3 69M 95.1 71C 94.2 71.3 91.4 71.9 90 69.5C 88.2 66.4 85.2 65.3 82.5 56.8M 95.1 71C 94.9 70.5 94.8 68.9 94 67C 93.8 66.5 93.8 66 93.7 65.5M 82.5 56.8C 81.8 56.9 81.1 56.7 80.5 56.5C 71.1 55.1 60.3 58.3 51 51C 41.7 43.7 17.5 39.3 10 38.5C 10.7 29 9 19.4 10 10C 18.4 11.5 39.3 18.6 54.5 17C 73.5 15 78 11.4 83.5 16C 87.9 19.7 96.6 30 101.5 33.5C 103.1 34.9 105.3 39.2 106.5 45.5C 107.7 51.8 105.6 62.6 106.5 67C 106.6 67.6 106.2 68.3 106.3 69M 82.5 56.8C 84.7 57.2 87.6 58.3 90.5 58M 81 30C 84.2 33.5 87.6 37.3 92 39C 93.5 40.1 95.7 43.5 96.5 47C 96.8 48.6 96.6 50.5 96.5 51.2M 96.5 51.2C 96.8 51.3 97.2 51.3 97.5 51.5C 104.3 56.2 106.7 55.5 106.5 57.5C 106.4 58.7 105.6 60.6 103.5 60.6M 96.5 51.2C 92.9 50.2 90.7 48.9 88.5 48.7M 80 38.5C 81.5 40.4 83.7 41.5 85.5 43C 86.2 44 87.7 46.2 88.5 48.7M 95.1 59C 96.4 58.8 97.5 60 98.5 60C 99.1 60 99.6 60.2 100 60.5M 95.1 59C 93.9 58.3 92.1 58.2 90.5 58M 95.1 59C 94.4 60 92.9 62.7 93.7 65.5M 90.5 58C 91.2 59.8 92.2 63.9 93.7 65.5M 100 60.5C 99.8 61.5 100.2 64.1 100 67M 100 60.5C 101.4 60.9 102.6 60.9 103.5 60.6M 106.3 69C 105.1 67.2 102.7 63.1 103.5 60.6"></path></g></g><g id="cp_1_g-1_qp1dwvthnkll-stroke" fill="none" stroke-linecap="round" stroke-linejoin="round" stroke-miterlimit="4" stroke="#484848" stroke-width="4" stroke-opacity="1"><g><path d="M 66 181.5L 63 181.5C 62.8333 184.3333 63.2 190.7 66 193.5L 120 193.5C 123 191 123 185.1 123 181.5L 120 181.5M 66 181.5L 120 181.5M 66 181.5L 62 153.75M 58 126L 56 126L 55 119L 131 119L 130 126L 128 126M 58 126L 128 126M 58 126L 61.3874 149.5M 120 181.5L 124 153.75M 128 126L 124.6126 149.5M 62 153.75L 124 153.75M 62 153.75L 61.3874 149.5M 124 153.75L 124.6126 149.5M 124.6126 149.5L 61.3874 149.5M 66 181.5C 65 181.5 64 181.3 63 181.5C 62.1 184.2 63.3 190.6 66 193.5C 84 193.7 102 194 120 193.5C 123.3 191.4 121.9 184.9 123 181.5C 122 181.8 120.9 181.2 120 181.5M 66 181.5C 84 182.1 102.1 180.1 120 181.5M 66 181.5C 64.8 172.2 64.9 162.6 62 153.8M 58 126C 57.3 126.1 56.7 126 56 126C 55.6 123.7 55.3 121.3 55 119C 66.7 119.8 78.4 120.3 90 119C 103.6 117.5 117.3 119.6 131 119C 130.6 121.3 129.7 123.7 130 126C 129.3 126.1 128.7 125.9 128 126M 58 126C 81.3 127.4 104.7 124.1 128 126M 58 126C 60.8 133.4 61.3 141.6 61.4 149.5M 120 181.5C 122.3 172.4 123.1 163.1 124 153.8M 128 126C 127.1 133.9 126 141.7 124.6 149.5M 62 153.8C 82.6 154.9 103.4 155.6 124 153.8M 62 153.8C 62.1 152.3 61.5 150.9 61.4 149.5M 124 153.8C 124.3 152.3 124.7 150.9 124.6 149.5M 124.6 149.5C 103.5 149.8 82.4 148.6 61.4 149.5"></path></g></g></g><g id="g-root-cp_0_g-0_m9ucvjthni82-fill" data-item-order="-359088" transform="translate(245.00003051757812, 118)"><g id="cp_0_g-0_m9ucvjthni82-fill-merged" stroke="none" fill="#ebebeb" fill-opacity="1"><g><path d="M13.3 204.7 H12L27.5 185.6L14.6 184.8L13.3 204.7 M27.5 185.6L19.9 158.6L0.6 163.7L12 204.7L27.5 185.6 M0.6 163.7L3.2 174.3L23.3 172.3L19.9 158.6L0.6 163.7 M23.3 172.3L25 131.9L4.7 138.5L3.2 174.3L23.3 172.3 M4.7 138.5L13.2 149.2L34.6 143.9L25 131.9L4.7 138.5 M34.6 143.9L40.3 114.1L17.9 124.8L13.2 149.2L34.6 143.9 M17.9 124.8L32.2 129.7L48.1 128.8L55.6 126.7L53.4 124.9L70.2 112.7L69.8 112.4L42.6 111.3L39.3 113.6L40.3 114.1L17.9 124.8 M70.2 112.7L53.4 67.8L36.4 79.5L53.4 124.9L70.2 112.7 M36.4 79.5L60.9 101.1L78.1 89.6L53.4 67.8L36.4 79.5 M78.1 89.6L65.4 52.1L48.2 63.7L60.9 101.1L78.1 89.6 M48.2 63.7L119.9 125.4L135.9 112.8L65.4 52.1L48.2 63.7 M135.9 112.8L101.3 45.6L84.9 57.4L119.9 125.4L135.9 112.8 M84.9 57.4L127.6 102.1L145.6 92L101.3 45.6L84.9 57.4 M145.6 92L136.8 59L120 73.4L127.6 102.1L145.6 92 M120 73.4L137 80.9L145.1 62.6L136.8 59L120 73.4 M72.5 116.3L88.8 127L99.8 110.4L83.6 99.6L72.5 116.3" fill-rule="nonzero"></path></g></g></g><g id="g-root-cp_0_g-0_m9ucvjthni82-stroke" data-item-order="-359088" transform="translate(245.00003051757812, 118)"><g id="cp_0_g-0_m9ucvjthni82-stroke" fill="none" stroke-linecap="round" stroke-linejoin="round" stroke-miterlimit="4" stroke="#484848" stroke-width="4" stroke-opacity="1"><g><path d="M 10.726369 168.442C 8.689969 165.7266 11.392969 159.1086 13.226369 155.942C 17.226369 160.742 17.726269 166.442 16.226269 168.442C 15.226269 169.942 12.226269 170.442 10.726369 168.442ZM 10.726369 195.442C 8.689969 192.7266 11.392969 186.1086 13.226369 182.942C 17.226369 187.742 17.726269 193.442 16.226269 195.442C 15.226269 196.942 12.226269 197.442 10.726369 195.442ZM 19.226269 146.942C 17.189869 144.2266 19.892969 137.6086 21.726269 134.442C 25.726269 139.242 26.226269 144.942 24.726269 146.942C 23.726269 148.442 20.726169 148.942 19.226269 146.942ZM 146.226469 64.442L 123.726469 126.442L 117.726469 123.9424L 20.726469 125.9424L 22.726469 119.9424L 85.226469 108.9424L 59.226469 97.0979L 55.226469 95.2757L 47.726469 91.8591L 40.226469 88.4424C 35.726469 85.9424 35.726469 76.4424 42.726469 71.9424C 49.726469 67.4424 51.226469 62.942 56.226469 51.942C 60.226469 43.142 64.559769 42.6086 66.226469 43.442L 70.226469 44.492C 65.893169 39.1421 60.726469 22.7002 74.226469 13.4424C 78.893169 10.2757 90.826469 6.4424 101.226469 16.4424C 114.226469 28.9424 113.726469 38.4434 119.726469 46.4424C 125.726469 54.4414 127.226469 58.4045 134.726469 61.4232L 146.226469 64.442ZM 66.226469 43.442L 47.726469 91.8591M 85.226469 108.9424L 117.726469 123.9424M 59.226469 97.0979L 77.656569 46.4424M 77.656569 46.4424L 74.226469 45.542M 77.656569 46.4424L 134.726469 61.4232M 74.226469 45.542L 55.226469 95.2757M 74.226469 45.542L 70.226469 44.492M 84.226469 57.9424L 97.726469 60.9424M 10.699969 168.4C 9.199969 165.4 11.699969 159.3 13.199969 155.9C 16.699969 161.2 17.599969 166.4 16.199969 168.4C 14.799969 169.5 11.899969 170.6 10.699969 168.4M 10.699969 195.4C 8.199969 193.2 11.199969 186 13.199969 182.9C 17.599969 187.4 16.999969 193.1 16.199969 195.4C 15.199969 196.9 12.499969 197.2 10.699969 195.4M 19.199969 146.9C 16.799969 144.6 19.899969 137.6 21.699969 134.4C 25.899969 139.1 26.299969 145 24.699969 146.9C 23.299969 148 20.899969 148.8 19.199969 146.9M 146.199969 64.4C 137.399969 84.6 131.199969 105.8 123.699969 126.4C 121.799969 125.4 119.899969 124.1 117.699969 123.9C 102.999969 124.1 88.099969 123.1 73.499969 124.9C 55.999969 127 38.299969 124.7 20.699969 125.9C 21.799969 124.1 22.299969 122 22.699969 119.9C 32.099969 116.8 42.299969 116.2 52.099969 114.8C 63.199969 113.2 74.199969 110.7 85.199969 108.9C 76.599969 104.9 68.399969 99.6 59.199969 97.1C 57.799969 96.7 56.299969 96.3 55.199969 95.3C 53.199969 93.4 49.999969 93.5 47.699969 91.9C 45.499969 90.2 42.799969 89.5 40.199969 88.4C 35.199969 87.4 36.499969 77.5 42.699969 71.9C 48.899969 66.4 50.599969 62.6 56.199969 51.9C 60.699969 43.4 64.699969 42.4 66.199969 43.4C 67.499969 43.8 68.999969 43.9 70.199969 44.5C 66.199969 38.9 60.499969 22.4 74.199969 13.4C 79.299969 11.1 90.599969 6.7 101.199969 16.4C 114.599969 28.6 114.999969 37.6 119.699969 46.4C 124.499969 55.3 127.199969 58.5 134.699969 61.4C 138.499969 62.5 142.399969 63.3 146.199969 64.4M 66.199969 43.4C 61.999969 60.2 52.599969 75.3 47.699969 91.9M 85.199969 108.9C 96.299969 113.3 106.899969 118.8 117.699969 123.9M 59.199969 97.1C 65.799969 80.4 70.499969 62.9 77.699969 46.4M 77.699969 46.4C 76.499969 46.2 75.399969 45.7 74.199969 45.5M 77.699969 46.4C 97.099969 49.5 115.599969 56.9 134.699969 61.4M 74.199969 45.5C 68.599969 62.4 62.099969 78.9 55.199969 95.3M 74.199969 45.5C 72.899969 45.2 71.499969 44.9 70.199969 44.5M 84.199969 57.9C 88.799969 58.5 93.299969 59.8 97.699969 60.9"></path></g></g></g><g id="g-root-cp_0_g-0_1_m9ucvjthni83-fill" data-item-order="-359081" transform="translate(129.00003051757812, 272)"></g><g id="g-root-cp_0_g-0_1_m9ucvjthni83-stroke" data-item-order="-359081" transform="translate(129.00003051757812, 272)"><g id="cp_0_g-0_1_m9ucvjthni83-stroke" fill="none" stroke-linecap="round" stroke-linejoin="round" stroke-miterlimit="4" stroke="#484848" stroke-width="4" stroke-dasharray="10.0, 14.0" stroke-opacity="1"><g><path d="M 9.999969 43.3351C 12.713769 36.7835 16.691369 30.8306 21.705669 25.8162C 26.720069 20.8019 32.672969 16.8242 39.224569 14.1105C 45.776169 11.3967 52.798069 10 59.889469 10C 66.980869 10 74.002769 11.3968 80.554369 14.1105C 87.105969 16.8243 93.058869 20.8019 98.073269 25.8163C 103.087569 30.8306 107.065269 36.7836 109.778969 43.3351M 177.999969 43.3351C 180.713769 36.7835 184.691369 30.8306 189.705669 25.8162C 194.720069 20.8019 200.672969 16.8242 207.224569 14.1105C 213.776169 11.3967 220.798069 10 227.889469 10C 234.980869 10 242.002769 11.3968 248.554369 14.1105C 255.105969 16.8243 261.058869 20.8019 266.073269 25.8163C 271.087569 30.8306 275.065269 36.7836 277.778969 43.3351M 345.999969 43.3351C 348.713769 36.7835 352.691369 30.8306 357.705669 25.8162C 362.720069 20.8019 368.672969 16.8242 375.224569 14.1105C 381.776169 11.3967 388.798069 10 395.889469 10C 402.980869 10 410.002769 11.3968 416.554369 14.1105C 423.105969 16.8243 429.058869 20.8019 434.073269 25.8163C 439.087569 30.8306 443.065269 36.7836 445.778969 43.3351M 9.999969 43.3C 11.399969 36.4 16.299969 30.4 21.699969 25.8C 27.199969 21.3 32.399969 16.1 39.199969 14.1C 45.999969 12.1 52.899969 8.8 59.899969 10C 66.899969 11.2 73.599969 12.8 80.599969 14.1C 87.499969 15.5 93.299969 20.6 98.099969 25.8C 102.899969 31 105.899969 37.4 109.799969 43.3M 177.999969 43.3C 181.499969 37.1 185.299969 31.4 189.699969 25.8C 194.099969 20.3 200.799969 17.1 207.199969 14.1C 213.599969 11.1 220.799969 10.7 227.899969 10C 234.899969 9.3 241.699969 12.2 248.599969 14.1C 255.399969 16 261.099969 20.8 266.099969 25.8C 270.999969 30.9 275.099969 36.8 277.799969 43.3M 345.999969 43.3C 347.399969 36.4 352.399969 30.5 357.699969 25.8C 362.999969 21.1 369.299969 18 375.199969 14.1C 381.099969 10.2 388.799969 9.2 395.899969 10C 402.899969 10.8 410.099969 11.2 416.599969 14.1C 422.999969 17 429.999969 20 434.099969 25.8C 438.199969 31.6 441.399969 37.7 445.799969 43.3"></path></g></g></g><g id="g-root-tx_sakeplat_de7cmnthnj0s-fill" data-item-order="0" transform="translate(163.0546875, 38)"><g id="tx_sakeplat_de7cmnthnj0s-fill-merged" stroke="none" fill="#484848" fill-opacity="1"><g><text style="font: bold 25px &quot;Shantell Sans&quot;, cursive; white-space: pre;" transform="translate(195.9453125, 25)" font-weight="bold" font-size="25px" font-family="'Shantell Sans', cursive"><tspan x="-183.95" y="16.5" dominant-baseline="ideographic">Sake Platform User Journey</tspan></text></g></g></g><g id="g-root-tx_sakeplat_de7cmnthnj0s-stroke" data-item-order="0" transform="translate(163.0546875, 38)"></g><g id="g-root-tx_initiald_2qu9bthnklp-fill" data-item-order="0" transform="translate(49.30078125, 440)"><g id="tx_initiald_2qu9bthnklp-fill-merged" stroke="none" fill="#484848" fill-opacity="1"><g><text style="font: 20px &quot;Shantell Sans&quot;, cursive; white-space: pre;" transform="translate(57.69921875, 34)" font-size="20px" font-family="'Shantell Sans', cursive"><tspan x="-30.04" y="1.5" dominant-baseline="ideographic">Initial </tspan><tspan x="-45.7" y="25.5" dominant-baseline="ideographic">Discovery</tspan></text></g></g></g><g id="g-root-tx_initiald_2qu9bthnklp-stroke" data-item-order="0" transform="translate(49.30078125, 440)"></g><g id="g-root-tx_search_1hd7ctrthnjlz-fill" data-item-order="0" transform="translate(230.65625, 440)"><g id="tx_search_1hd7ctrthnjlz-fill-merged" stroke="none" fill="#484848" fill-opacity="1"><g><text style="font: 20px &quot;Shantell Sans&quot;, cursive; white-space: pre;" transform="translate(44.34375, 22)" font-size="20px" font-family="'Shantell Sans', cursive"><tspan x="-32.34" y="13.5" dominant-baseline="ideographic">Search</tspan></text></g></g></g><g id="g-root-tx_search_1hd7ctrthnjlz-stroke" data-item-order="0" transform="translate(230.65625, 440)"></g><g id="g-root-tx_verify_142dbjjthni15-fill" data-item-order="0" transform="translate(403.1796875, 440)"><g id="tx_verify_142dbjjthni15-fill-merged" stroke="none" fill="#484848" fill-opacity="1"><g><text style="font: 20px &quot;Shantell Sans&quot;, cursive; white-space: pre;" transform="translate(39.8203125, 22)" font-size="20px" font-family="'Shantell Sans', cursive"><tspan x="-27.82" y="13.5" dominant-baseline="ideographic">Verify</tspan></text></g></g></g><g id="g-root-tx_verify_142dbjjthni15-stroke" data-item-order="0" transform="translate(403.1796875, 440)"></g><g id="g-root-tx_comprehe_qqwt67thnjm3-fill" data-item-order="0" transform="translate(529, 440)"><g id="tx_comprehe_qqwt67thnjm3-fill-merged" stroke="none" fill="#484848" fill-opacity="1"><g><text style="font: 20px &quot;Shantell Sans&quot;, cursive; white-space: pre;" transform="translate(86.19921875, 34)" font-size="20px" font-family="'Shantell Sans', cursive"><tspan x="-74.2" y="1.5" dominant-baseline="ideographic">Comprehensive </tspan><tspan x="-35.29" y="25.5" dominant-baseline="ideographic">Output</tspan></text></g></g></g><g id="g-root-tx_comprehe_qqwt67thnjm3-stroke" data-item-order="0" transform="translate(529, 440)"></g><g id="g-root-tx_usersexp_1cxdupbthnke8-fill" data-item-order="0" transform="translate(193.92578125, 476)"><g id="tx_usersexp_1cxdupbthnke8-fill-merged" stroke="none" fill="#484848" fill-opacity="1"><g><text style="font: 15px &quot;Shantell Sans&quot;, cursive; white-space: pre;" transform="translate(81.07421875, 37)" font-size="15px" font-family="'Shantell Sans', cursive"><tspan x="-69.07" y="-8" dominant-baseline="ideographic">Users explore sake </tspan><tspan x="-53.25" y="10" dominant-baseline="ideographic">breweries and </tspan><tspan x="-32.75" y="28" dominant-baseline="ideographic">products</tspan></text></g></g></g><g id="g-root-tx_usersexp_1cxdupbthnke8-stroke" data-item-order="0" transform="translate(193.92578125, 476)"></g><g id="g-root-tx_userscon_zmjtf3thnite-fill" data-item-order="0" transform="translate(369.9375, 476)"><g id="tx_userscon_zmjtf3thnite-fill-merged" stroke="none" fill="#484848" fill-opacity="1"><g><text style="font: 15px &quot;Shantell Sans&quot;, cursive; white-space: pre;" transform="translate(73.0625, 37)" font-size="15px" font-family="'Shantell Sans', cursive"><tspan x="-50.5" y="-8" dominant-baseline="ideographic">Users confirm </tspan><tspan x="-57.97" y="10" dominant-baseline="ideographic">brewery details </tspan><tspan x="-61.06" y="28" dominant-baseline="ideographic">and authenticity</tspan></text></g></g></g><g id="g-root-tx_userscon_zmjtf3thnite-stroke" data-item-order="0" transform="translate(369.9375, 476)"></g><g id="g-root-tx_usersfir_1lt0uy7thnitq-fill" data-item-order="0" transform="translate(41.48828125, 500)"><g id="tx_usersfir_1lt0uy7thnitq-fill-merged" stroke="none" fill="#484848" fill-opacity="1"><g><text style="font: 15px &quot;Shantell Sans&quot;, cursive; white-space: pre;" transform="translate(65.51171875, 37)" font-size="15px" font-family="'Shantell Sans', cursive"><tspan x="-39.63" y="-8" dominant-baseline="ideographic">Users first </tspan><tspan x="-53.51" y="10" dominant-baseline="ideographic">encounter the </tspan><tspan x="-53.19" y="28" dominant-baseline="ideographic">Sake Platform</tspan></text></g></g></g><g id="g-root-tx_usersfir_1lt0uy7thnitq-stroke" data-item-order="0" transform="translate(41.48828125, 500)"></g><g id="g-root-tx_usersgai_mb3b1rthnkec-fill" data-item-order="0" transform="translate(554.3515625, 500)"><g id="tx_usersgai_mb3b1rthnkec-fill-merged" stroke="none" fill="#484848" fill-opacity="1"><g><text style="font: 15px &quot;Shantell Sans&quot;, cursive; white-space: pre;" transform="translate(60.84765625, 37)" font-size="15px" font-family="'Shantell Sans', cursive"><tspan x="-40.51" y="-8" dominant-baseline="ideographic">Users gain </tspan><tspan x="-48.85" y="10" dominant-baseline="ideographic">visibility and </tspan><tspan x="-47.57" y="28" dominant-baseline="ideographic">engagement</tspan></text></g></g></g><g id="g-root-tx_usersgai_mb3b1rthnkec-stroke" data-item-order="0" transform="translate(554.3515625, 500)"></g></g></g></svg>