<?xml version="1.0" encoding="utf-8" standalone="yes"?>
<!DOCTYPE svg PUBLIC "-//W3C//DTD SVG 1.1//EN" "http://www.w3.org/Graphics/SVG/1.1/DTD/svg11.dtd">
<svg style="fill:none;stroke:none;fill-rule:evenodd;clip-rule:evenodd;stroke-linecap:round;stroke-linejoin:round;stroke-miterlimit:1.5;" version="1.1" xmlns="http://www.w3.org/2000/svg" xmlns:xlink="http://www.w3.org/1999/xlink" width="771" height="690" viewBox="0 0 771 690"><style class="text-font-style fontImports" data-font-family="Shantell Sans">@import url(https://fonts.googleapis.com/css2?family=Shantell+Sans:wght@300..800&amp;amp;display=block);</style><g id="items" style="isolation: isolate"><g id="blend" style="mix-blend-mode: normal"><g id="g-root-sy_0a_cu_vector_dhbwe7qpvthp-fill" data-item-order="-149678" transform="translate(140, 536)"><g id="sy_0a_cu_vector_dhbwe7qpvthp-fill-merged" stroke="none" fill="#ebebeb" fill-opacity="1"><g><path d="M16.2 15.1L12.1 19.8L24.2 36.3L31.3 28.2L16.2 15.1 M24.2 36.3L59.1 21L45.5 5.1L12.1 19.8L24.2 36.3 M45.5 5.1L13.2 55.7L28.7 68.6L59.1 21L45.5 5.1 M28.7 68.6L76 23.8L59.9 11.5L13.2 55.7L28.7 68.6 M59.9 11.5L30.7 66.4L45.5 81.2L76 23.8L59.9 11.5 M45.5 81.2L84.2 60.6L72.4 44.2L30.7 66.4L45.5 81.2 M72.4 44.2L60.1 55.9L73.8 70.4L84.2 60.6L72.4 44.2" fill-rule="nonzero"></path></g></g></g><g id="g-root-sy_0a_cu_vector_dhbwe7qpvthp-stroke" data-item-order="-149678" transform="translate(140, 536)"><g id="sy_0a_cu_vector_dhbwe7qpvthp-stroke" fill="none" stroke-linecap="round" stroke-linejoin="round" stroke-miterlimit="4" stroke="#484848" stroke-width="4" stroke-opacity="1"><g><path d="M 10 40C 10 59.8822 26.1177 76 46 76C 65.8822 76 82 59.8823 82 40C 82 27.4782 75.6069 16.4495 65.9068 10L 26.0932 10C 16.3931 16.4495 10 27.4782 10 40ZM 10 40C 9.2 59.9 26.1 76.1 46 76C 65.9 75.9 81.5 59.9 82 40C 82.3 27.5 76.2 15.4 65.9 10C 52.6 10.1 39.4 10.4 26.1 10C 16 15.8 10.3 27.5 10 40"></path></g></g></g><g id="g-root-sy_0b_cu_91ie9rqpvu9y-fill" data-item-order="-149674" transform="translate(56, 140)"><g id="sy_0b_cu_91ie9rqpvu9y-fill-merged" stroke="none" fill="#ebebeb" fill-opacity="1"><g><path d="M253.8 90.8L248.4 62.5L227.9 61.9L234.2 94.6L253.8 90.8 M227.9 61.9L213.9 118.9L234 120.8L248.4 62.5L227.9 61.9 M234 120.8L229.8 42.4L209.7 40.1L213.9 118.9L234 120.8 M209.7 40.1L187.6 116.8L207.6 119.4L229.8 42.4L209.7 40.1 M207.6 119.4L205.5 33.7L185.4 31.5L187.6 116.8L207.6 119.4 M185.4 31.5L165 112.5L184.9 115.3L205.5 33.7L185.4 31.5 M184.9 115.3L186.8 45.5L166.8 45L165 112.5L184.9 115.3 M144.1 37.8L143.9 28L123.8 21.8L124.1 38.2L144.1 37.8 M123.8 21.8L102.4 51.7L123.7 56.2L143.9 28L123.8 21.8 M123.7 56.2L114.2 10L94.6 14L102.4 51.7L123.7 56.2 M82.7 109.4L78.2 64.5L57.8 61.8L62.8 111.4L82.7 109.4 M57.8 61.8L38.6 111.3L58.5 115.2L78.2 64.5L57.8 61.8 M58.5 115.2L58.9 53.3L38.9 49.9L38.6 111.3L58.5 115.2 M38.9 49.9L17.1 113.5L37.1 116.7L58.9 53.3L38.9 49.9 M37.1 116.7L36.4 65.1L16.4 65.4L17.1 113.5L37.1 116.7" fill-rule="nonzero"></path></g></g></g><g id="g-root-sy_0b_cu_91ie9rqpvu9y-stroke" data-item-order="-149674" transform="translate(56, 140)"><g id="sy_0b_cu_91ie9rqpvu9y-stroke" fill="none" stroke-linecap="round" stroke-linejoin="round" stroke-miterlimit="4" stroke="#484848" stroke-width="4" stroke-opacity="1"><g><path d="M 250.000122 82C 250.000122 55.4903 228.509822 34 202.000122 34C 175.490422 34 154.000122 55.4903 154.000122 82C 154.000122 96.3363 160.285222 109.2047 170.250222 118L 233.750022 118C 243.715022 109.2047 250.000122 96.3363 250.000122 82ZM 141.999741 34C 141.999741 47.2548 131.254541 58 117.999741 58C 104.744941 58 93.999741 47.2548 93.999741 34C 93.999741 20.7452 104.744941 10 117.999741 10C 131.254541 10 141.999741 20.7452 141.999741 34ZM 82 88C 82 68.1177 65.8823 52 46 52C 26.1177 52 10 68.1177 10 88C 10 100.5218 16.3931 111.5505 26.0932 118L 65.9068 118C 75.6069 111.5505 82 100.5218 82 88ZM 250 82C 250.9 55.5 228.5 32.4 202 34C 188.2 34.9 174.3 38.8 166.9 49.3C 160.1 58.8 155.4 69.4 154 82C 152.4 96.2 160 109.6 170.3 118C 191.4 116.5 212.6 117.2 233.8 118C 242.8 108.3 250.3 96.3 250 82M 142 34C 143 47.2 131.2 57 118 58C 104.8 59 94.2 47.3 94 34C 93.8 20.7 104.8 9.6 118 10C 131.2 10.4 141.8 20.8 142 34M 82 88C 83.5 68.2 65.9 51.8 46 52C 26.1 52.2 8 68.2 10 88C 11.2 100.5 16.5 111.3 26.1 118C 39.3 118.6 52.6 117.9 65.9 118C 76.2 112.5 81.3 100.5 82 88"></path></g></g></g><g id="g-root-sy_4_cu_Vector_91ie9rqpvu9z-fill" data-item-order="-149670" transform="translate(120.375, 464)"><g id="sy_4_cu_Vector_91ie9rqpvu9z-fill-merged" stroke="none" fill="#fff8b6" fill-opacity="1"><g><path d="M23.825 75.8L36.225 87.4L53.025 75.6L37.425 61.2L23.825 75.8 M53.025 75.6L24.225 7.9L6.925 18.2L36.225 87.4L53.025 75.6 M6.925 18.2L59.325 83.9L76.725 73.7L24.225 7.9L6.925 18.2 M76.725 73.7L48.725 4L31.225 14.2L59.325 83.9L76.725 73.7 M31.225 14.2L86.025 82.7L103.425 72.5L48.725 4L31.225 14.2 M103.425 72.5L75.925 5.8L58.525 16L86.025 82.7L103.425 72.5 M58.525 16L89.725 55.9L110.325 49.9L75.925 5.8L58.525 16 M110.325 49.9L114.025 9.7L93.725 12.6L89.725 55.9L110.325 49.9 M93.725 12.6L101.725 32.7L120.325 25.3L114.025 9.7L93.725 12.6" fill-rule="nonzero"></path></g></g></g><g id="g-root-sy_4_cu_Vector_91ie9rqpvu9z-stroke" data-item-order="-149670" transform="translate(120.375, 464)"><g id="sy_4_cu_Vector_91ie9rqpvu9z-stroke" fill="none" stroke-linecap="round" stroke-linejoin="round" stroke-miterlimit="4" stroke="#484848" stroke-width="4" stroke-opacity="1"><g><path d="M 95.3949 82C 98.7086 82 101.3949 79.3137 101.3949 76L 101.3949 46L 120.873 10L 10 10L 29.4781 46L 29.4781 76C 29.4781 79.3137 32.1644 82 35.4781 82L 95.3949 82ZM 95.425 82C 98.625 81.5 101.425 79.3 101.425 76C 101.325 66 102.425 56 101.425 46C 106.225 33.3 113.325 21.4 120.825 10C 101.625 11.7 82.125 10.1 62.825 10C 45.225 9.9 27.625 10 10.025 10C 15.725 22.4 21.825 34.7 29.525 46C 29.225 56 30.825 66.1 29.525 76C 29.025 79.3 32.225 81.7 35.525 82C 55.325 83.7 75.525 80.1 95.425 82"></path></g></g></g><g id="g-root-sy_3_cu_Vector_91ie9rqpvua0-fill" data-item-order="-149666" transform="translate(81.4217529296875, 392)"><g id="sy_3_cu_Vector_91ie9rqpvua0-fill-merged" stroke="none" fill="#e9ffb9" fill-opacity="1"><g><path d="M17.778 8.4L12.978 13.1L25.478 28.8L31.578 22.9L17.778 8.4 M25.478 28.8L47.378 14.3L26.978 3.8L12.978 13.1L25.478 28.8 M26.978 3.8L28.978 57.2L49.078 61.3L47.378 14.3L26.978 3.8 M49.078 61.3L72.678 10.3L52.778 5.6L28.978 57.2L49.078 61.3 M52.778 5.6L50.578 74.2L70.478 77.9L72.678 10.3L52.778 5.6 M70.478 77.9L91.778 16.5L71.878 12.9L50.578 74.2L70.478 77.9 M71.878 12.9L70.178 80.8L90.078 84.6L91.778 16.5L71.878 12.9 M90.078 84.6L116.778 10.4L96.878 6.7L70.178 80.8L90.078 84.6 M96.878 6.7L95.178 78.8L115.178 81.4L116.778 10.4L96.878 6.7 M115.178 81.4L132.378 8.8L112.478 6.3L95.178 78.8L115.178 81.4 M112.478 6.3L110.978 82.3L130.878 85.3L132.378 8.8L112.478 6.3 M130.878 85.3L153.178 9.5L133.178 6.4L110.978 82.3L130.878 85.3 M133.178 6.4L131.678 74.4L151.578 78.4L153.178 9.5L133.178 6.4 M151.578 78.4L177.578 13.1L157.278 10L131.678 74.4L151.578 78.4 M157.278 10L161.078 61.6L181.278 63.9L177.578 13.1L157.278 10 M181.278 63.9L197.178 12L174.278 18.5L161.078 61.6L181.278 63.9 M174.278 18.5L181.278 24.7L194.378 9.6L197.178 12L174.278 18.5" fill-rule="nonzero"></path></g></g></g><g id="g-root-sy_3_cu_Vector_91ie9rqpvua0-stroke" data-item-order="-149666" transform="translate(81.4217529296875, 392)"><g id="sy_3_cu_Vector_91ie9rqpvua0-stroke" fill="none" stroke-linecap="round" stroke-linejoin="round" stroke-miterlimit="4" stroke="#484848" stroke-width="4" stroke-opacity="1"><g><path d="M 48.9562 82L 159.8292 82L 198.7855 10L 10 10L 48.9562 82ZM 48.978262 82C 66.978262 81.7 84.978262 82.5 102.978262 82C 121.978262 81.5 140.878262 82.7 159.878262 82C 174.578262 59 186.078262 34.1 198.778262 10C 177.478262 11.5 155.978262 9.5 134.678262 10C 114.678262 10.5 94.578262 9.3 74.578262 10C 53.078262 10.8 31.478262 10.2 9.978262 10C 16.278262 21.6 22.178262 33.5 28.878262 44.9C 35.978262 57 41.178262 70.3 48.978262 82"></path></g></g></g><g id="g-root-sy_2_cu_Vector_91ie9rqpvua1-fill" data-item-order="-149662" transform="translate(42.46482849121094, 320)"><g id="sy_2_cu_Vector_91ie9rqpvua1-fill-merged" stroke="none" fill="#c8ffe5" fill-opacity="1"><g><path d="M12.835 12.4L11.935 18.1L30.335 29.6L32.535 15.6L12.835 12.4 M30.335 29.6L52.435 13.9L33.635 2.7L11.935 18.1L30.335 29.6 M33.635 2.7L27.335 54.5L46.535 61.6L52.435 13.9L33.635 2.7 M46.535 61.6L76.935 15.6L57.335 8.9L27.335 54.5L46.535 61.6 M57.335 8.9L52.235 82.1L71.935 86.4L76.935 15.6L57.335 8.9 M71.935 86.4L100.835 10.2L81.035 5.8L52.235 82.1L71.935 86.4 M81.035 5.8L75.635 78.6L95.435 82.4L100.835 10.2L81.035 5.8 M95.435 82.4L118.335 11.1L98.435 7.6L75.635 78.6L95.435 82.4 M98.435 7.6L95.935 81.2L115.835 84.7L118.335 11.1L98.435 7.6 M115.835 84.7L138.235 15.6L117.935 13.2L95.935 81.2L115.835 84.7 M117.935 13.2L122.535 75.4L142.735 77.8L138.235 15.6L117.935 13.2 M142.735 77.8L164.135 12.4L144.335 8.7L122.535 75.4L142.735 77.8 M144.335 8.7L140.435 74.2L160.235 78.5L164.135 12.4L144.335 8.7 M160.235 78.5L186.635 9.2L166.635 5.6L140.435 74.2L160.235 78.5 M166.635 5.6L166.935 77L186.935 79.2L186.635 9.2L166.635 5.6 M186.935 79.2L201.635 14.7L181.635 12.4L166.935 77L186.935 79.2 M181.635 12.4L181.235 76.9L201.235 80.4L201.635 14.7L181.635 12.4 M201.235 80.4L226.235 9.5L206.135 6.4L181.235 76.9L201.235 80.4 M206.135 6.4L208.935 78.7L229.035 80.8L226.235 9.5L206.135 6.4 M229.035 80.8L246.235 13L226.235 10.3L208.935 78.7L229.035 80.8 M226.235 10.3L225.035 72.8L244.935 77.8L246.235 13L226.235 10.3 M244.935 77.8L275.835 18.3L256.435 12.3L225.035 72.8L244.935 77.8 M256.435 12.3L254.735 25.5L274.535 28L275.835 18.3L256.435 12.3" fill-rule="nonzero"></path></g></g></g><g id="g-root-sy_2_cu_Vector_91ie9rqpvua1-stroke" data-item-order="-149662" transform="translate(42.46482849121094, 320)"><g id="sy_2_cu_Vector_91ie9rqpvua1-stroke" fill="none" stroke-linecap="round" stroke-linejoin="round" stroke-miterlimit="4" stroke="#484848" stroke-width="4" stroke-opacity="1"><g><path d="M 48.956216 82L 237.741716 82L 276.697916 10L 10.000016 10L 48.956216 82ZM 48.935172 82C 68.535172 83.8 88.335172 83.2 107.935172 82C 129.835172 80.6 151.835172 80.6 173.735172 82C 195.035172 83.4 216.435172 81.8 237.735172 82C 251.435172 58.4 263.335172 33.8 276.735172 10C 252.935172 8.8 229.135172 11.1 205.335172 10C 185.735172 9.1 166.035172 8.5 146.435172 10C 121.935172 11.9 97.135172 9.8 72.535172 10C 51.635172 10.2 30.835172 10.3 10.035172 10C 24.435172 33.2 37.535172 57.2 48.935172 82"></path></g></g></g><g id="g-root-sy_1_cu_Vector_4mbd8fqpvrwi-fill" data-item-order="-149658" transform="translate(14, 248)"><g id="sy_1_cu_Vector_4mbd8fqpvrwi-fill-merged" stroke="none" fill="#d1f4ff" fill-opacity="1"><g><path d="M 335.2 28.3L 340.1 23.1L 323.3 11.8L 320.6 14.7ZM 323.3 11.8L 299.3 63.6L 320 66.5L 340.1 23.1ZM 320 66.5L 311.5 12.5L 291.1 12L 299.3 63.6ZM 291.1 12L 277.3 78.3L 297.4 79.8L 311.5 12.5ZM 297.4 79.8L 293.9 16L 273.8 13.9L 277.3 78.3ZM 273.8 13.9L 256.3 80.4L 276.4 82.6L 293.9 16ZM 276.4 82.6L 273.9 16.7L 253.8 14.4L 256.3 80.4ZM 253.8 14.4L 236.5 77.3L 256.7 79.3L 273.9 16.7ZM 256.7 79.3L 252.5 14.1L 232.3 11.4L 236.5 77.3ZM 232.3 11.4L 208.8 80.5L 228.8 83.8L 252.5 14.1ZM 228.8 83.8L 228.9 12.4L 208.9 9.1L 208.8 80.5ZM 208.9 9.1L 186.3 76.5L 206.3 79.5L 228.9 12.4ZM 206.3 79.5L 205 16.5L 184.9 14.2L 186.3 76.5ZM 184.9 14.2L 168 79.9L 188.2 81.4L 205 16.5ZM 188.2 81.4L 180.2 7.9L 159.9 6.6L 168 79.9ZM 159.9 6.6L 142.5 79.8L 162.4 82.4L 180.2 7.9ZM 162.4 82.4L 164 10.2L 144.1 7L 142.5 79.8ZM 144.1 7L 121.3 82.1L 141.4 84.7L 164 10.2ZM 141.4 84.7L 138.6 10.2L 118.5 8.8L 121.3 82.1ZM 118.5 8.8L 105.6 82.6L 125.8 82.8L 138.6 10.2ZM 125.8 82.8L 115.8 15.3L 95.5 14.8L 105.6 82.6ZM 95.5 14.8L 82 79.4L 102.3 80.1L 115.8 15.3ZM 102.3 80.1L 92.9 9.8L 72.7 9.9L 82 79.4ZM 72.7 9.9L 63.5 84.5L 83.7 84.5L 92.9 9.8ZM 83.7 84.5L 75 10.5L 54.7 9.1L 63.5 84.5ZM 54.7 9.1L 37.5 75.4L 57.6 77.6L 75 10.5ZM 57.6 77.6L 55.1 15.4L 34.9 10.6L 37.5 75.4ZM 34.9 10.6L 15.9 44.7L 36.7 48.5L 55.1 15.4ZM 36.7 48.5L 30.7 8.5L 10.9 11.5L 15.9 44.7Z" fill-rule="nonzero"></path></g></g></g><g id="g-root-sy_1_cu_Vector_4mbd8fqpvrwi-stroke" data-item-order="-149658" transform="translate(14, 248)"><g id="sy_1_cu_Vector_4mbd8fqpvrwi-stroke" fill="none" stroke-linecap="round" stroke-linejoin="round" stroke-miterlimit="4" stroke="#484848" stroke-width="4" stroke-opacity="1"><g><path d="M 334 16C 334 12.6863 331.3137 10 328 10L 16 10C 12.6863 10 10 12.6863 10 16L 10 40.0073C 10 43.321 12.6863 46.0073 16 46.0073L 18.9896 46.0073L 38.4637 82L 305.1617 82L 324.6358 46.0073L 328 46.0073C 331.3137 46.0073 334 43.321 334 40.0073L 334 16ZM 334 16C 333.4 12.7 331.3 10.4 328 10C 307.6 7.3 286.8 8.5 266.3 10C 246.7 11.4 226.9 10.1 207.2 10C 184.9 9.9 162.5 9.8 140.1 10C 120.9 10.2 101.8 9.9 82.6 10C 60.4 10.2 38.2 9.5 16 10C 12.7 10.1 9.8 12.7 10 16C 10.4 24 10.5 32 10 40C 9.8 43.3 12.7 45.5 16 46C 17 46.2 18 46.1 19 46C 25.4 58 31.7 70.1 38.5 82C 54.6 82.5 70.8 82.2 87 82C 104 81.8 121.1 80.1 138 82C 155.4 84 173.1 80.2 190.6 82C 209.4 83.9 228.6 84 247.4 82C 266.6 80 285.9 82 305.2 82C 311.7 70 319.3 58.6 324.6 46C 325.7 45.8 326.9 45.7 328 46C 331.2 46.9 334 43.3 334 40C 334 32 332.7 23.9 334 16"></path></g></g></g><g id="g-root-tx_reviewco_zit58fqpymf9-fill" data-item-order="0" transform="translate(434, 200)"><g id="tx_reviewco_zit58fqpymf9-fill-merged" stroke="none" fill="#484848" fill-opacity="1"><g><text style="font: 20px &quot;Shantell Sans&quot;, cursive; white-space: pre;" transform="translate(10, 22)" font-size="20px" font-family="'Shantell Sans', cursive"><tspan x="2" y="13.5" dominant-baseline="ideographic">Review Company Details</tspan></text></g></g></g><g id="g-root-tx_reviewco_zit58fqpymf9-stroke" data-item-order="0" transform="translate(434, 200)"></g><g id="g-root-ic_glas_dhbzjzqpex3h-fill" data-item-order="0" transform="translate(374, 188)"></g><g id="g-root-ic_glas_dhbzjzqpex3h-stroke" data-item-order="0" transform="translate(374, 188)"><g id="ic_glas_dhbzjzqpex3h-stroke" fill="none" stroke-linecap="round" stroke-linejoin="round" stroke-miterlimit="4" stroke="#484848" stroke-width="2" stroke-opacity="1"><g><path d="M 14.8 41.330002C 13.683281 41.330002 12.778 40.424721 12.778 39.308002L 12.778 13.022C 12.778 11.90528 13.683281 11 14.8 11L 53.200001 11C 54.316723 11 55.222004 11.90528 55.222004 13.022L 55.222 39.307999C 55.222004 40.424721 54.316723 41.330002 53.200005 41.330002L 51.186001 41.330002M 44.110001 24.142L 44.110001 16.054001L 50.175999 16.054001L 50.175999 24.142L 44.110001 24.142M 20.352001 36.779999C 20.349745 44.039719 26.23428 49.926079 33.493999 49.926079C 40.753719 49.926079 46.638252 44.039719 46.635998 36.779999C 46.638252 29.520279 40.753719 23.633919 33.493999 23.633919C 26.23428 23.633919 20.349745 29.520279 20.351999 36.779999M 29.174 33.748001L 38.274002 33.748001M 29.174 39.813999L 38.274002 39.813999M 42.787998 46.074001L 53.714001 57M 18.836 17.066L 23.889999 17.066M 18.836 22.119999L 22.006001 22.119999M 14.8 41.400002C 13.8 41.599998 13.2 40.400002 12.8 39.400002C 9.4 31.200001 14.2 21.6 12.8 13C 12.6 12 13.8 11.2 14.8 11C 27.4 8.8 40.599998 9.4 53.200001 11C 54.400002 11.2 55.200001 11.8 55.200001 13C 54.599998 21.799999 53.599998 30.799999 55.200001 39.400002C 55.400002 40.400002 54.200001 41.599998 53.200001 41.400002C 52.599998 41.200001 51.799999 41.599998 51.200001 41.400002M 44.200001 24.200001C 43.400002 21.6 45 18.6 44.200001 16C 46.200001 16.200001 48.200001 16.799999 50.200001 16C 50.799999 18.6 51.200001 21.6 50.200001 24.200001C 48.200001 23.6 46 24.6 44.200001 24.200001M 20.4 36.799999C 21.4 44 26.200001 49 33.400002 50C 40.799999 50.799999 44.599998 43.799999 46.599998 36.799999C 48.599998 29.799999 40.799999 22.799999 33.400002 23.6C 26.200001 24.4 20.4 29.6 20.4 36.799999M 29.200001 33.799999C 32.200001 33 35.400002 34.799999 38.200001 33.799999M 29.200001 39.799999C 32.200001 40.400002 35.200001 39.799999 38.200001 39.799999M 42.799999 46C 45.599998 50.400002 49.200001 54.599998 53.799999 57M 18.799999 17C 20.4 16.6 22.200001 17.200001 23.799999 17M 18.799999 22.200001C 19.799999 21.799999 21 22.200001 22 22.200001"></path></g></g></g><g id="g-root-tx_userchec_1qf3a9rqpx7us-fill" data-item-order="0" transform="translate(434.23828125, 235.8203125)"><g id="tx_userchec_1qf3a9rqpx7us-fill-merged" stroke="none" fill="#484848" fill-opacity="1"><g><text style="font: 15px &quot;Shantell Sans&quot;, cursive; white-space: pre;" transform="translate(10, 37)" font-size="15px" font-family="'Shantell Sans', cursive"><tspan x="2" y="-8" dominant-baseline="ideographic">User checks Japanese and English </tspan><tspan x="2" y="10" dominant-baseline="ideographic">names, address, prefecture, and </tspan><tspan x="2" y="28" dominant-baseline="ideographic">founding year</tspan></text></g></g></g><g id="g-root-tx_userchec_1qf3a9rqpx7us-stroke" data-item-order="0" transform="translate(434.23828125, 235.8203125)"></g><g id="g-root-ic_bott_1hgbwlbqpvu30-fill" data-item-order="0" transform="translate(224, 188)"></g><g id="g-root-ic_bott_1hgbwlbqpvu30-stroke" data-item-order="0" transform="translate(224, 188)"><g id="ic_bott_1hgbwlbqpvu30-stroke" fill="none" stroke-linecap="round" stroke-linejoin="round" stroke-miterlimit="4" stroke="#484848" stroke-width="2" stroke-opacity="1"><g><path d="M 32 19.147999L 32 27.148001C 29.437134 27.979107 27.781458 30.46262 27.999998 33.147999L 28 41.148003C 28 42.252571 28.89543 43.147999 30 43.147999L 38 43.147999C 39.104568 43.147999 40 42.252571 40 41.148003L 40 33.148003C 40.21854 30.46262 38.562866 27.979107 36 27.147999L 36 19.147999M 31 19.147999L 37 19.147999M 34 11.148C 38.328384 11.141644 42.568836 12.369655 46.223999 14.688C 55.723999 20.709999 56.424 33.148003 48.854 42.242001C 44.534286 47.430214 39.779701 52.24033 34.641998 56.619999C 34.270515 56.931061 33.729485 56.931061 33.358002 56.619999C 28.220161 52.241199 23.465561 47.431736 19.146 42.243999C 11.578 33.148003 12.276 20.709999 21.776001 14.688C 25.431162 12.369655 29.671616 11.141644 34 11.148ZM 32 19.200001C 32.200001 21.799999 31.200001 24.6 32 27.200001C 29.4 27.6 28 30.4 28 33.200001C 28 35.799999 27.200001 38.599998 28 41.200001C 28.4 42.200001 29 43 30 43.200001C 32.599998 43.599998 35.400002 43.400002 38 43.200001C 39 43 39.799999 42.200001 40 41.200001C 40.200001 38.400002 39.799999 35.799999 40 33.200001C 40.200001 30.4 38.400002 28.4 36 27.200001C 36.799999 24.6 36.799999 21.6 36 19.200001M 31 19.200001C 32.799999 19.799999 35.200001 18.4 37 19.200001M 34 11.2C 38.200001 10.6 43 11.8 46.200001 14.6C 54.799999 22 55.200001 32.400002 48.799999 42.200001C 45.200001 48 39.200001 51.599998 34.599998 56.599998C 34.400002 57 33.799999 56.799999 33.400002 56.599998C 27.200001 53.799999 25 45.599998 19.200001 42.200001C 8.8 36.400002 13.2 22 21.799999 14.6C 25 11.8 29.6 10.8 34 11.2"></path></g></g></g><g id="g-root-ic_brow_18hkm2nqpey2s-fill" data-item-order="0" transform="translate(374, 308)"></g><g id="g-root-ic_brow_18hkm2nqpey2s-stroke" data-item-order="0" transform="translate(374, 308)"><g id="ic_brow_18hkm2nqpey2s-stroke" fill="none" stroke-linecap="round" stroke-linejoin="round" stroke-miterlimit="4" stroke="#484848" stroke-width="2" stroke-opacity="1"><g><path d="M 11.020734 18.999102L 51.850071 18.999102M 17.145134 14.499551C 16.863266 14.499551 16.634768 14.723386 16.634768 14.999501C 16.634768 15.275616 16.863266 15.499451 17.145134 15.499451C 17.427002 15.499451 17.6555 15.275616 17.6555 14.999501C 17.6555 14.723386 17.427002 14.499551 17.145134 14.499551L 17.145134 14.499551M 21.228067 14.499551C 20.946201 14.499551 20.717701 14.723386 20.717701 14.999501C 20.717701 15.275616 20.946201 15.499451 21.228067 15.499451C 21.509935 15.499451 21.738436 15.275616 21.738436 14.999501C 21.738436 14.723386 21.509935 14.499551 21.228067 14.499551L 21.228067 14.499551M 25.311003 14.499551C 25.029135 14.499551 24.800636 14.723386 24.800636 14.999501C 24.800636 15.275616 25.029135 15.499451 25.311003 15.499451C 25.592869 15.499451 25.821369 15.275616 25.821369 14.999501C 25.821369 14.723386 25.592869 14.499551 25.311003 14.499551L 25.311003 14.499551M 25.311003 42.996704L 15.103667 42.996704C 12.848725 42.996704 11.020734 41.206024 11.020734 38.997105L 11.020734 14.999501C 11.020734 12.790583 12.848725 10.9999 15.103667 10.9999L 47.767139 10.9999C 50.022083 10.9999 51.850071 12.790583 51.850071 14.999501L 51.850071 26.998302M 43.684204 56.995308C 39.601273 53.995605 37.559803 47.996204 37.559803 42.996704C 37.559803 37.997204 39.601273 31.997803 43.684204 28.998102M 43.684204 56.995308C 47.767139 53.995605 49.808605 47.996204 49.808605 42.996704C 49.808605 37.997204 47.767139 31.997803 43.684204 28.998102M 30.769884 36.997303L 56.598526 36.997303M 30.769884 48.996105L 56.598526 48.996105M 29.393936 42.996704L 57.974472 42.996704M 29.393936 42.996704C 29.393938 50.727921 35.791908 56.995308 43.684204 56.995308C 51.576504 56.995308 57.974472 50.727921 57.974472 42.996704C 57.974472 35.265491 51.576504 28.998104 43.684204 28.998104C 35.791908 28.998104 29.393938 35.265491 29.393938 42.996704ZM 11.020734 18.999102C 24.494415 20.398962 38.172245 18.799122 51.850071 18.999102M 17.145134 14.599541C 16.940989 14.599541 16.532694 14.79952 16.736841 14.999501C 16.736841 15.199481 16.940989 15.399461 17.145134 15.599441C 17.349281 15.599441 17.553429 15.199481 17.757574 14.999501C 17.757574 14.79952 17.349281 14.399561 17.145134 14.599541M 21.228067 14.599541C 21.023922 14.399561 20.615627 14.79952 20.819775 14.999501C 20.819775 15.199481 21.023922 15.599441 21.228067 15.599441C 21.432215 15.399461 21.636362 15.199481 21.840509 14.999501C 21.840509 14.79952 21.432215 14.399561 21.228067 14.599541M 25.311003 14.599541C 25.106855 14.599541 24.698561 14.79952 24.90271 14.999501C 24.90271 15.199481 25.106855 15.399461 25.311003 15.599441C 25.515148 15.599441 25.923443 15.199481 25.923443 14.999501C 25.719296 14.79952 25.515148 14.399561 25.311003 14.599541M 25.311003 42.996704C 22.044655 43.796623 18.574162 43.396667 15.103667 42.996704C 12.858053 42.796726 10.408294 41.196884 11.020734 38.997105C 13.062201 31.197884 11.633174 22.998703 11.020734 14.999501C 10.816586 12.799721 12.858053 11.59984 15.103667 10.9999C 25.515148 8.000199 36.947365 11.59984 47.767139 10.9999C 50.012753 10.79992 51.033485 12.999701 51.850071 14.999501C 53.279102 18.799122 53.074955 23.198683 51.850071 26.998302M 43.684204 56.995308C 39.192978 54.795528 38.580536 47.996204 37.559803 42.996704C 36.53907 37.997204 38.988831 30.997904 43.684204 28.998102M 43.684204 56.995308C 48.379578 54.995506 50.625191 47.996204 49.808605 42.996704C 48.99202 37.997204 48.175434 31.597843 43.684204 28.998102M 30.822962 36.997303C 39.192978 38.997105 47.971287 36.797325 56.545444 36.997303M 30.822962 48.996105C 38.988831 46.396366 48.379578 51.195889 56.545444 48.996105M 29.393936 42.996704C 38.784683 44.396568 48.583725 44.196587 57.974472 42.996704M 29.393936 42.996704C 27.760761 50.595943 35.926628 58.395168 43.684204 56.995308C 51.441776 55.595448 58.178619 50.795925 57.974472 42.996704C 57.770325 35.197483 51.645924 29.198084 43.684204 28.998102C 35.722485 28.798122 28.169056 35.397465 29.393936 42.996704"></path></g></g></g><g id="g-root-tx_checkoff_vlbzqpyn7z-fill" data-item-order="0" transform="translate(434, 320)"><g id="tx_checkoff_vlbzqpyn7z-fill-merged" stroke="none" fill="#484848" fill-opacity="1"><g><text style="font: 20px &quot;Shantell Sans&quot;, cursive; white-space: pre;" transform="translate(10, 22)" font-size="20px" font-family="'Shantell Sans', cursive"><tspan x="2" y="13.5" dominant-baseline="ideographic">Check Official Website</tspan></text></g></g></g><g id="g-root-tx_checkoff_vlbzqpyn7z-stroke" data-item-order="0" transform="translate(434, 320)"></g><g id="g-root-tx_uservisi_dcc3pbqpyln2-fill" data-item-order="0" transform="translate(434.23828125, 355.8203125)"><g id="tx_uservisi_dcc3pbqpyln2-fill-merged" stroke="none" fill="#484848" fill-opacity="1"><g><text style="font: 15px &quot;Shantell Sans&quot;, cursive; white-space: pre;" transform="translate(10, 28)" font-size="15px" font-family="'Shantell Sans', cursive"><tspan x="2" y="1" dominant-baseline="ideographic">User visits the brewery's official website </tspan><tspan x="2" y="19" dominant-baseline="ideographic">to confirm information</tspan></text></g></g></g><g id="g-root-tx_uservisi_dcc3pbqpyln2-stroke" data-item-order="0" transform="translate(434.23828125, 355.8203125)"></g><g id="g-root-ic_bott_1cxe11bqpx7ux-fill" data-item-order="0" transform="translate(74, 200)"></g><g id="g-root-ic_bott_1cxe11bqpx7ux-stroke" data-item-order="0" transform="translate(74, 200)"><g id="ic_bott_1cxe11bqpx7ux-stroke" fill="none" stroke-linecap="round" stroke-linejoin="round" stroke-miterlimit="4" stroke="#484848" stroke-width="2" stroke-opacity="1"><g><path d="M 26.5 16.861L 26.5 22.861C 24.57785 23.484329 23.336094 25.346966 23.499998 27.361L 23.5 33.361C 23.5 34.18943 24.171572 34.861 25 34.861L 31 34.861C 31.828428 34.861 32.5 34.18943 32.5 33.361L 32.5 27.361C 32.663906 25.346966 31.422148 23.484329 29.499998 22.861L 29.5 16.861M 25.75 16.861L 30.25 16.861M 28 10.861C 31.246286 10.856233 34.426628 11.777241 37.167999 13.516C 44.292999 18.032499 44.818001 27.361 39.140499 34.181499C 35.900715 38.072662 32.334778 41.680248 28.481501 44.965C 28.202888 45.198296 27.797112 45.198296 27.518499 44.965C 23.665121 41.680901 20.099171 38.073803 16.859501 34.182999C 11.1835 27.361 11.707 18.032499 18.832001 13.516C 21.573372 11.777241 24.753712 10.856233 28 10.861ZM 26.5 16.9C 26.950001 18.85 26.349998 20.799999 26.5 22.900002C 24.849998 23.950001 22.900002 25.450001 23.5 27.400002C 23.049999 29.349998 23.5 31.299999 23.5 33.400002C 23.5 34.150002 24.099998 34.900002 25 34.900002C 26.950001 34.900002 29.049999 34.900002 31 34.900002C 31.900002 34.900002 32.200001 34.150002 32.5 33.400002C 33.099998 31.450001 31.900002 29.200001 32.5 27.400002C 32.349998 25.299999 31.150002 24.099998 29.5 22.900002C 29.049999 20.950001 28.900002 18.700001 29.5 16.9M 25.75 16.9C 27.25 17.200001 28.75 16.6 30.25 16.9M 28 10.9C 31 9.7 34.75 11.2 37.150002 13.45C 43.300003 19.299999 45.550003 28 39.099998 34.150002C 35.5 37.75 32.049999 41.349998 28.450001 44.949997C 28.299999 45.25 27.700001 45.25 27.549999 44.949997C 24.549999 40.900002 19.15 38.650002 16.9 34.150002C 12.85 26.349998 13.15 19.75 18.85 13.45C 20.950001 11.05 24.849998 9.85 28 10.9"></path></g></g></g><g id="g-root-ic_3_9m8jjqpylfm-fill" data-item-order="0" transform="translate(374, 428)"></g><g id="g-root-ic_3_9m8jjqpylfm-stroke" data-item-order="0" transform="translate(374, 428)"><g id="ic_3_9m8jjqpylfm-stroke" fill="none" stroke-linecap="round" stroke-linejoin="round" stroke-miterlimit="4" stroke="#484848" stroke-width="2" stroke-opacity="1"><g><path d="M 22 23C 22 29.627417 27.372583 35 34 35C 40.627419 35 46 29.627417 46 23C 46 16.372583 40.627419 11 34 11C 27.372583 11 22 16.372583 22 23M 38 23L 34 23L 34 17M 49.251999 17.352001C 51.088001 17.152 53.012001 17.040001 54.986 17.007999C 55.252251 17.004265 55.508999 17.106873 55.699341 17.293083C 55.889683 17.479294 55.997894 17.73373 56 18L 56 49C 56.000069 49.546097 55.562027 49.991264 55.015999 50C 43.726002 50.175999 34 53.240002 34 57C 34 53.240002 24.274 50.175999 12.984 50C 12.437974 49.991264 11.99993 49.546097 12 49L 12 18C 11.999966 17.731987 12.107516 17.475178 12.298527 17.287176C 12.489538 17.099173 12.748022 16.995712 13.016 17C 14.952 17.032 16.880001 17.152 18.799999 17.360001M 34 41L 34 56.75M 22 23C 22.799999 29.6 27.4 34 34 35C 40.599998 36 45.200001 29.6 46 23C 46.799999 16.4 40.599998 10.6 34 11C 27.4 11.4 22.6 16.4 22 23M 38 23C 36.799999 22.6 35.400002 23 34 23C 33.799999 21 34.400002 19 34 17M 49.200001 17.4C 51 17.6 53 17 55 17C 55.200001 17 55.599998 17 55.599998 17.200001C 55.799999 17.6 56 17.799999 56 18C 56.799999 28.4 57 38.799999 56 49C 56 49.599998 55.599998 50 55 50C 43.799999 51.599998 34.200001 53.200001 34 57C 32.599998 53.400002 24 47.400002 13 50C 12.4 50.200001 11.8 49.599998 12 49C 13.8 38.799999 9.8 28 12 18C 12 17.799999 12 17.4 12.2 17.200001C 12.6 17.200001 12.8 17 13 17C 15 16.799999 16.799999 17.6 18.799999 17.4M 34 41C 35.599998 46 34.200001 51.599998 34 56.799999"></path></g></g></g><g id="g-root-ic_bott_1q882bjqpx9fs-fill" data-item-order="0" transform="translate(152, 152)"></g><g id="g-root-ic_bott_1q882bjqpx9fs-stroke" data-item-order="0" transform="translate(152, 152)"><g id="ic_bott_1q882bjqpx9fs-stroke" fill="none" stroke-linecap="round" stroke-linejoin="round" stroke-miterlimit="4" stroke="#484848" stroke-width="2" stroke-opacity="1"><g><path d="M 21 14.574L 21 18.574C 19.718567 18.989553 18.890729 20.23131 18.999999 21.573999L 19 25.574C 19 26.126285 19.447715 26.574 20 26.574L 24 26.574C 24.552285 26.574 25 26.126285 25 25.574L 25 21.574C 25.10927 20.23131 24.281432 18.989553 22.999999 18.574L 23 14.574M 20.5 14.574L 23.5 14.574M 22 10.574C 24.164191 10.570822 26.284418 11.184827 28.111999 12.344C 32.862 15.355 33.212 21.574 29.427 26.121C 27.267143 28.715107 24.889851 31.120166 22.321 33.31C 22.135259 33.46553 21.864741 33.46553 21.679 33.31C 19.110081 31.1206 16.732781 28.715867 14.573 26.121999C 10.789 21.574 11.138 15.355 15.888 12.344C 17.715581 11.184827 19.835808 10.570822 22 10.574ZM 21 14.6C 21.4 15.8 20.7 17.3 21 18.6C 19.7 18.9 18.7 20.3 19 21.6C 19.1 22.9 18.9 24.3 19 25.6C 19 26.1 19.4 26.5 20 26.6C 21.3 26.6 22.7 26.4 24 26.6C 24.5 26.6 25 26.1 25 25.6C 25 24.2 24.7 22.9 25 21.6C 24.7 20.3 24.2 19.1 23 18.6C 23.2 17.3 23 15.9 23 14.6M 20.5 14.6C 21.5 14.8 22.5 14.7 23.5 14.6M 22 10.6C 24.1 11.1 26.1 11.6 28.1 12.3C 33.4 14.2 32.5 21.1 29.4 26.1C 27.7 29 25.3 31.8 22.3 33.3C 22.1 33.4 21.9 33.4 21.7 33.3C 18.5 32.2 16.2 29.1 14.6 26.1C 11.7 20.9 10.6 14.3 15.9 12.3C 17.9 11.6 19.9 10.1 22 10.6"></path></g></g></g><g id="g-root-tx_evaluate_1cvilrzqpyn0h-fill" data-item-order="0" transform="translate(434, 440)"><g id="tx_evaluate_1cvilrzqpyn0h-fill-merged" stroke="none" fill="#484848" fill-opacity="1"><g><text style="font: 20px &quot;Shantell Sans&quot;, cursive; white-space: pre;" transform="translate(10, 22)" font-size="20px" font-family="'Shantell Sans', cursive"><tspan x="2" y="13.5" dominant-baseline="ideographic">Evaluate History</tspan></text></g></g></g><g id="g-root-tx_evaluate_1cvilrzqpyn0h-stroke" data-item-order="0" transform="translate(434, 440)"></g><g id="g-root-tx_userasse_1q6z45bqpylfk-fill" data-item-order="0" transform="translate(434.23828125, 475.8203125)"><g id="tx_userasse_1q6z45bqpylfk-fill-merged" stroke="none" fill="#484848" fill-opacity="1"><g><text style="font: 15px &quot;Shantell Sans&quot;, cursive; white-space: pre;" transform="translate(10, 28)" font-size="15px" font-family="'Shantell Sans', cursive"><tspan x="2" y="1" dominant-baseline="ideographic">User assesses the compiled history for </tspan><tspan x="2" y="19" dominant-baseline="ideographic">accuracy and completeness</tspan></text></g></g></g><g id="g-root-tx_userasse_1q6z45bqpylfk-stroke" data-item-order="0" transform="translate(434.23828125, 475.8203125)"></g><g id="g-root-ic_mana_18hkiwvqpx8n6-fill" data-item-order="0" transform="translate(158, 548)"></g><g id="g-root-ic_mana_18hkiwvqpx8n6-stroke" data-item-order="0" transform="translate(158, 548)"><g id="ic_mana_18hkiwvqpx8n6-stroke" fill="none" stroke-linecap="round" stroke-linejoin="round" stroke-miterlimit="4" stroke="#484848" stroke-width="2" stroke-opacity="1"><g><path d="M 36.625 29.7565L 36.625 38.7295C 36.625126 40.08276 35.861027 41.320068 34.651001 41.925999M 29.567501 38.7295L 29.567501 36.9445C 29.568329 34.971432 27.969072 33.371502 25.996 33.371502L 25.995998 30.700001C 25.996 29.220428 24.796572 28.021 23.317001 28.021C 21.837429 28.021 20.638 29.220428 20.638 30.700001L 20.638 38.737C 20.637999 40.709724 22.236773 42.309174 24.209499 42.309998M 37.4095 45.0625L 37.4095 43.862503C 37.4095 42.996208 36.706791 42.294167 35.8405 42.294998L 21.726999 42.295002C 21.309971 42.294991 20.91013 42.46117 20.61595 42.756756C 20.32177 43.052345 20.157505 43.452972 20.1595 43.869995L 20.1595 45.07M 20.1595 29.7565L 12.25 29.7565C 11.402787 29.736839 10.731565 29.034742 10.75 28.187502L 10.75 12.5065C 10.731565 11.65926 11.402787 10.957161 12.25 10.9375L 43.75 10.9375C 44.597214 10.957161 45.268436 11.65926 45.250004 12.5065L 45.25 28.1875C 45.268436 29.034742 44.597214 29.736839 43.750004 29.7565L 26.5 29.7565M 30.868 16.442501L 41.328999 16.442501M 30.868 22.151501L 36.625 22.151501M 17.9755 20.5495L 19.0525 21.626499L 21.5665 18.316M 14.671 19.970499C 14.670425 23.002121 17.127878 25.460039 20.1595 25.460039C 23.19112 25.460039 25.648575 23.002121 25.647999 19.970499C 25.648575 16.938879 23.19112 14.480959 20.1595 14.480959C 17.127878 14.480959 14.670425 16.938879 14.671 19.970499M 36.699997 29.799999C 36.550003 32.799999 36.25 35.800003 36.699997 38.800003C 36.849998 40 35.800003 41.349998 34.599998 41.949997M 29.5 38.800003C 29.5 38.199997 29.650002 37.599998 29.5 37C 29.049999 35.050003 28 33.400002 26.049999 33.400002C 26.200001 32.5 25.599998 31.599998 26.049999 30.700001C 26.5 29.349998 24.849998 27.700001 23.349998 28C 21.85 28.299999 20.950001 29.349998 20.65 30.700001C 19.9 33.25 20.5 36.099998 20.65 38.800003C 20.65 40.75 22.299999 42.25 24.25 42.25M 37.449997 45.099998C 37.449997 44.650002 37.300003 44.199997 37.449997 43.900002C 37.599998 43 36.699997 41.949997 35.800003 42.25C 31.450001 43.900002 26.349998 43.300003 21.700001 42.25C 21.25 42.25 20.799999 42.400002 20.65 42.699997C 20.35 43.150002 20.049999 43.449997 20.200001 43.900002C 20.200001 44.199997 20.049999 44.650002 20.200001 45.099998M 20.200001 29.799999C 17.65 28.75 14.8 29.200001 12.25 29.799999C 11.35 29.950001 10.75 29.049999 10.75 28.150002C 12.4 23.200001 11.2 17.65 10.75 12.55C 10.6 11.65 11.35 11.05 12.25 10.9C 22.599998 12.4 33.25 11.2 43.75 10.9C 44.650002 11.05 45.550003 11.65 45.25 12.55C 46 17.65 44.5 23.049999 45.25 28.150002C 45.400002 29.049999 44.5 29.950001 43.75 29.799999C 38.050003 29.5 32.200001 28.75 26.5 29.799999M 30.849998 16.450001C 34.300003 16.75 37.900002 16.299999 41.349998 16.450001M 30.849998 22.150002C 32.799999 22.299999 34.75 22.150002 36.699997 22.150002M 17.950001 20.5C 18.4 20.799999 18.700001 21.25 19 21.700001C 19.450001 20.35 20.799999 19.450001 21.549999 18.25M 14.65 19.9C 15.55 22.900002 17.200001 25 20.200001 25.450001C 23.200001 25.900002 25.599998 23.049999 25.599998 19.9C 25.75 16.9 23.200001 15.1 20.200001 14.5C 17.200001 13.9 14.5 16.9 14.65 19.9"></path></g></g></g><g id="g-root-ic_sear_ddl1vjqpynt8-fill" data-item-order="0" transform="translate(374, 548)"></g><g id="g-root-ic_sear_ddl1vjqpynt8-stroke" data-item-order="0" transform="translate(374, 548)"><g id="ic_sear_ddl1vjqpynt8-stroke" fill="none" stroke-linecap="round" stroke-linejoin="round" stroke-miterlimit="4" stroke="#484848" stroke-width="2" stroke-opacity="1"><g><path d="M 37 45C 37 49.418278 40.581722 53 45 53C 49.418278 53 53 49.418278 53 45C 53 40.581722 49.418278 37 45 37C 40.581722 37 37 40.581722 37 45M 50.655998 50.655998L 57 57M 17.077999 21L 22.290001 11M 44.868 21L 39.658001 11M 47.268002 32.563999L 48.341999 27L 13.6 27L 16.559999 42.312C 16.911873 43.908871 18.343189 45.034492 19.978001 45L 30 45M 13 21L 49 21C 49 21 51 21 51 23L 51 25C 51 25 51 27 49 27L 13 27C 13 27 11 27 11 25L 11 23C 11 23 11 21 13 21M 31 32L 31 38.077999M 23.184 32L 24.052 38.077999M 37 45C 37 49.400002 40.799999 54.200001 45 53C 49.200001 51.799999 53.200001 49.400002 53 45C 52.799999 40.599998 49.400002 36 45 37C 40.599998 38 36.599998 40.599998 37 45M 50.599998 50.599998C 52.799999 52.799999 55 54.799999 57 57M 17 21C 17.799999 17.4 20.200001 14 22.200001 11M 44.799999 21C 42.400002 18.200001 40.799999 14.6 39.599998 11M 47.200001 32.599998C 48 30.799999 48.400002 28.799999 48.400002 27C 36.799999 27.200001 25 29 13.6 27C 16.200001 31.4 16.6 37.200001 16.6 42.400002C 16.6 44 18.4 44.599998 20 45C 23.200001 44.200001 26.799999 46.200001 30 45M 13 21C 25 21 37.599998 24.6 49 21C 49 21 51.599998 21 51 23C 50.799999 23.6 50.799999 24.4 51 25C 51 25 51 26.799999 49 27C 37.200001 28.6 24.799999 29.200001 13 27C 13 27 11.2 27 11 25C 11 24.4 11.2 23.6 11 23C 11 23 11 20.6 13 21M 31 32C 31.200001 34 30.4 36.200001 31 38M 23.200001 32C 23.4 34 24.200001 36 24 38"></path></g></g></g><g id="g-root-tx_examinep_m9824fqpyn0j-fill" data-item-order="0" transform="translate(434, 560)"><g id="tx_examinep_m9824fqpyn0j-fill-merged" stroke="none" fill="#484848" fill-opacity="1"><g><text style="font: 20px &quot;Shantell Sans&quot;, cursive; white-space: pre;" transform="translate(10, 22)" font-size="20px" font-family="'Shantell Sans', cursive"><tspan x="2" y="13.5" dominant-baseline="ideographic">Examine Product Listings</tspan></text></g></g></g><g id="g-root-tx_examinep_m9824fqpyn0j-stroke" data-item-order="0" transform="translate(434, 560)"></g><g id="g-root-tx_sakebrew_4mbd8fqpvrwj-fill" data-item-order="0" transform="translate(101.0703125, 38)"><g id="tx_sakebrew_4mbd8fqpvrwj-fill-merged" stroke="none" fill="#484848" fill-opacity="1"><g><text style="font: bold 25px &quot;Shantell Sans&quot;, cursive; white-space: pre;" transform="translate(282.9296875, 25)" font-weight="bold" font-size="25px" font-family="'Shantell Sans', cursive"><tspan x="-270.93" y="16.5" dominant-baseline="ideographic">Sake Brewery Profile Verification Process</tspan></text></g></g></g><g id="g-root-tx_sakebrew_4mbd8fqpvrwj-stroke" data-item-order="0" transform="translate(101.0703125, 38)"></g><g id="g-root-tx_userrevi_zkokhrqpylfm-fill" data-item-order="0" transform="translate(434.23828125, 595.8125)"><g id="tx_userrevi_zkokhrqpylfm-fill-merged" stroke="none" fill="#484848" fill-opacity="1"><g><text style="font: 15px &quot;Shantell Sans&quot;, cursive; white-space: pre;" transform="translate(10, 28)" font-size="15px" font-family="'Shantell Sans', cursive"><tspan x="2" y="1" dominant-baseline="ideographic">User reviews products listed in </tspan><tspan x="2" y="19" dominant-baseline="ideographic">international catalogs</tspan></text></g></g></g><g id="g-root-tx_userrevi_zkokhrqpylfm-stroke" data-item-order="0" transform="translate(434.23828125, 595.8125)"></g></g></g></svg>