<?xml version="1.0" encoding="utf-8" standalone="yes"?>
<!DOCTYPE svg PUBLIC "-//W3C//DTD SVG 1.1//EN" "http://www.w3.org/Graphics/SVG/1.1/DTD/svg11.dtd">
<svg style="fill:none;stroke:none;fill-rule:evenodd;clip-rule:evenodd;stroke-linecap:round;stroke-linejoin:round;stroke-miterlimit:1.5;" version="1.1" xmlns="http://www.w3.org/2000/svg" xmlns:xlink="http://www.w3.org/1999/xlink" width="570" height="516" viewBox="0 0 570 516"><style class="text-font-style fontImports" data-font-family="Shantell Sans">@import url(https://fonts.googleapis.com/css2?family=Shantell+Sans:wght@300..800&amp;amp;display=block);</style><g id="items" style="isolation: isolate"><g id="blend" style="mix-blend-mode: normal"><g id="g-root-sy_6_cu_1ursur3ulkhdy-fill" data-item-order="-48257" transform="translate(14.00006103515625, 395.79443359375)"><g id="sy_6_cu_1ursur3ulkhdy-fill-merged" stroke="none" fill="#ffd7ef" fill-opacity="1"><g><path d="M141.4 3.006L137.9 0.306L118 10.406L129.3 18.906L141.4 3.006 M118 10.406L118.8 54.406L138.8 50.706L137.9 0.306L118 10.406 M138.8 50.706L130.5 28.206L109 27.706L118.8 54.406L138.8 50.706 M109 27.706L96.1 58.006L118 57.606L130.5 28.206L109 27.706 M118 57.606L109.5 39.206L86.4 36.906L96.1 58.006L118 57.606 M86.4 36.906L69.6 60.006L94.1 60.306L109.5 39.206L86.4 36.906 M94.1 60.306L81.3 41.906L59.8 46.006L69.6 60.006L94.1 60.306 M59.8 46.006L55.4 65.006L77.4 58.806L81.3 41.906L59.8 46.006 M77.4 58.806L65.5 46.706L38.9 48.206L55.4 65.006L77.4 58.806 M38.9 48.206L27.6 62.606L50.1 66.306L65.5 46.706L38.9 48.206 M50.1 66.306L44.6 50.806L22.3 47.606L27.6 62.606L50.1 66.306 M22.3 47.606L6.4 69.506L27 75.106L44.6 50.806L22.3 47.606 M27 75.106L25 54.006L5.1 55.906L6.4 69.506L27 75.106" fill-rule="nonzero"></path></g></g></g><g id="g-root-sy_6_cu_1ursur3ulkhdy-stroke" data-item-order="-48257" transform="translate(14.00006103515625, 395.79443359375)"><g id="sy_6_cu_1ursur3ulkhdy-stroke" fill="none" stroke-linecap="round" stroke-linejoin="round" stroke-miterlimit="4" stroke="#484848" stroke-width="4" stroke-opacity="1"><g><path d="M 69.909747 39.6509C 98.397147 34.4164 126.544047 29.7108 127.336847 20.2322C 127.811147 14.562 122.845347 11.6633 118.677347 10C 125.553947 12.281 140.902647 20.2322 140.902647 31.5084C 140.902647 48.3752 123.999347 56.8124 75.229247 65.242C 48.104047 69.9303 31.437347 72.7948 21.745547 72.035C 13.703447 71.4046 10.381047 66.9868 10.036847 61.629C 9.471347 52.8286 15.502447 48.4288 21.745547 47.0136C 29.357947 45.288 48.711847 43.546 69.909747 39.6509ZM 69.899947 39.605566C 98.699947 36.305566 127.599947 29.705566 127.299947 20.205566C 127.199947 14.505566 122.699947 12.005566 118.699947 10.005566C 125.499947 12.405566 142.399947 20.305566 140.899947 31.505566C 138.599947 48.205566 124.099947 57.605566 75.199947 65.205566C 47.999947 69.505566 31.299947 73.605566 21.699947 72.005566C 13.799947 70.705566 10.699947 67.005566 9.999947 61.605566C 8.899947 52.905566 15.499947 48.405566 21.699947 47.005566C 29.399947 45.305566 48.799947 44.105566 69.899947 39.605566"></path></g></g></g><g id="g-root-sy_6_cu_1_1lw5ui7ulki6n-fill" data-item-order="-48255" transform="translate(16.695770263671875, 389.52197265625)"><g id="sy_6_cu_1_1lw5ui7ulki6n-fill-merged" stroke="none" fill="#ffd7ef" fill-opacity="1"><g><path d="M13.504 18.878L8.604 28.078L23.604 42.578L31.204 28.178L13.504 18.878 M23.604 42.578L54.604 24.578L34.804 12.878L8.604 28.078L23.604 42.578 M34.804 12.878L34.604 21.578L54.304 34.878L54.604 24.578L34.804 12.878 M54.304 34.878L58.504 33.078L54.504 26.878L81.204 31.378L76.104 23.378L49.304 15.278L34.604 21.578L54.304 34.878 M81.204 31.378L96.304 19.378L74.604 10.978L54.504 26.878L81.204 31.378 M74.604 10.978L78.904 36.078L99.804 39.978L96.304 19.378L74.604 10.978 M99.804 39.978L112.304 19.178L90.604 16.478L78.904 36.078L99.804 39.978 M90.604 16.478L96.704 36.678L115.804 30.878L112.304 19.178L90.604 16.478" fill-rule="nonzero"></path></g></g></g><g id="g-root-sy_6_cu_1_1lw5ui7ulki6n-stroke" data-item-order="-48255" transform="translate(16.695770263671875, 389.52197265625)"><g id="sy_6_cu_1_1lw5ui7ulki6n-stroke" fill="none" stroke-linecap="round" stroke-linejoin="round" stroke-miterlimit="4" stroke="#484848" stroke-width="4" stroke-opacity="1"><g><path d="M 38.0076 27.1771C 16.9757 24.0392 10.9029 18.5537 10 17.5313C 11.8743 19.5171 14.7922 20.8771 19.0033 21.2053C 28.7014 21.9611 45.379 19.1113 72.522 14.4469C 81.0593 12.9798 88.6207 11.5124 95.2864 10C 102.5445 12.184 110.3408 13.5695 117.3519 16.811C 120.3393 18.2371 124.8131 20.893 124.6859 26.0148C 124.5376 31.9893 114.6599 35.7537 102.0009 38.9452C 101.6757 38.8312 100.3044 38.2844 99.9973 38.1713C 92.3051 35.2781 65.1564 31.2276 38.0076 27.1771ZM 117.3519 16.811L 117.5995 16.9255M 38.004237 27.178027C 17.004237 23.678027 10.804237 18.578027 10.004237 17.578027C 12.304237 19.078027 14.804237 20.478027 19.004237 21.178027C 28.604237 22.878027 45.204237 17.578027 72.504237 14.478027C 81.104237 13.478027 88.404237 10.278027 95.304237 9.978027C 101.804237 13.778027 110.104237 14.078027 117.304237 16.778027C 119.904237 18.978027 125.304237 20.978027 124.704237 25.978027C 124.004237 31.978027 114.204237 34.278027 102.004237 38.978027C 101.704237 38.878027 100.204237 38.378027 100.004237 38.178027C 93.504237 33.178027 65.304237 30.378027 38.004237 27.178027M 117.304237 16.778027C 117.404237 16.878027 117.504237 16.878027 117.604237 16.878027"></path></g></g></g><g id="g-root-sy_5_cu_1qbzcmnulki68-fill" data-item-order="-48251" transform="translate(14.00006103515625, 338.770263671875)"><g id="sy_5_cu_1qbzcmnulki68-fill-merged" stroke="none" fill="#e7e1ff" fill-opacity="1"><g><path d="M139.2 5.83L137.3 2.73L117.6 8.73L122 16.03L139.2 5.83 M117.6 8.73L120.1 50.93L139.8 45.33L137.3 2.73L117.6 8.73 M139.8 45.33L133.5 33.73L110.6 33.43L120.1 50.93L139.8 45.33 M110.6 33.43L96.1 58.53L120 57.13L133.5 33.73L110.6 33.43 M120 57.13L104.9 37.03L82.2 40.13L96.1 58.53L120 57.13 M82.2 40.13L74.3 60.53L95 62.53L104.9 37.03L82.2 40.13 M95 62.53L90.8 38.53L70.1 36.63L74.3 60.53L95 62.53 M70.1 36.63L58.2 68.83L80.4 66.33L90.8 38.53L70.1 36.63 M80.4 66.33L67.8 47.03L44.5 47.93L58.2 68.83L80.4 66.33 M44.5 47.93L33.4 68.53L56.6 67.73L67.8 47.03L44.5 47.93 M56.6 67.73L45 49.43L22 50.53L33.4 68.53L56.6 67.73 M22 50.53L10.7 72.33L34.4 70.13L45 49.43L22 50.53 M34.4 70.13L19.2 50.83L3.5 63.23L10.7 72.33L34.4 70.13" fill-rule="nonzero"></path></g></g></g><g id="g-root-sy_5_cu_1qbzcmnulki68-stroke" data-item-order="-48251" transform="translate(14.00006103515625, 338.770263671875)"><g id="sy_5_cu_1qbzcmnulki68-stroke" fill="none" stroke-linecap="round" stroke-linejoin="round" stroke-miterlimit="4" stroke="#484848" stroke-width="4" stroke-opacity="1"><g><path d="M 69.909747 39.6509C 98.397147 34.4164 126.544047 29.7108 127.336847 20.2322C 127.811147 14.562 122.845347 11.6633 118.677347 10C 125.553947 12.281 140.902647 20.2322 140.902647 31.5084C 140.902647 48.3752 123.999347 56.8124 75.229247 65.242C 48.104047 69.9303 31.437347 72.7948 21.745547 72.035C 13.703447 71.4046 10.381047 66.9868 10.036847 61.629C 9.471347 52.8286 15.502447 48.4288 21.745547 47.0136C 29.357947 45.288 48.711847 43.546 69.909747 39.6509ZM 69.899947 39.629797C 98.299947 33.629797 127.499947 29.729797 127.299947 20.229797C 127.299947 14.529797 122.799947 11.729797 118.699947 10.029797C 125.599947 12.229797 140.899947 20.229797 140.899947 31.529797C 140.899947 39.329797 137.899947 46.629797 128.499947 50.429797C 117.599947 54.729797 101.599947 62.629797 75.199947 65.229797C 47.799947 67.929797 31.399947 73.229797 21.699947 72.029797C 13.699947 71.129797 11.699947 66.729797 9.999947 61.629797C 7.299947 53.229797 15.699947 49.129797 21.699947 47.029797C 29.099947 44.429797 48.399947 41.629797 69.899947 39.629797"></path></g></g></g><g id="g-root-sy_5_cu_1_1hgccdrulkiyx-fill" data-item-order="-48249" transform="translate(16.695770263671875, 332.4970703125)"><g id="sy_5_cu_1_1hgccdrulkiyx-fill-merged" stroke="none" fill="#e7e1ff" fill-opacity="1"><g><path d="M8.004 28.503L9.404 30.303L36.804 35.703L51.404 26.303L33.304 14.203L25.804 19.103L24.604 17.303L8.004 28.503 M33.304 14.203L32.204 20.403L49.904 34.803L51.404 26.303L33.304 14.203 M49.904 34.803L69.604 26.703L52.604 12.003L32.204 20.403L49.904 34.803 M52.604 12.003L50.004 22.603L67.504 35.503L69.604 26.703L52.604 12.003 M67.504 35.503L96.704 18.003L73.304 8.603L50.004 22.603L67.504 35.503 M73.304 8.603L79.804 31.903L101.404 35.003L96.704 18.003L73.304 8.603 M101.404 35.003L114.304 14.203L94.704 7.903L79.804 31.903L101.404 35.003 M94.704 7.903L92.604 37.803L112.604 39.203L114.304 14.203L94.704 7.903" fill-rule="nonzero"></path></g></g></g><g id="g-root-sy_5_cu_1_1hgccdrulkiyx-stroke" data-item-order="-48249" transform="translate(16.695770263671875, 332.4970703125)"><g id="sy_5_cu_1_1hgccdrulkiyx-stroke" fill="none" stroke-linecap="round" stroke-linejoin="round" stroke-miterlimit="4" stroke="#484848" stroke-width="4" stroke-opacity="1"><g><path d="M 38.0076 27.1771C 16.9757 24.0392 10.9029 18.5537 10 17.5313C 11.8743 19.5171 14.7922 20.8771 19.0033 21.2053C 28.7014 21.9611 45.379 19.1113 72.522 14.4469C 81.0593 12.9798 88.6207 11.5124 95.2864 10C 102.5445 12.184 110.3408 13.5695 117.3519 16.811C 120.3393 18.2371 124.8131 20.893 124.6859 26.0148C 124.5376 31.9893 114.6599 35.7537 102.0009 38.9452C 101.6757 38.8312 100.3044 38.2844 99.9973 38.1713C 92.3051 35.2781 65.1564 31.2276 38.0076 27.1771ZM 117.3519 16.811L 117.5995 16.9255M 38.004237 27.20293C 17.304237 22.40293 10.904237 18.60293 10.004237 17.50293C 11.404237 19.90293 14.804237 21.00293 19.004237 21.20293C 28.704237 21.70293 45.204237 18.10293 72.504237 14.40293C 81.104237 13.30293 88.604237 11.30293 95.304237 10.00293C 102.804237 11.00293 110.404237 13.50293 117.304237 16.80293C 120.004237 18.80293 124.504237 20.90293 124.704237 26.00293C 124.904237 32.00293 114.704237 35.90293 102.004237 38.90293C 101.704237 38.90293 100.304237 38.30293 100.004237 38.20293C 92.304237 35.40293 65.404237 29.50293 38.004237 27.20293M 117.304237 16.80293C 117.404237 16.80293 117.504237 16.90293 117.604237 16.90293"></path></g></g></g><g id="g-root-sy_4_cu_1hgccdrulkiyy-fill" data-item-order="-48245" transform="translate(14.00006103515625, 281.74609375)"><g id="sy_4_cu_1hgccdrulkiyy-fill-merged" stroke="none" fill="#d1f4ff" fill-opacity="1"><g><path d="M139.8 11.654L137.9 7.154L117.4 9.654L121.2 19.154L139.8 11.654 M117.4 9.654L111.6 50.654L132.2 47.854L137.9 7.154L117.4 9.654 M132.2 47.854L123.6 27.954L102.3 28.854L111.6 50.654L132.2 47.854 M102.3 28.854L94.1 53.354L114.5 55.354L123.6 27.954L102.3 28.854 M114.5 55.354L111.9 35.954L91.2 31.254L94.1 53.354L114.5 55.354 M91.2 31.254L73.1 58.854L96.3 59.854L111.9 35.954L91.2 31.254 M96.3 59.854L83.6 36.154L62.8 39.654L73.1 58.854L96.3 59.854 M62.8 39.654L58 69.754L78.9 65.454L83.6 36.154L62.8 39.654 M78.9 65.454L62.3 39.054L40 41.154L58 69.754L78.9 65.454 M40 41.154L29.2 68.554L50.4 69.354L62.3 39.054L40 41.154 M50.4 69.354L44.1 49.454L22.5 47.354L29.2 68.554L50.4 69.354 M22.5 47.354L12.1 66.354L33.2 69.554L44.1 49.454L22.5 47.354 M33.2 69.554L29.1 49.654L9.5 53.654L12.1 66.354L33.2 69.554" fill-rule="nonzero"></path></g></g></g><g id="g-root-sy_4_cu_1hgccdrulkiyy-stroke" data-item-order="-48245" transform="translate(14.00006103515625, 281.74609375)"><g id="sy_4_cu_1hgccdrulkiyy-stroke" fill="none" stroke-linecap="round" stroke-linejoin="round" stroke-miterlimit="4" stroke="#484848" stroke-width="4" stroke-opacity="1"><g><path d="M 69.909747 39.6509C 98.397147 34.4164 126.544047 29.7108 127.336847 20.2322C 127.811147 14.562 122.845347 11.6633 118.677347 10C 125.553947 12.281 140.902647 20.2322 140.902647 31.5084C 140.902647 48.3752 123.999347 56.8124 75.229247 65.242C 48.104047 69.9303 31.437347 72.7948 21.745547 72.035C 13.703447 71.4046 10.381047 66.9868 10.036847 61.629C 9.471347 52.8286 15.502447 48.4288 21.745547 47.0136C 29.357947 45.288 48.711847 43.546 69.909747 39.6509ZM 69.899947 39.653906C 84.799947 36.653906 99.599947 33.753906 110.599947 31.053906C 120.599947 28.653906 126.899947 24.753906 127.299947 20.253906C 127.899947 14.553906 122.899947 11.453906 118.699947 9.953906C 125.899947 10.853906 140.899947 20.253906 140.899947 31.553906C 140.899947 48.353906 123.799947 55.653906 75.199947 65.253906C 48.199947 70.553906 31.499947 71.953906 21.699947 72.053906C 13.699947 72.053906 9.799947 66.953906 9.999947 61.653906C 10.499947 52.853906 15.699947 49.053906 21.699947 47.053906C 29.199947 44.553906 48.999947 44.953906 69.899947 39.653906"></path></g></g></g><g id="g-root-sy_4_cu_1_1hgccdrulkiyz-fill" data-item-order="-48243" transform="translate(16.695770263671875, 275.4736328125)"><g id="sy_4_cu_1_1hgccdrulkiyz-fill-merged" stroke="none" fill="#d1f4ff" fill-opacity="1"><g><path d="M17.604 17.026L10.404 19.726L18.404 38.026L24.504 35.826L17.604 17.026 M18.404 38.026L50.504 21.726L25.304 12.026L10.404 19.726L18.404 38.026 M25.304 12.026L30.504 25.526L55.504 34.826L50.504 21.726L25.304 12.026 M55.504 34.826L74.304 24.726L54.204 12.826L30.504 25.526L55.504 34.826 M54.204 12.826L54.304 26.026L74.404 34.226L74.304 24.726L54.204 12.826 M74.404 34.226L92.104 16.526L68.904 11.426L54.304 26.026L74.404 34.226 M68.904 11.426L74.904 27.626L99.204 35.726L92.104 16.526L68.904 11.426 M99.204 35.726L116.304 24.726L98.804 12.226L74.904 27.626L99.204 35.726 M98.804 12.226L93.104 35.226L112.504 40.026L116.304 24.726L98.804 12.226" fill-rule="nonzero"></path></g></g></g><g id="g-root-sy_4_cu_1_1hgccdrulkiyz-stroke" data-item-order="-48243" transform="translate(16.695770263671875, 275.4736328125)"><g id="sy_4_cu_1_1hgccdrulkiyz-stroke" fill="none" stroke-linecap="round" stroke-linejoin="round" stroke-miterlimit="4" stroke="#484848" stroke-width="4" stroke-opacity="1"><g><path d="M 38.0076 27.1771C 16.9757 24.0392 10.9029 18.5537 10 17.5313C 11.8743 19.5171 14.7922 20.8771 19.0033 21.2053C 28.7014 21.9611 45.379 19.1113 72.522 14.4469C 81.0593 12.9798 88.6207 11.5124 95.2864 10C 102.5445 12.184 110.3408 13.5695 117.3519 16.811C 120.3393 18.2371 124.8131 20.893 124.6859 26.0148C 124.5376 31.9893 114.6599 35.7537 102.0009 38.9452C 101.6757 38.8312 100.3044 38.2844 99.9973 38.1713C 92.3051 35.2781 65.1564 31.2276 38.0076 27.1771ZM 117.3519 16.811L 117.5995 16.9255M 38.004237 27.226367C 16.904237 24.926367 11.104237 18.426367 10.004237 17.526367C 12.504237 18.726367 14.904237 20.326367 19.004237 21.226367C 28.504237 23.226367 45.404237 19.226367 72.504237 14.426367C 81.004237 12.926367 88.404237 10.126367 95.304237 10.026367C 102.404237 12.626367 110.604237 13.026367 117.304237 16.826367C 120.004237 18.826367 123.804237 20.926367 124.704237 26.026367C 125.704237 31.926367 114.904237 36.726367 102.004237 38.926367C 101.704237 38.726367 100.304237 38.126367 100.004237 38.126367C 91.804237 38.026367 65.304237 30.326367 38.004237 27.226367M 117.304237 16.826367C 117.404237 16.826367 117.504237 16.826367 117.604237 16.926367"></path></g></g></g><g id="g-root-sy_3_cu_1d0iu9bulkjr8-fill" data-item-order="-48239" transform="translate(14.00006103515625, 224.720703125)"><g id="sy_3_cu_1d0iu9bulkjr8-fill-merged" stroke="none" fill="#e9ffb9" fill-opacity="1"><g><path d="M142.1 19.579L137.1 5.779L116.7 8.179L123.3 26.279L142.1 19.579 M116.7 8.179L112.2 50.479L132.4 49.779L137.1 5.779L116.7 8.179 M132.4 49.779L128.9 29.179L108.4 27.979L112.2 50.479L132.4 49.779 M108.4 27.979L99.8 57.279L121.9 52.979L128.9 29.179L108.4 27.979 M121.9 52.979L104.4 30.879L81.8 34.479L99.8 57.279L121.9 52.979 M81.8 34.479L73.2 58.279L95.1 56.479L104.4 30.879L81.8 34.479 M95.1 56.479L83.5 35.879L61.3 37.279L73.2 58.279L95.1 56.479 M61.3 37.279L51.6 61.279L73.3 60.979L83.5 35.879L61.3 37.279 M73.3 60.979L68.1 48.979L45.2 46.379L51.6 61.279L73.3 60.979 M45.2 46.379L31.1 65.579L55.5 66.179L68.1 48.979L45.2 46.379 M55.5 66.179L45.1 50.579L21 50.479L31.1 65.579L55.5 66.179 M21 50.479L11.7 64.379L36 64.079L45.1 50.579L21 50.479 M36 64.079L25.3 48.979L9 60.579L11.7 64.379L36 64.079" fill-rule="nonzero"></path></g></g></g><g id="g-root-sy_3_cu_1d0iu9bulkjr8-stroke" data-item-order="-48239" transform="translate(14.00006103515625, 224.720703125)"><g id="sy_3_cu_1d0iu9bulkjr8-stroke" fill="none" stroke-linecap="round" stroke-linejoin="round" stroke-miterlimit="4" stroke="#484848" stroke-width="4" stroke-opacity="1"><g><path d="M 69.909747 39.6509C 98.397147 34.4164 126.544047 29.7108 127.336847 20.2322C 127.811147 14.562 122.845347 11.6633 118.677347 10C 125.553947 12.281 140.902647 20.2322 140.902647 31.5084C 140.902647 48.3752 123.999347 56.8124 75.229247 65.242C 48.104047 69.9303 31.437347 72.7948 21.745547 72.035C 13.703447 71.4046 10.381047 66.9868 10.036847 61.629C 9.471347 52.8286 15.502447 48.4288 21.745547 47.0136C 29.357947 45.288 48.711847 43.546 69.909747 39.6509ZM 69.899947 39.679297C 98.299947 33.879297 126.599947 29.679297 127.299947 20.279297C 127.799947 14.579297 122.599947 12.179297 118.699947 9.979297C 125.599947 12.079297 139.299947 20.379297 140.899947 31.479297C 143.299947 48.179297 123.699947 55.179297 75.199947 65.279297C 48.299947 70.879297 31.299947 73.579297 21.699947 72.079297C 13.799947 70.679297 9.799947 66.979297 9.999947 61.579297C 10.399947 52.779297 15.699947 49.179297 21.699947 46.979297C 29.099947 44.379297 48.899947 44.379297 69.899947 39.679297"></path></g></g></g><g id="g-root-sy_3_cu_1_1d0iu9bulkjr9-fill" data-item-order="-48237" transform="translate(16.695770263671875, 218.4482421875)"><g id="sy_3_cu_1_1d0iu9bulkjr9-fill-merged" stroke="none" fill="#e9ffb9" fill-opacity="1"><g><path d="M12.304 17.052L10.404 23.752L27.804 35.552L31.504 22.552L12.304 17.052 M27.804 35.552L49.404 18.752L28.504 9.652L10.404 23.752L27.804 35.552 M28.504 9.652L29.604 21.652L50.704 32.552L49.404 18.752L28.504 9.652 M50.704 32.552L71.104 20.952L49.704 10.152L29.604 21.652L50.704 32.552 M49.704 10.152L51.904 29.252L73.104 38.552L71.104 20.952L49.704 10.152 M73.104 38.552L95.004 22.652L77.704 10.452L51.904 29.252L73.104 38.552 M77.704 10.452L73.804 23.752L90.704 37.352L95.004 22.652L77.704 10.452 M90.704 37.352L116.704 23.152L92.104 13.752L73.804 23.752L90.704 37.352 M92.104 13.752L99.904 35.752L118.804 29.052L116.704 23.152L92.104 13.752" fill-rule="nonzero"></path></g></g></g><g id="g-root-sy_3_cu_1_1d0iu9bulkjr9-stroke" data-item-order="-48237" transform="translate(16.695770263671875, 218.4482421875)"><g id="sy_3_cu_1_1d0iu9bulkjr9-stroke" fill="none" stroke-linecap="round" stroke-linejoin="round" stroke-miterlimit="4" stroke="#484848" stroke-width="4" stroke-opacity="1"><g><path d="M 38.0076 27.1771C 16.9757 24.0392 10.9029 18.5537 10 17.5313C 11.8743 19.5171 14.7922 20.8771 19.0033 21.2053C 28.7014 21.9611 45.379 19.1113 72.522 14.4469C 81.0593 12.9798 88.6207 11.5124 95.2864 10C 102.5445 12.184 110.3408 13.5695 117.3519 16.811C 120.3393 18.2371 124.8131 20.893 124.6859 26.0148C 124.5376 31.9893 114.6599 35.7537 102.0009 38.9452C 101.6757 38.8312 100.3044 38.2844 99.9973 38.1713C 92.3051 35.2781 65.1564 31.2276 38.0076 27.1771ZM 117.3519 16.811L 117.5995 16.9255M 38.004237 27.151758C 17.004237 24.251758 10.804237 18.651758 10.004237 17.551758C 11.704237 19.651758 15.004237 19.851758 19.004237 21.251758C 28.204237 24.351758 45.604237 20.051758 72.504237 14.451758C 81.004237 12.651758 88.704237 11.951758 95.304237 9.951758C 102.304237 12.751758 110.404237 13.451758 117.304237 16.851758C 120.404237 18.051758 126.704237 21.351758 124.704237 26.051758C 122.304237 31.551758 114.404237 35.051758 102.004237 38.951758C 101.704237 38.851758 100.204237 38.351758 100.004237 38.151758C 93.504237 33.151758 65.104237 31.851758 38.004237 27.151758M 117.304237 16.851758C 117.404237 16.851758 117.504237 16.851758 117.604237 16.951758"></path></g></g></g><g id="g-root-sy_2_cu_1d0iu9bulkjra-fill" data-item-order="-48233" transform="translate(14.00006103515625, 167.6962890625)"><g id="sy_2_cu_1d0iu9bulkjra-fill-merged" stroke="none" fill="#c8ffe5" fill-opacity="1"><g><path d="M143.2 16.904L136.5 8.404L116.6 15.304L127.4 29.204L143.2 16.904 M116.6 15.304L117 50.104L137 45.404L136.5 8.404L116.6 15.304 M137 45.404L128.1 27.004L106.3 27.804L117 50.104L137 45.404 M106.3 27.804L95.8 54.504L117.6 53.804L128.1 27.004L106.3 27.804 M117.6 53.804L107.5 32.404L85 31.604L95.8 54.504L117.6 53.804 M85 31.604L70.8 56.704L92.4 59.104L107.5 32.404L85 31.604 M92.4 59.104L87.6 43.304L66.6 42.804L70.8 56.704L92.4 59.104 M66.6 42.804L57.5 67.504L79.5 65.604L87.6 43.304L66.6 42.804 M79.5 65.604L65.4 41.104L42.2 41.004L57.5 67.504L79.5 65.604 M42.2 41.004L26.9 66.904L50 67.104L65.4 41.104L42.2 41.004 M50 67.104L40 49.404L17.5 50.504L26.9 66.904L50 67.104 M17.5 50.504L10.2 66.704L34.5 61.504L40 49.404L17.5 50.504 M34.5 61.504L20.8 49.404L7.6 64.404L10.2 66.704L34.5 61.504" fill-rule="nonzero"></path></g></g></g><g id="g-root-sy_2_cu_1d0iu9bulkjra-stroke" data-item-order="-48233" transform="translate(14.00006103515625, 167.6962890625)"><g id="sy_2_cu_1d0iu9bulkjra-stroke" fill="none" stroke-linecap="round" stroke-linejoin="round" stroke-miterlimit="4" stroke="#484848" stroke-width="4" stroke-opacity="1"><g><path d="M 69.909747 39.6509C 98.397147 34.4164 126.544047 29.7108 127.336847 20.2322C 127.811147 14.562 122.845347 11.6633 118.677347 10C 125.553947 12.281 140.902647 20.2322 140.902647 31.5084C 140.902647 48.3752 123.999347 56.8124 75.229247 65.242C 48.104047 69.9303 31.437347 72.7948 21.745547 72.035C 13.703447 71.4046 10.381047 66.9868 10.036847 61.629C 9.471347 52.8286 15.502447 48.4288 21.745547 47.0136C 29.357947 45.288 48.711847 43.546 69.909747 39.6509ZM 69.899947 39.603711C 98.499947 35.103711 126.499947 29.703711 127.299947 20.203711C 127.799947 14.603711 122.699947 11.903711 118.699947 10.003711C 125.599947 12.003711 140.599947 20.203711 140.899947 31.503711C 141.299947 48.403711 124.099947 57.203711 75.199947 65.203711C 48.099947 69.703711 31.399947 73.003711 21.699947 72.003711C 13.699947 71.203711 10.699947 67.003711 9.999947 61.603711C 8.999947 52.903711 15.699947 49.003711 21.699947 47.003711C 29.199947 44.603711 48.799947 44.003711 69.899947 39.603711"></path></g></g></g><g id="g-root-sy_2_cu_1_145ib3julkhe7-fill" data-item-order="-48231" transform="translate(16.695770263671875, 161.4228515625)"><g id="sy_2_cu_1_145ib3julkhe7-fill-merged" stroke="none" fill="#c8ffe5" fill-opacity="1"><g><path d="M10.504 27.777 V27.577L32.104 34.977L30.204 24.277L10.504 27.777 M32.104 34.977L50.704 17.877L31.304 8.577L10.504 27.577L32.104 34.977 M31.304 8.577L29.904 28.777L49.304 39.077L50.704 17.877L31.304 8.577 M49.304 39.077L71.604 21.677L54.204 9.877L29.904 28.777L49.304 39.077 M54.204 9.877L50.304 23.277L67.004 37.277L71.604 21.677L54.204 9.877 M67.004 37.277L97.904 21.877L76.404 10.277L50.304 23.277L67.004 37.277 M76.404 10.277L79.204 34.177L99.904 39.477L97.904 21.877L76.404 10.277 M99.904 39.477L116.904 15.777L96.704 9.677L79.204 34.177L99.904 39.477 M96.704 9.677L97.704 39.377L117.704 38.677L116.904 15.777L96.704 9.677" fill-rule="nonzero"></path></g></g></g><g id="g-root-sy_2_cu_1_145ib3julkhe7-stroke" data-item-order="-48231" transform="translate(16.695770263671875, 161.4228515625)"><g id="sy_2_cu_1_145ib3julkhe7-stroke" fill="none" stroke-linecap="round" stroke-linejoin="round" stroke-miterlimit="4" stroke="#484848" stroke-width="4" stroke-opacity="1"><g><path d="M 38.0076 27.1771C 16.9757 24.0392 10.9029 18.5537 10 17.5313C 11.8743 19.5171 14.7922 20.8771 19.0033 21.2053C 28.7014 21.9611 45.379 19.1113 72.522 14.4469C 81.0593 12.9798 88.6207 11.5124 95.2864 10C 102.5445 12.184 110.3408 13.5695 117.3519 16.811C 120.3393 18.2371 124.8131 20.893 124.6859 26.0148C 124.5376 31.9893 114.6599 35.7537 102.0009 38.9452C 101.6757 38.8312 100.3044 38.2844 99.9973 38.1713C 92.3051 35.2781 65.1564 31.2276 38.0076 27.1771ZM 117.3519 16.811L 117.5995 16.9255M 38.004237 27.177148C 17.204237 22.877148 11.004237 18.377148 10.004237 17.577148C 11.104237 19.977148 14.904237 20.277148 19.004237 21.177148C 28.504237 23.277148 45.304237 18.477148 72.504237 14.477148C 81.104237 13.177148 88.704237 11.677148 95.304237 9.977148C 102.704237 11.377148 110.504237 13.277148 117.304237 16.777148C 119.704237 19.077148 125.604237 20.977148 124.704237 25.977148C 123.604237 31.877148 114.804237 36.377148 102.004237 38.977148C 101.704237 38.977148 100.304237 38.277148 100.004237 38.177148C 92.504237 34.777148 65.004237 32.077148 38.004237 27.177148M 117.304237 16.777148C 117.404237 16.877148 117.504237 16.877148 117.604237 16.877148"></path></g></g></g><g id="g-root-sy_1_cu_18lbt7zulkhds-fill" data-item-order="-48227" transform="translate(14.00006103515625, 110.671875)"><g id="sy_1_cu_18lbt7zulkhds-fill-merged" stroke="none" fill="#dce9ff" fill-opacity="1"><g><path d="M142.2 14.628L135.7 2.228L115.7 7.028L124.5 23.828L142.2 14.628 M115.7 7.028L115.5 50.228L135.5 45.928L135.7 2.228L115.7 7.028 M135.5 45.928L126.8 26.528L105.4 27.628L115.5 50.228L135.5 45.928 M105.4 27.628L95.4 57.928L116.4 58.028L126.8 26.528L105.4 27.628 M116.4 58.028L110.2 38.628L88.8 37.428L95.4 57.928L116.4 58.028 M88.8 37.428L77.2 63.528L100.3 60.828L110.2 38.628L88.8 37.428 M100.3 60.828L84.3 39.928L62.6 44.528L77.2 63.528L100.3 60.828 M62.6 44.528L57.9 64.428L79.5 59.828L84.3 39.928L62.6 44.528 M79.5 59.828L62.9 38.128L40.2 41.328L57.9 64.428L79.5 59.828 M40.2 41.328L30.9 65.428L53.1 63.328L62.9 38.128L40.2 41.328 M53.1 63.328L41.4 44.528L19.9 47.828L30.9 65.428L53.1 63.328 M19.9 47.828L14.7 68.528L36.1 65.628L41.4 44.528L19.9 47.828 M36.1 65.628L26.4 48.928L9.1 58.928L14.7 68.528L36.1 65.628" fill-rule="nonzero"></path></g></g></g><g id="g-root-sy_1_cu_18lbt7zulkhds-stroke" data-item-order="-48227" transform="translate(14.00006103515625, 110.671875)"><g id="sy_1_cu_18lbt7zulkhds-stroke" fill="none" stroke-linecap="round" stroke-linejoin="round" stroke-miterlimit="4" stroke="#484848" stroke-width="4" stroke-opacity="1"><g><path d="M 69.909747 39.6509C 98.397147 34.4164 126.544047 29.7108 127.336847 20.2322C 127.811147 14.562 122.845347 11.6633 118.677347 10C 125.553947 12.281 140.902647 20.2322 140.902647 31.5084C 140.902647 48.3752 123.999347 56.8124 75.229247 65.242C 48.104047 69.9303 31.437347 72.7948 21.745547 72.035C 13.703447 71.4046 10.381047 66.9868 10.036847 61.629C 9.471347 52.8286 15.502447 48.4288 21.745547 47.0136C 29.357947 45.288 48.711847 43.546 69.909747 39.6509ZM 69.899947 39.628125C 97.999947 32.528125 125.699947 29.628125 127.299947 20.228125C 128.299947 14.628125 122.699947 12.028125 118.699947 10.028125C 125.799947 11.428125 141.399947 20.228125 140.899947 31.528125C 140.499947 39.428125 137.199947 45.628125 128.099947 50.628125C 117.799947 56.228125 100.999947 60.928125 75.199947 65.228125C 48.099947 69.828125 31.499947 72.528125 21.699947 72.028125C 13.699947 71.628125 9.399947 66.928125 9.999947 61.628125C 11.099947 52.828125 15.399947 47.928125 21.699947 47.028125C 29.499947 45.928125 49.099947 45.228125 69.899947 39.628125"></path></g></g></g><g id="g-root-sy_1_cu_1_18lbt7zulkhdt-fill" data-item-order="-48225" transform="translate(14.036956787109375, 92)"><g id="sy_1_cu_1_18lbt7zulkhdt-fill-merged" stroke="none" fill="#dce9ff" fill-opacity="1"><g><path d="M131.463 37.4L128.563 30.3L105.763 27.4L112.863 44.9L131.463 37.4 M105.763 27.4L92.763 45L113.063 51.2L128.563 30.3L105.763 27.4 M113.063 51.2L112.063 29.3L91.563 20.8L92.763 45L113.063 51.2 M91.563 20.8L69.063 41.1L87.463 51.4L112.063 29.3L91.563 20.8 M87.463 51.4L91.963 27L73.763 15.2L69.063 41.1L87.463 51.4 M73.763 15.2L50.463 31.2L69.163 42.6L91.963 27L73.763 15.2 M69.163 42.6L71.263 26L52.563 14.2L50.463 31.2L69.163 42.6 M52.563 14.2L26.963 30.4L46.863 41.5L71.263 26L52.563 14.2 M46.863 41.5L47.063 17.4L27.163 8.6L26.963 30.4L46.863 41.5 M27.163 8.6L9.963 24.9L28.163 35.2L47.063 17.4L27.163 8.6 M28.163 35.2L32.363 15.5L12.763 11.4L9.963 24.9L28.163 35.2" fill-rule="nonzero"></path></g></g></g><g id="g-root-sy_1_cu_1_18lbt7zulkhdt-stroke" data-item-order="-48225" transform="translate(14.036956787109375, 92)"><g id="sy_1_cu_1_18lbt7zulkhdt-stroke" fill="none" stroke-linecap="round" stroke-linejoin="round" stroke-miterlimit="4" stroke="#484848" stroke-width="4" stroke-opacity="1"><g><path d="M 120.0108 29.210385C 122.9982 30.636385 127.4718 33.292385 127.3446 38.414185C 127.1963 44.388685 117.3187 48.153085 104.6598 51.344585C 104.3346 51.230585 102.9633 50.683785 102.6561 50.570685C 78.8756 41.626185 51.5585 39.244885 26.2368 35.204085C 24.7636 35.763885 21.9403 35.966885 20.221 35.763885C 15.9301 34.666285 10 31.373185 10 22.448585C 10 17.819185 13.6401 10.768285 21.6823 10.137885C 31.374 9.378085 48.067 11.794885 75.1922 16.483285C 90.003 19.043185 106.1882 22.819685 120.0108 29.210385ZM 120.0108 29.210385L 120.2583 29.324785M 119.963043 29.199985C 123.263043 29.799985 127.463043 33.299985 127.363043 38.399985C 127.263043 44.399985 116.763043 46.599985 104.663043 51.299985C 104.363043 51.299985 102.863043 50.799985 102.663043 50.599985C 93.263043 42.599985 78.863043 43.599985 66.363043 41.299985C 52.963043 38.799985 39.263043 37.399985 26.263043 35.199985C 24.663043 35.199985 21.763043 36.499985 20.263043 35.799985C 16.363043 33.599985 10.963043 31.299985 9.963043 22.399985C 9.563043 17.799985 13.663043 10.499985 21.663043 10.099985C 31.363043 9.699985 48.063043 12.099985 75.163043 16.499985C 90.063043 18.899985 106.063043 23.199985 119.963043 29.199985M 119.963043 29.199985C 120.063043 29.199985 120.163043 29.299985 120.263043 29.299985"></path></g></g></g><g id="g-root-sy_1_Ellipse_zposz3ulki6i-fill" data-item-order="-48223" transform="translate(14.000335693359375, 92.178955078125)"><g id="sy_1_Ellipse_zposz3ulki6i-fill-merged" stroke="none" fill="#dce9ff" fill-opacity="1"><g><path d="M14.7 6.821L11.5 31.821L31.3 34.321L34.5 9.421L14.7 6.821" fill-rule="nonzero"></path></g></g></g><g id="g-root-sy_1_Ellipse_zposz3ulki6i-stroke" data-item-order="-48223" transform="translate(14.000335693359375, 92.178955078125)"><g id="sy_1_Ellipse_zposz3ulki6i-stroke" fill="none" stroke-linecap="round" stroke-linejoin="round" stroke-miterlimit="4" stroke="#484848" stroke-width="4" stroke-opacity="1"><g><path d="M 10 22.846066C 9.998156 29.94019 15.498816 35.692136 22.284863 35.692136C 29.070909 35.692136 34.57157 29.94019 34.569726 22.846066C 34.57157 15.751942 29.070909 9.999996 22.284863 9.999996C 15.498816 9.999996 9.998156 15.751942 10 22.846066M 9.999668 22.821037C 11.099668 29.821037 15.599668 36.621037 22.299668 35.721037C 28.999668 34.721037 34.199668 29.921037 34.599668 22.821037C 34.899668 15.721037 29.099668 10.521037 22.299668 10.021037C 15.499668 9.521037 8.899668 15.821037 9.999668 22.821037"></path></g></g></g><g id="g-root-tx_searchac_1d2e9inulkirq-fill" data-item-order="0" transform="translate(230, 236)"><g id="tx_searchac_1d2e9inulkirq-fill-merged" stroke="none" fill="#484848" fill-opacity="1"><g><text style="font: 20px &quot;Shantell Sans&quot;, cursive; white-space: pre;" transform="translate(10, 22)" font-size="20px" font-family="'Shantell Sans', cursive"><tspan x="2" y="13.5" dominant-baseline="ideographic">Search Across Multiple Sources</tspan></text></g></g></g><g id="g-root-tx_searchac_1d2e9inulkirq-stroke" data-item-order="0" transform="translate(230, 236)"></g><g id="g-root-ic_2_i0a7qnulopa9-fill" data-item-order="0" transform="translate(182, 230)"></g><g id="g-root-ic_2_i0a7qnulopa9-stroke" data-item-order="0" transform="translate(182, 230)"><g id="ic_2_i0a7qnulopa9-stroke" fill="none" stroke-linecap="round" stroke-linejoin="round" stroke-miterlimit="4" stroke="#484848" stroke-width="2" stroke-opacity="1"><g><path d="M 28 15.8125L 28 19.5625M 25.75 13.5625C 25.75 14.80514 26.75736 15.8125 28 15.8125C 29.242641 15.8125 30.25 14.80514 30.25 13.5625C 30.25 12.31986 29.242641 11.3125 28 11.3125C 26.75736 11.3125 25.75 12.31986 25.75 13.5625M 40.375 28.5625L 37 28.5625M 40.375 28.5625C 40.375 29.805141 41.382362 30.8125 42.625 30.8125C 43.867641 30.8125 44.875 29.805141 44.875 28.5625C 44.875 27.31986 43.867641 26.3125 42.625 26.3125C 41.382362 26.3125 40.375 27.31986 40.375 28.5625M 36.962502 19.640499L 34.312 22.2925M 36.304001 18.050501C 36.304001 19.29314 37.311359 20.300501 38.554001 20.300501C 39.796642 20.300501 40.804001 19.29314 40.804001 18.050501C 40.804001 16.807859 39.796642 15.8005 38.554001 15.8005C 37.311359 15.8005 36.304001 16.807859 36.304001 18.050501M 15.625 28.5625L 19 28.5625M 11.125 28.5625C 11.125 29.805141 12.13236 30.8125 13.375 30.8125C 14.61764 30.8125 15.625 29.805141 15.625 28.5625C 15.625 27.31986 14.61764 26.3125 13.375 26.3125C 12.13236 26.3125 11.125 27.31986 11.125 28.5625M 19.0375 19.640499L 21.688 22.2925M 15.196 18.050501C 15.196 19.29314 16.20336 20.300501 17.446001 20.300501C 18.688641 20.300501 19.696001 19.29314 19.696001 18.050501C 19.696001 16.807859 18.688641 15.8005 17.446001 15.8005C 16.20336 15.8005 15.196 16.807859 15.196 18.050501M 22.9645 28.063C 25.769989 30.968952 30.08099 31.835571 33.7915 30.2395M 22.156 31.0315C 22.156 34.259052 24.772448 36.8755 28 36.8755C 31.227551 36.8755 33.844002 34.259052 33.844002 31.0315C 33.844002 27.803947 31.227551 25.1875 28 25.1875C 24.772448 25.1875 22.156 27.803947 22.156 31.0315M 36.939999 44.6875C 35.316986 41.217026 31.831985 38.999565 28.000751 38.999565C 24.169516 38.999565 20.684515 41.217026 19.061501 44.6875M 28 38.9995L 28 44.6875M 28 15.85C 27.700001 17.049999 27.849998 18.4 28 19.6M 25.75 13.6C 25.900002 14.8 26.799999 16 28 15.85C 29.200001 15.7 30.099998 14.8 30.25 13.6C 30.400002 12.4 29.200001 10.9 28 11.35C 26.799999 11.65 25.599998 12.25 25.75 13.6M 40.449997 28.599998C 39.25 28.150002 38.050003 28.75 37 28.599998M 40.449997 28.599998C 40.75 29.799999 41.349998 31 42.699997 30.849998C 43.900002 30.700001 44.949997 29.799999 44.949997 28.599998C 44.800003 27.25 43.900002 26.5 42.699997 26.349998C 41.349998 26.200001 40.150002 27.400002 40.449997 28.599998M 37 19.6C 36.099998 20.5 35.5 21.85 34.300003 22.299999M 36.25 18.1C 36.400002 19.299999 37.449997 19.9 38.5 20.35C 39.699997 20.799999 41.199997 19.299999 40.75 18.1C 40.449997 16.9 39.699997 16.15 38.5 15.85C 37.300003 15.55 36.699997 16.9 36.25 18.1M 15.7 28.599998C 16.75 28.150002 17.950001 28.299999 19 28.599998M 11.2 28.599998C 11.2 29.799999 12.25 31.150002 13.45 30.849998C 14.5 30.400002 15.25 29.799999 15.7 28.599998C 16 27.400002 14.65 26.200001 13.45 26.349998C 12.1 26.349998 11.05 27.400002 11.2 28.599998M 19 19.6C 20.049999 20.5 20.950001 21.25 21.700001 22.299999M 15.25 18.1C 15.4 19.299999 16.299999 19.9 17.5 20.35C 18.700001 20.65 19.9 19.299999 19.75 18.1C 19.450001 16.75 18.549999 15.4 17.5 15.85C 16.299999 16.299999 15.1 16.9 15.25 18.1M 22.900002 28C 25.599998 31.150002 29.799999 30.549999 33.849998 30.25M 22.150002 31C 20.950001 34 25 37.900002 28 36.849998C 31 35.800003 34.75 34.150002 33.849998 31C 32.950001 28 31.150002 25.900002 28 25.150002C 24.849998 24.549999 21.549999 27.849998 22.150002 31M 37 44.650002C 36.099998 40.900002 31.900002 39.25 28 38.949997C 24.25 38.800003 20.799999 41.199997 19 44.650002M 28 38.949997C 28.450001 40.900002 28.299999 42.849998 28 44.650002"></path></g></g></g><g id="g-root-tx_platform_zrk88fulkh6v-fill" data-item-order="0" transform="translate(230, 176)"><g id="tx_platform_zrk88fulkh6v-fill-merged" stroke="none" fill="#484848" fill-opacity="1"><g><text style="font: 20px &quot;Shantell Sans&quot;, cursive; white-space: pre;" transform="translate(10, 22)" font-size="20px" font-family="'Shantell Sans', cursive"><tspan x="2" y="13.5" dominant-baseline="ideographic">Platform Initiates Search</tspan></text></g></g></g><g id="g-root-tx_platform_zrk88fulkh6v-stroke" data-item-order="0" transform="translate(230, 176)"></g><g id="g-root-ic_1_9mobzulnabn-fill" data-item-order="0" transform="translate(182, 290)"></g><g id="g-root-ic_1_9mobzulnabn-stroke" data-item-order="0" transform="translate(182, 290)"><g id="ic_1_9mobzulnabn-stroke" fill="none" stroke-linecap="round" stroke-linejoin="round" stroke-miterlimit="4" stroke="#484848" stroke-width="2" stroke-opacity="1"><g><path d="M 33.549999 43.449997L 27.25 45.25L 29.049999 38.949997L 39.818501 28.181499C 41.061138 26.938858 43.075859 26.938858 44.318501 28.181499C 45.561138 29.424141 45.561138 31.438858 44.318501 32.681499ZM 38.468498 29.5315L 42.968498 34.031502M 29.049999 38.949997L 33.549999 43.449997M 18.25 40.75L 22.75 40.75M 22.751501 33.25L 22.751501 40.75M 14.875 40C 14.667893 40 14.5 40.167892 14.5 40.375C 14.5 40.582108 14.667893 40.75 14.875 40.75C 15.082107 40.75 15.25 40.582108 15.25 40.375C 15.25 40.167892 15.082107 40 14.875 40L 14.875 40M 11.125 40C 10.917893 40 10.75 40.167892 10.75 40.375C 10.75 40.582108 10.917893 40.75 11.125 40.75C 11.332107 40.75 11.5 40.582108 11.5 40.375C 11.5 40.167892 11.332107 40 11.125 40L 11.125 40M 16.375 29.125C 16.167892 29.125 16 29.292892 16 29.5C 16 29.707108 16.167892 29.875 16.375 29.875C 16.582108 29.875 16.75 29.707108 16.75 29.5C 16.75 29.292892 16.582108 29.125 16.375 29.125L 16.375 29.125M 20.125 29.125C 19.917892 29.125 19.75 29.292892 19.75 29.5C 19.75 29.707108 19.917892 29.875 20.125 29.875C 20.332108 29.875 20.5 29.707108 20.5 29.5C 20.5 29.292892 20.332108 29.125 20.125 29.125L 20.125 29.125M 28.75 25.75L 14.5 25.75C 12.428932 25.75 10.75 27.428932 10.75 29.5C 10.75 31.571068 12.428932 33.25 14.5 33.25L 24.25 33.25M 16.375 21.625C 16.167892 21.625 16 21.792892 16 22C 16 22.207108 16.167892 22.375 16.375 22.375C 16.582108 22.375 16.75 22.207108 16.75 22C 16.75 21.792892 16.582108 21.625 16.375 21.625L 16.375 21.625M 20.125 21.625C 19.917892 21.625 19.75 21.792892 19.75 22C 19.75 22.207108 19.917892 22.375 20.125 22.375C 20.332108 22.375 20.5 22.207108 20.5 22C 20.5 21.792892 20.332108 21.625 20.125 21.625L 20.125 21.625M 36.25 22C 36.25 19.928932 34.571068 18.25 32.5 18.25L 14.5 18.25C 12.428932 18.25 10.75 19.928932 10.75 22C 10.75 24.071068 12.428932 25.75 14.5 25.75L 28.75 25.75M 16.375 14.125C 16.167892 14.125 16 14.292893 16 14.5C 16 14.707107 16.167892 14.875 16.375 14.875C 16.582108 14.875 16.75 14.707107 16.75 14.5C 16.75 14.292893 16.582108 14.125 16.375 14.125L 16.375 14.125M 20.125 14.125C 19.917892 14.125 19.75 14.292893 19.75 14.5C 19.75 14.707107 19.917892 14.875 20.125 14.875C 20.332108 14.875 20.5 14.707107 20.5 14.5C 20.5 14.292893 20.332108 14.125 20.125 14.125L 20.125 14.125M 36.25 14.5C 36.25 12.428932 34.571068 10.75 32.5 10.75L 14.5 10.75C 12.428932 10.75 10.75 12.428932 10.75 14.5C 10.75 16.571068 12.428932 18.25 14.5 18.25L 32.5 18.25C 34.571068 18.25 36.25 16.571068 36.25 14.5ZM 33.549999 43.449997C 31.450001 43.75 29.349998 45.099998 27.25 45.25C 27.099998 43 28.299999 41.050003 29.049999 38.949997C 33.400002 36.400002 36.099998 31.599998 39.849998 28.150002C 41.050003 26.950001 43.150002 26.799999 44.349998 28.150002C 45.550003 29.5 45.25 31.150002 44.349998 32.650002C 41.5 36.849998 36.550003 39.400002 33.549999 43.449997M 38.5 29.5C 40.300003 30.549999 41.199997 32.950001 43 34M 29.049999 38.949997C 30.700001 40.449997 32.200001 41.800003 33.549999 43.449997M 18.25 40.75C 19.75 41.199997 21.4 41.349998 22.75 40.75M 22.75 33.25C 23.200001 35.650002 22.75 38.199997 22.75 40.75M 14.95 40C 14.65 40 14.5 40.150002 14.5 40.449997C 14.5 40.599998 14.65 40.75 14.95 40.75C 15.1 40.75 15.25 40.599998 15.25 40.449997C 15.25 40.150002 15.1 40 14.95 40M 11.2 40C 10.9 40 10.75 40.150002 10.75 40.449997C 10.75 40.599998 10.9 40.75 11.2 40.75C 11.35 40.75 11.5 40.599998 11.5 40.449997C 11.5 40.150002 11.35 40 11.2 40M 16.450001 29.200001C 16.15 29.200001 16 29.349998 16 29.5C 16 29.650002 16.15 29.799999 16.450001 29.950001C 16.6 29.950001 16.75 29.650002 16.75 29.5C 16.75 29.349998 16.6 29.049999 16.450001 29.200001M 20.200001 29.200001C 19.9 29.049999 19.75 29.349998 19.75 29.5C 19.75 29.650002 19.9 29.950001 20.200001 29.950001C 20.35 29.950001 20.5 29.650002 20.5 29.5C 20.5 29.349998 20.35 29.200001 20.200001 29.200001M 28.75 25.75C 24.099998 26.950001 19.299999 25.450001 14.5 25.75C 12.4 25.900002 10.75 27.400002 10.75 29.5C 10.75 31.599998 12.4 33.400002 14.5 33.25C 17.799999 33.099998 21.1 34.150002 24.25 33.25M 16.450001 21.700001C 16.15 21.549999 16 21.85 16 22C 16 22.150002 16.15 22.299999 16.450001 22.450001C 16.6 22.450001 16.75 22.150002 16.75 22C 16.75 21.85 16.6 21.700001 16.450001 21.700001M 20.200001 21.700001C 19.9 21.700001 19.75 21.85 19.75 22C 19.75 22.150002 19.9 22.450001 20.200001 22.450001C 20.35 22.299999 20.5 22.150002 20.5 22C 20.5 21.85 20.35 21.700001 20.200001 21.700001M 36.25 22C 37 20.049999 34.599998 18.25 32.5 18.25C 26.5 18.4 20.35 17.200001 14.5 18.25C 12.4 18.549999 10 20.049999 10.75 22C 11.5 23.950001 12.4 25.900002 14.5 25.75C 19.299999 25.299999 24.400002 27.400002 28.75 25.75M 16.450001 14.2C 16.15 14.2 16 14.35 16 14.5C 16 14.65 16.15 14.8 16.450001 14.95C 16.6 14.95 16.75 14.65 16.75 14.5C 16.75 14.35 16.6 14.2 16.450001 14.2M 20.200001 14.2C 19.9 14.2 19.75 14.35 19.75 14.5C 19.75 14.65 19.9 14.8 20.200001 14.95C 20.35 14.95 20.5 14.65 20.5 14.5C 20.5 14.35 20.35 14.05 20.200001 14.2M 36.25 14.5C 35.650002 12.55 34.599998 10.75 32.5 10.75C 26.5 10.6 20.5 10.9 14.5 10.75C 12.4 10.75 11.2 12.4 10.75 14.5C 10.3 16.450001 12.55 17.799999 14.5 18.25C 20.35 19.6 26.650002 19.450001 32.5 18.25C 34.599998 17.799999 36.550003 16.6 36.25 14.5"></path></g></g></g><g id="g-root-tx_compilei_1ut1sxbulkjkd-fill" data-item-order="0" transform="translate(230, 296)"><g id="tx_compilei_1ut1sxbulkjkd-fill-merged" stroke="none" fill="#484848" fill-opacity="1"><g><text style="font: 20px &quot;Shantell Sans&quot;, cursive; white-space: pre;" transform="translate(10, 22)" font-size="20px" font-family="'Shantell Sans', cursive"><tspan x="2" y="13.5" dominant-baseline="ideographic">Compile Information</tspan></text></g></g></g><g id="g-root-tx_compilei_1ut1sxbulkjkd-stroke" data-item-order="0" transform="translate(230, 296)"></g><g id="g-root-ic_1_1cwrzqnulq5n1-fill" data-item-order="0" transform="translate(182, 170)"></g><g id="g-root-ic_1_1cwrzqnulq5n1-stroke" data-item-order="0" transform="translate(182, 170)"><g id="ic_1_1cwrzqnulq5n1-stroke" fill="none" stroke-linecap="round" stroke-linejoin="round" stroke-miterlimit="4" stroke="#484848" stroke-width="2" stroke-opacity="1"><g><path d="M 28.75 35.543499C 28.75 39.295444 31.791553 42.336998 35.543499 42.336998C 39.295444 42.336998 42.336998 39.295444 42.336998 35.543499C 42.336998 31.791553 39.295444 28.75 35.543499 28.75C 31.791553 28.75 28.75 31.791553 28.75 35.543499ZM 45.25 45.25L 40.378002 40.378002M 18.25 40.75L 22.75 40.75M 22.751501 33.25L 22.751501 40.75M 14.875 40C 14.667893 40 14.5 40.167892 14.5 40.375C 14.5 40.582108 14.667893 40.75 14.875 40.75C 15.082107 40.75 15.25 40.582108 15.25 40.375C 15.25 40.167892 15.082107 40 14.875 40L 14.875 40M 11.125 40C 10.917893 40 10.75 40.167892 10.75 40.375C 10.75 40.582108 10.917893 40.75 11.125 40.75C 11.332107 40.75 11.5 40.582108 11.5 40.375C 11.5 40.167892 11.332107 40 11.125 40L 11.125 40M 16.375 29.125C 16.167892 29.125 16 29.292892 16 29.5C 16 29.707108 16.167892 29.875 16.375 29.875C 16.582108 29.875 16.75 29.707108 16.75 29.5C 16.75 29.292892 16.582108 29.125 16.375 29.125L 16.375 29.125M 20.125 29.125C 19.917892 29.125 19.75 29.292892 19.75 29.5C 19.75 29.707108 19.917892 29.875 20.125 29.875C 20.332108 29.875 20.5 29.707108 20.5 29.5C 20.5 29.292892 20.332108 29.125 20.125 29.125L 20.125 29.125M 30.25 25.75L 14.5 25.75C 12.428932 25.75 10.75 27.428932 10.75 29.5C 10.75 31.571068 12.428932 33.25 14.5 33.25L 24.25 33.25M 16.375 21.625C 16.167892 21.625 16 21.792892 16 22C 16 22.207108 16.167892 22.375 16.375 22.375C 16.582108 22.375 16.75 22.207108 16.75 22C 16.75 21.792892 16.582108 21.625 16.375 21.625L 16.375 21.625M 20.125 21.625C 19.917892 21.625 19.75 21.792892 19.75 22C 19.75 22.207108 19.917892 22.375 20.125 22.375C 20.332108 22.375 20.5 22.207108 20.5 22C 20.5 21.792892 20.332108 21.625 20.125 21.625L 20.125 21.625M 36.25 22C 36.25 19.928932 34.571068 18.25 32.5 18.25L 14.5 18.25C 12.428932 18.25 10.75 19.928932 10.75 22C 10.75 24.071068 12.428932 25.75 14.5 25.75L 30.25 25.75M 16.375 14.125C 16.167892 14.125 16 14.292893 16 14.5C 16 14.707107 16.167892 14.875 16.375 14.875C 16.582108 14.875 16.75 14.707107 16.75 14.5C 16.75 14.292893 16.582108 14.125 16.375 14.125L 16.375 14.125M 20.125 14.125C 19.917892 14.125 19.75 14.292893 19.75 14.5C 19.75 14.707107 19.917892 14.875 20.125 14.875C 20.332108 14.875 20.5 14.707107 20.5 14.5C 20.5 14.292893 20.332108 14.125 20.125 14.125L 20.125 14.125M 36.25 14.5C 36.25 12.428932 34.571068 10.75 32.5 10.75L 14.5 10.75C 12.428932 10.75 10.75 12.428932 10.75 14.5C 10.75 16.571068 12.428932 18.25 14.5 18.25L 32.5 18.25C 34.571068 18.25 36.25 16.571068 36.25 14.5ZM 28.75 35.5C 28.299999 39.25 31.75 42.550003 35.5 42.400002C 39.25 42.25 40.900002 39.099998 42.400002 35.5C 43.75 32.049999 39.25 28.299999 35.5 28.75C 31.900002 29.200001 28.75 31.75 28.75 35.5M 45.25 45.25C 43.300003 44.050003 42.25 41.650002 40.449997 40.449997M 18.25 40.75C 19.75 40.599998 21.25 40.300003 22.75 40.75M 22.75 33.25C 22.150002 35.650002 23.349998 38.349998 22.75 40.75M 14.95 40C 14.65 40 14.5 40.150002 14.5 40.449997C 14.5 40.599998 14.65 40.75 14.95 40.75C 15.1 40.75 15.25 40.599998 15.25 40.449997C 15.25 40.150002 15.1 40 14.95 40M 11.2 40C 10.9 40 10.75 40.150002 10.75 40.449997C 10.75 40.599998 10.9 40.75 11.2 40.75C 11.35 40.75 11.5 40.599998 11.5 40.449997C 11.5 40.150002 11.35 40 11.2 40M 16.450001 29.200001C 16.15 29.049999 16 29.349998 16 29.5C 16 29.650002 16.15 29.799999 16.450001 29.950001C 16.6 29.950001 16.75 29.650002 16.75 29.5C 16.75 29.349998 16.6 29.200001 16.450001 29.200001M 20.200001 29.200001C 19.9 29.200001 19.6 29.349998 19.75 29.5C 19.75 29.650002 19.9 29.950001 20.200001 29.950001C 20.35 29.950001 20.5 29.650002 20.5 29.5C 20.5 29.349998 20.35 29.200001 20.200001 29.200001M 30.25 25.75C 25 25.450001 19.6 24.700001 14.5 25.75C 12.4 26.200001 11.35 27.549999 10.75 29.5C 10.15 31.450001 12.55 32.799999 14.5 33.25C 17.65 34 21.1 32.650002 24.25 33.25M 16.450001 21.700001C 16.15 21.549999 16 21.85 16 22C 16 22.150002 16.15 22.450001 16.450001 22.450001C 16.6 22.299999 16.75 22.150002 16.75 22C 16.75 21.85 16.6 21.700001 16.450001 21.700001M 20.200001 21.700001C 19.9 21.700001 19.9 21.85 19.75 22C 19.75 22.150002 19.9 22.299999 20.200001 22.450001C 20.35 22.450001 20.5 22.150002 20.5 22C 20.5 21.85 20.35 21.700001 20.200001 21.700001M 36.25 22C 36.25 19.9 34.449997 18.85 32.5 18.25C 26.799999 16.450001 20.5 17.5 14.5 18.25C 12.4 18.549999 11.5 20.049999 10.75 22C 10 23.950001 12.4 26.200001 14.5 25.75C 19.6 24.549999 25.299999 23.950001 30.25 25.75M 16.450001 14.2C 16.15 14.2 16 14.35 16 14.5C 16 14.65 16.15 14.95 16.450001 14.95C 16.6 14.8 16.9 14.65 16.75 14.5C 16.75 14.35 16.6 14.2 16.450001 14.2M 20.200001 14.2C 19.9 14.05 19.75 14.35 19.75 14.5C 19.75 14.65 19.9 14.95 20.200001 14.95C 20.35 14.8 20.5 14.65 20.5 14.5C 20.5 14.35 20.35 14.05 20.200001 14.2M 36.25 14.5C 36.699997 12.4 34.449997 11.35 32.5 10.75C 26.650002 9.25 20.5 11.05 14.5 10.75C 12.4 10.6 10.3 12.4 10.75 14.5C 11.2 16.450001 12.4 18.25 14.5 18.25C 20.5 18.4 26.650002 16.9 32.5 18.25C 34.449997 18.700001 36.25 16.6 36.25 14.5"></path></g></g></g><g id="g-root-tx_userinpu_mg3pv3ulkirs-fill" data-item-order="0" transform="translate(230, 116)"><g id="tx_userinpu_mg3pv3ulkirs-fill-merged" stroke="none" fill="#484848" fill-opacity="1"><g><text style="font: 20px &quot;Shantell Sans&quot;, cursive; white-space: pre;" transform="translate(10, 22)" font-size="20px" font-family="'Shantell Sans', cursive"><tspan x="2" y="13.5" dominant-baseline="ideographic">User Inputs Brewery Name</tspan></text></g></g></g><g id="g-root-tx_userinpu_mg3pv3ulkirs-stroke" data-item-order="0" transform="translate(230, 116)"></g><g id="g-root-ic_rest_1hegx4fulncay-fill" data-item-order="0" transform="translate(182, 350)"></g><g id="g-root-ic_rest_1hegx4fulncay-stroke" data-item-order="0" transform="translate(182, 350)"><g id="ic_rest_1hegx4fulncay-stroke" fill="none" stroke-linecap="round" stroke-linejoin="round" stroke-miterlimit="4" stroke="#484848" stroke-width="2" stroke-opacity="1"><g><path d="M 21.253 31.375L 21.253 26.782M 39.126999 23.125C 40.396614 23.122553 41.527222 22.321159 41.949997 21.124001C 42.637764 19.269003 42.212769 17.184402 40.853699 15.746704C 39.494637 14.309006 37.43721 13.76755 35.546501 14.35C 34.438385 12.1978 32.137978 10.930278 29.726646 11.143265C 27.315315 11.356252 25.272705 13.007382 24.559 15.3205C 22.901876 13.957444 20.580626 13.743984 18.702703 14.78196C 16.824781 15.819934 15.770687 17.899033 16.043322 20.02733C 16.315956 22.155628 17.860081 23.901897 19.938999 24.432999C 20.601059 26.984158 23.05517 28.64641 25.669878 28.31472C 28.284588 27.983032 30.245913 25.76066 30.25 23.125ZM 39.065502 28.6705L 40.865501 28.6705C 41.503387 28.6705 42.0205 29.187611 42.0205 29.8255L 42.0205 32.713001C 42.0205 33.350887 41.503387 33.868 40.865501 33.868L 39.065502 33.868ZM 31 44.875C 32.242641 44.875 33.25 43.867641 33.25 42.625C 33.25 38.630501 28.213001 35.393501 22 35.393501C 15.787 35.393501 10.75 38.630501 10.75 42.625C 10.75 43.867641 11.75736 44.875 13 44.875ZM 18.628 35.723499L 18.628 40M 25.378 35.723499L 25.378 40M 20.6905 19.213001C 20.6905 19.523661 20.942341 19.775501 21.253 19.775501C 21.56366 19.775501 21.8155 19.523661 21.8155 19.213001C 21.8155 18.90234 21.56366 18.650501 21.253 18.650501C 20.942341 18.650501 20.6905 18.90234 20.6905 19.213001M 25.5655 22.080999C 25.5655 22.391661 25.817341 22.643499 26.128 22.643499C 26.438662 22.643499 26.6905 22.391661 26.6905 22.080999C 26.6905 21.77034 26.438662 21.518501 26.128 21.518501C 25.817341 21.518501 25.5655 21.77034 25.5655 22.080999M 29.3155 16.7605C 29.315502 17.071161 29.567341 17.323 29.878002 17.323C 30.188662 17.323 30.440502 17.071161 30.440502 16.7605C 30.440502 16.449841 30.188662 16.198 29.878002 16.198C 29.567341 16.198 29.315502 16.449841 29.315502 16.7605M 35.657501 44.313999L 36.509499 44.313999C 38.023521 44.312344 39.25 43.084522 39.25 41.570499L 39.25 37.096001L 42.25 37.096001C 43.906857 37.096001 45.25 35.752853 45.25 34.096001L 45.25 28.441C 45.25 26.784145 43.906857 25.441 42.25 25.441L 39.25 25.441L 39.25 23.122M 21.25 31.450001C 21.25 29.799999 20.799999 28.299999 21.25 26.799999M 39.099998 23.200001C 40.300003 23.5 41.349998 22.299999 41.949997 21.1C 42.849998 19.299999 41.949997 17.35 40.900002 15.7C 39.699997 14.05 37.449997 13.6 35.5 14.35C 33.849998 12.55 32.049999 10.6 29.799999 11.2C 27.400002 11.65 25.150002 13 24.549999 15.25C 23.049999 13.75 20.35 13.45 18.700001 14.8C 17.049999 16.15 15.55 17.950001 16 20.049999C 16.450001 22.150002 17.799999 23.950001 19.9 24.400002C 20.65 26.950001 23.049999 28.75 25.599998 28.299999C 28.299999 27.849998 30.099998 25.75 30.25 23.200001C 33.099998 23.799999 36.25 23.349998 39.099998 23.200001M 39.099998 28.599998C 39.699997 28.450001 40.300003 28.450001 40.900002 28.599998C 41.5 28.900002 42.099998 29.200001 41.949997 29.799999C 41.800003 30.700001 42.099998 31.75 41.949997 32.650002C 41.949997 33.400002 41.5 33.849998 40.900002 33.849998C 40.300003 33.849998 39.699997 33.700001 39.099998 33.849998C 39.099998 32.200001 38.650002 30.400002 39.099998 28.599998M 31 44.949997C 32.200001 44.949997 33.400002 43.900002 33.25 42.699997C 32.799999 38.650002 28 33.849998 22 35.349998C 16 37 10.6 38.650002 10.75 42.699997C 10.75 43.900002 11.8 44.800003 13 44.949997C 19 45.550003 25 44.650002 31 44.949997M 18.700001 35.650002C 19.15 37 18.25 38.650002 18.700001 40M 25.450001 35.650002C 25.599998 37.150002 25.75 38.650002 25.450001 40M 20.65 19.15C 20.65 19.450001 20.950001 19.6 21.25 19.75C 21.549999 19.9 21.85 19.450001 21.85 19.15C 21.700001 18.85 21.549999 18.549999 21.25 18.700001C 20.950001 18.700001 20.65 18.85 20.65 19.15M 25.599998 22.150002C 25.450001 22.450001 25.900002 22.75 26.200001 22.599998C 26.5 22.599998 26.650002 22.450001 26.650002 22.150002C 26.650002 21.700001 26.349998 21.4 26.200001 21.549999C 25.900002 21.549999 25.450001 21.700001 25.599998 22.150002M 29.349998 16.75C 29.200001 17.049999 29.650002 17.35 29.950001 17.35C 30.25 17.35 30.549999 17.049999 30.400002 16.75C 30.400002 16.450001 30.25 16.15 29.950001 16.15C 29.5 16.299999 29.349998 16.450001 29.349998 16.75M 35.650002 44.349998C 35.949997 44.349998 36.25 44.349998 36.550003 44.349998C 38.050003 43.900002 38.650002 43 39.25 41.5C 39.849998 40.150002 39.550003 38.5 39.25 37.150002C 40.300003 37.300003 41.199997 37 42.25 37.150002C 43.900002 37.300003 45.699997 35.650002 45.25 34.150002C 44.650002 32.349998 45.25 30.400002 45.25 28.450001C 45.25 26.799999 43.75 26.049999 42.25 25.450001C 41.349998 25 40.150002 25.150002 39.25 25.450001C 39.25 24.700001 38.949997 23.799999 39.25 23.049999"></path></g></g></g><g id="g-root-tx_createbr_93e9bjulki6k-fill" data-item-order="0" transform="translate(230, 356)"><g id="tx_createbr_93e9bjulki6k-fill-merged" stroke="none" fill="#484848" fill-opacity="1"><g><text style="font: 20px &quot;Shantell Sans&quot;, cursive; white-space: pre;" transform="translate(10, 22)" font-size="20px" font-family="'Shantell Sans', cursive"><tspan x="2" y="13.5" dominant-baseline="ideographic">Create Brewery Profile</tspan></text></g></g></g><g id="g-root-tx_createbr_93e9bjulki6k-stroke" data-item-order="0" transform="translate(230, 356)"></g><g id="g-root-ic_tap_4otpdbulq495-fill" data-item-order="0" transform="translate(182, 110)"></g><g id="g-root-ic_tap_4otpdbulq495-stroke" data-item-order="0" transform="translate(182, 110)"><g id="ic_tap_4otpdbulq495-stroke" fill="none" stroke-linecap="round" stroke-linejoin="round" stroke-miterlimit="4" stroke="#484848" stroke-width="2" stroke-opacity="1"><g><path d="M 37.75 38.5L 37.75 43M 45.25 40C 45.25 41.656857 43.906857 43 42.25 43L 13.75 43C 12.093145 43 10.75 41.656857 10.75 40C 10.75 39.171574 11.421573 38.5 12.25 38.5L 43.75 38.5C 44.578426 38.5 45.25 39.171574 45.25 40ZM 19 32.5L 17.5 31M 29.5 32.5L 31 31M 18.25 35.5L 16 35.5M 32.5 35.5L 30.25 35.5M 34.345001 13C 31.64757 14.488938 29.474079 16.772413 28.119999 19.540001L 23.395 29.200001C 22.974998 30.07 22.99 30.789999 23.650002 31.315001C 23.970106 31.552109 24.371384 31.652147 24.765333 31.593054C 25.159283 31.533962 25.513548 31.320591 25.75 31L 31.555 22.224998C 32.133553 21.340778 33.2729 21.014389 34.231884 21.458153C 35.190865 21.901918 35.679531 22.981661 35.380001 23.994999L 34.795002 26.02C 34.711605 26.552855 34.88224 27.094046 35.25618 27.482708C 35.630119 27.871372 36.164322 28.062763 36.699997 27.999998C 37.279716 27.940344 37.786049 27.581928 38.035 27.055L 39.535 22.84C 40.444527 20.22757 42.58194 18.230406 45.25 17.5M 37.75 38.5C 38.349998 39.849998 37.449997 41.5 37.75 43M 45.25 40C 45.25 41.650002 43.900002 43 42.25 43C 32.799999 43.150002 23.200001 44.349998 13.75 43C 12.1 42.699997 11.2 41.650002 10.75 40C 10.6 39.25 11.35 38.5 12.25 38.5C 22.75 37.900002 33.25 38.349998 43.75 38.5C 44.650002 38.5 45.550003 39.25 45.25 40M 19 32.5C 18.549999 32.049999 18.1 31.299999 17.5 31M 29.5 32.5C 30.099998 32.049999 30.549999 31.599998 31 31M 18.25 35.5C 17.5 35.650002 16.75 35.650002 16 35.5M 32.5 35.5C 31.75 35.5 31 35.349998 30.25 35.5M 34.300003 13C 32.049999 15.1 30.25 17.35 28.150002 19.6C 25.599998 22.150002 25.150002 26.049999 23.349998 29.200001C 22.900002 30.099998 22.900002 31 23.650002 31.299999C 23.950001 31.450001 24.400002 31.599998 24.700001 31.599998C 25.150002 31.599998 25.599998 31.450001 25.75 31C 27.549999 28 29.650002 25.150002 31.599998 22.299999C 32.049999 21.4 33.25 21.1 34.300003 21.4C 35.199997 21.700001 35.949997 23.049999 35.349998 23.950001C 35.050003 24.549999 34.75 25.299999 34.75 26.049999C 34.599998 26.5 34.75 27.099998 35.199997 27.549999C 35.650002 27.849998 36.099998 28 36.699997 28C 37.300003 28 37.599998 27.549999 38.050003 27.099998C 38.650002 25.75 39.099998 24.25 39.550003 22.900002C 40.300003 20.200001 42.699997 18.4 45.25 17.5"></path></g></g></g><g id="g-root-tx_presentp_zposz3ulki6j-fill" data-item-order="0" transform="translate(230, 416)"><g id="tx_presentp_zposz3ulki6j-fill-merged" stroke="none" fill="#484848" fill-opacity="1"><g><text style="font: 20px &quot;Shantell Sans&quot;, cursive; white-space: pre;" transform="translate(10, 22)" font-size="20px" font-family="'Shantell Sans', cursive"><tspan x="2" y="13.5" dominant-baseline="ideographic">Present Profile to User</tspan></text></g></g></g><g id="g-root-tx_presentp_zposz3ulki6j-stroke" data-item-order="0" transform="translate(230, 416)"></g><g id="g-root-tx_sakebrew_i0a7qnulkjk1-fill" data-item-order="0" transform="translate(120.125, 38)"><g id="tx_sakebrew_i0a7qnulkjk1-fill-merged" stroke="none" fill="#484848" fill-opacity="1"><g><text style="font: bold 25px &quot;Shantell Sans&quot;, cursive; white-space: pre;" transform="translate(203.875, 25)" font-weight="bold" font-size="25px" font-family="'Shantell Sans', cursive"><tspan x="-191.88" y="16.5" dominant-baseline="ideographic">Sake Brewery Search Process</tspan></text></g></g></g><g id="g-root-tx_sakebrew_i0a7qnulkjk1-stroke" data-item-order="0" transform="translate(120.125, 38)"></g><g id="g-root-ic_huma_4pg6gfulkhz6-fill" data-item-order="0" transform="translate(182, 410)"></g><g id="g-root-ic_huma_4pg6gfulkhz6-stroke" data-item-order="0" transform="translate(182, 410)"><g id="ic_huma_4pg6gfulkhz6-stroke" fill="none" stroke-linecap="round" stroke-linejoin="round" stroke-miterlimit="4" stroke="#484848" stroke-width="2" stroke-opacity="1"><g><path d="M 44.5 44.5L 11.5 44.5M 44.5 11.5L 11.5 11.5M 13 16L 43 16C 43 16 44.5 16 44.5 17.5L 44.5 38.5C 44.5 38.5 44.5 40 43 40L 13 40C 13 40 11.5 40 11.5 38.5L 11.5 17.5C 11.5 17.5 11.5 16 13 16M 18.25 40C 18.264584 38.607529 18.552534 37.231483 19.0975 35.949997C 19.6975 34.75 22.192001 33.924999 25.327 32.764C 26.1745 32.4505 26.035 30.237999 25.66 29.823999C 24.451412 28.514374 23.859303 26.751139 24.032499 24.977499C 23.923904 23.848194 24.289555 22.724556 25.041958 21.875433C 25.794363 21.02631 26.865833 20.528097 28 20.5C 29.134165 20.528097 30.205635 21.02631 30.95804 21.875433C 31.710445 22.724556 32.076096 23.848194 31.967499 24.977499C 32.141136 26.751642 31.548994 28.515514 30.34 29.825499C 29.965 30.2395 29.8255 32.452 30.673 32.765499C 33.807999 33.926498 36.304001 34.756001 36.9025 35.9515C 37.447273 37.232517 37.735222 38.608036 37.75 40ZM 44.5 44.5C 33.549999 43.449997 22.450001 45.550003 11.5 44.5M 44.5 11.5C 33.549999 10.6 22.299999 13.6 11.5 11.5M 13 16C 22.900002 16.75 33.099998 14.65 43 16C 43 16 43.900002 16.15 44.5 17.5C 47.050003 24.099998 44.650002 31.450001 44.5 38.5C 44.5 38.5 44.5 40 43 40C 32.950001 40.449997 23.049999 39.849998 13 40C 13 40 10.9 39.849998 11.5 38.5C 13.9 31.900002 11.95 24.549999 11.5 17.5C 11.5 17.5 11.65 16.450001 13 16M 18.25 40C 18.549999 38.650002 19 37.300003 19.15 35.949997C 19.9 34.900002 22 33.400002 25.299999 32.799999C 26.200001 32.650002 25.900002 30.25 25.599998 29.799999C 24.700001 28.299999 24.099998 26.799999 24.099998 25C 24.099998 23.799999 24.400002 22.900002 25 21.85C 25.599998 20.950001 26.950001 20.799999 28 20.5C 29.200001 20.35 29.950001 21.4 31 21.85C 31.900002 22.450001 31.900002 23.799999 31.900002 25C 32.349998 26.650002 31.299999 28.299999 30.400002 29.799999C 30.099998 30.25 29.799999 32.349998 30.700001 32.799999C 33.700001 34 36.400002 34.75 36.849998 35.949997C 37 37.300003 37.599998 38.650002 37.75 40C 31.299999 39.849998 24.700001 39.400002 18.25 40"></path></g></g></g></g></g></svg>