<?xml version="1.0" encoding="utf-8" standalone="yes"?>
<!DOCTYPE svg PUBLIC "-//W3C//DTD SVG 1.1//EN" "http://www.w3.org/Graphics/SVG/1.1/DTD/svg11.dtd">
<svg style="fill:none;stroke:none;fill-rule:evenodd;clip-rule:evenodd;stroke-linecap:round;stroke-linejoin:round;stroke-miterlimit:1.5;" version="1.1" xmlns="http://www.w3.org/2000/svg" xmlns:xlink="http://www.w3.org/1999/xlink" width="774" height="690" viewBox="0 0 774 690"><style class="text-font-style fontImports" data-font-family="Shantell Sans">@import url(https://fonts.googleapis.com/css2?family=Shantell+Sans:wght@300..800&amp;amp;display=block);</style><g id="items" style="isolation: isolate"><g id="blend" style="mix-blend-mode: normal"><g id="g-root-sy_6_cu_cu_7r933r9l79n-fill" data-item-order="-157343" transform="translate(547.421875, 361.58203125)"><g id="sy_6_cu_cu_7r933r9l79n-fill-merged" stroke="none" fill="#ffd9d8" fill-opacity="1"><g><path d="M78.469 91.218L85.569 88.618L80.269 69.318L71.669 72.418L78.469 91.218 M80.269 69.318L35.969 77.418L44.669 96.118L85.569 88.618L80.269 69.318 M44.669 96.118L99.669 50.618L88.869 33.618L35.969 77.418L44.669 96.118 M88.869 33.618L16.169 67.818L27.269 84.718L99.669 50.618L88.869 33.618 M27.269 84.718L89.569 30.218L78.869 13.118L16.169 67.818L27.269 84.718 M78.869 13.118L19.169 38.318L30.469 55.318L89.569 30.218L78.869 13.118 M30.469 55.318L63.669 22.618L53.969 4.118L19.169 38.318L30.469 55.318 M53.969 4.118L12.769 11.818L20.069 30.818L63.669 22.618L53.969 4.118 M20.069 30.818L33.769 22.418L23.369 5.418L12.769 11.818L20.069 30.818" fill-rule="nonzero"></path></g></g></g><g id="g-root-sy_6_cu_cu_7r933r9l79n-stroke" data-item-order="-157343" transform="translate(547.421875, 361.58203125)"><g id="sy_6_cu_cu_7r933r9l79n-stroke" fill="none" stroke-linecap="round" stroke-linejoin="round" stroke-miterlimit="4" stroke="#484848" stroke-width="4" stroke-opacity="1"><g><path d="M 82.469 88.8661C 57.776 90.629 33.5964 92.7604 10.0273 95.2855L 10.2344 95.2578C 17.0636 93.9123 22.4682 75.3209 22.4682 52.6368C 22.4682 29.6932 16.9397 10.961 10 10L 10.1597 10.0127C 33.6869 12.5316 57.8223 14.6584 82.469 16.4179C 89.0964 16.4179 94.469 32.636 94.469 52.642C 94.469 72.648 89.0964 88.8661 82.469 88.8661ZM 82.46875 88.817969C 57.86875 91.917969 33.56875 92.917969 10.06875 95.317969C 10.06875 95.317969 10.16875 95.317969 10.26875 95.217969C 16.56875 92.317969 21.56875 75.317969 22.46875 52.617969C 23.36875 29.717969 16.86875 11.317969 9.96875 10.017969C 33.66875 12.317969 57.76875 15.117969 82.46875 16.417969C 89.06875 17.217969 94.86875 32.617969 94.46875 52.617969C 94.06875 72.617969 89.06875 88.517969 82.46875 88.817969"></path></g></g></g><g id="g-root-sy_6_line_7r933r9l79o-fill" data-item-order="-157338" transform="translate(583.890625, 443.375)"></g><g id="g-root-sy_6_line_7r933r9l79o-stroke" data-item-order="-157338" transform="translate(583.890625, 443.375)"><g id="sy_6_line_7r933r9l79o-stroke" fill="none" stroke-linecap="round" stroke-linejoin="round" stroke-miterlimit="4" stroke="#484848" stroke-width="2" stroke-opacity="1"><g><path d="M 10 12L 10 30.63M 10 12C 11.2 18.1 10.4 24.4 10 30.6"></path><path d="M 16.5 18L 10 11.5L 3.5 18M 16.5 18C 13.7 16.8 11.9 13.9 10 11.5C 7.6 13.5 5.3 15.5 3.5 18" stroke-dasharray="none"></path></g></g></g><g id="g-root-sy_5_cu_cu_7r933r9l79p-fill" data-item-order="-157335" transform="translate(474.451171875, 352.17041015625)"><g id="sy_5_cu_cu_7r933r9l79p-fill-merged" stroke="none" fill="#ffe4cb" fill-opacity="1"><g><path d="M16.339 115.43L18.639 117.53L37.739 108.03L30.039 100.83L16.339 115.43 M37.739 108.03L34.939 80.03L15.839 90.63L18.639 117.53L37.739 108.03 M15.839 90.63L42.639 111.13L58.239 97.93L34.939 80.03L15.839 90.63 M58.239 97.93L32.639 50.13L17.039 63.43L42.639 111.13L58.239 97.93 M17.039 63.43L73.939 106.73L87.439 91.93L32.639 50.13L17.039 63.43 M87.439 91.93L29.439 28.93L16.039 43.93L73.939 106.73L87.439 91.93 M16.039 43.93L80.739 91.93L94.739 77.43L29.439 28.93L16.039 43.93 M94.739 77.43L39.639 7.33L25.339 21.63L80.739 91.93L94.739 77.43 M25.339 21.63L80.039 64.63L97.239 52.73L39.639 7.33L25.339 21.63 M97.239 52.73L84.739 13.13L67.339 24.33L80.039 64.63L97.239 52.73 M67.339 24.33L82.139 37.63L95.539 22.83L84.739 13.13L67.339 24.33" fill-rule="nonzero"></path></g></g></g><g id="g-root-sy_5_cu_cu_7r933r9l79p-stroke" data-item-order="-157335" transform="translate(474.451171875, 352.17041015625)"><g id="sy_5_cu_cu_7r933r9l79p-stroke" fill="none" stroke-linecap="round" stroke-linejoin="round" stroke-miterlimit="4" stroke="#484848" stroke-width="4" stroke-opacity="1"><g><path d="M 82.9783 104.6973C 57.9232 107.3817 33.5581 110.5108 10 114.115L 10.6651 113.976C 17.8226 111.6635 23.4385 89.3047 23.4385 62.0639C 23.4385 34.8937 17.8517 12.5803 10.7208 10.1702L 10.0476 10C 33.6324 13.6074 57.6788 16.7025 82.7637 19.3882L 82.9707 19.4116C 89.9104 20.3726 95.4389 39.1048 95.4389 62.0485C 95.4389 84.7326 90.0343 103.3239 83.2051 104.6694L 82.9783 104.6973ZM 82.939453 104.72959C 57.939453 107.12959 33.439453 110.02959 10.039453 114.12959C 10.239453 114.12959 10.439453 114.02959 10.639453 113.92959C 17.839453 111.62959 22.339453 89.32959 23.439453 62.02959C 24.539453 34.92959 17.939453 12.32959 10.739453 10.12959C 10.439453 10.12959 10.239453 10.02959 10.039453 10.02959C 22.739453 12.62959 35.939453 13.52959 49.139453 15.42959C 60.139453 17.12959 71.339453 18.82959 82.739453 19.42959C 82.839453 19.42959 82.939453 19.42959 82.939453 19.42959C 89.839453 20.52959 93.939453 39.12959 95.439453 62.02959C 96.939453 84.72959 89.839453 102.62959 83.239453 104.62959C 83.139453 104.72959 83.039453 104.72959 82.939453 104.72959"></path></g></g></g><g id="g-root-sy_5_line_1utoa0vr9l4p2-fill" data-item-order="-157330" transform="translate(511.890625, 319.5)"></g><g id="g-root-sy_5_line_1utoa0vr9l4p2-stroke" data-item-order="-157330" transform="translate(511.890625, 319.5)"><g id="sy_5_line_1utoa0vr9l4p2-stroke" fill="none" stroke-linecap="round" stroke-linejoin="round" stroke-miterlimit="4" stroke="#484848" stroke-width="2" stroke-opacity="1"><g><path d="M 10 10L 10 45.5M 10 10C 9.5 21.8 9.5 33.7 10 45.5"></path><path d="M 3.5 39.5L 10 46L 16.5 39.5M 3.5 39.5C 5.3 41.9 7.5 44.2 10 46C 12.5 44.2 14.8 42.1 16.5 39.5" stroke-dasharray="none"></path></g></g></g><g id="g-root-sy_4_cu_cu_1utoa0vr9l4p3-fill" data-item-order="-157327" transform="translate(401.75, 338.9228515625)"><g id="sy_4_cu_cu_1utoa0vr9l4p3-fill-merged" stroke="none" fill="#fff8b6" fill-opacity="1"><g><path d="M21.441 5.877L12.641 12.577L19.041 32.777L33.441 21.877L21.441 5.877 M19.041 32.777L60.341 34.077L55.941 13.977L12.641 12.577L19.041 32.777 M55.941 13.977L23.441 29.977L29.041 49.477L60.341 34.077L55.941 13.977 M29.041 49.477L88.041 43.577L82.241 24.077L23.441 29.977L29.041 49.477 M82.241 24.077L23.641 54.777L29.841 74.077L88.041 43.577L82.241 24.077 M29.841 74.077L94.341 64.777L87.441 45.577L23.641 54.777L29.841 74.077 M87.441 45.577L22.441 84.877L29.941 103.677L94.341 64.777L87.441 45.577 M29.941 103.677L101.241 87.677L94.241 68.777L22.441 84.877L29.941 103.677 M94.241 68.777L19.841 108.577L27.441 127.177L101.241 87.677L94.241 68.777 M27.441 127.177L97.241 106.677L88.841 88.277L19.841 108.577L27.441 127.177 M88.841 88.277L32.741 124.377L43.541 141.277L97.241 106.677L88.841 88.277" fill-rule="nonzero"></path></g></g></g><g id="g-root-sy_4_cu_cu_1utoa0vr9l4p3-stroke" data-item-order="-157327" transform="translate(401.75, 338.9228515625)"><g id="sy_4_cu_cu_1utoa0vr9l4p3-stroke" fill="none" stroke-linecap="round" stroke-linejoin="round" stroke-miterlimit="4" stroke="#484848" stroke-width="4" stroke-opacity="1"><g><path d="M 82.7197 127.3626C 57.5247 131.2171 33.2527 135.6149 10.047 140.5928L 10.6262 140.386C 18.2134 137.1349 24.1413 109.2341 24.1413 75.2962C 24.1413 41.4663 18.2511 13.6352 10.6986 10.2382L 10 10C 33.2346 14.9851 57.5382 19.3887 82.7673 23.2476L 83.4219 23.418C 90.5529 25.8281 96.1396 48.1415 96.1396 75.3117C 96.1396 102.5525 90.5238 124.9113 83.3663 127.2238L 82.7197 127.3626ZM 82.740625 127.377393C 57.440625 130.577393 32.940625 134.477393 10.040625 140.577393C 10.240625 140.477393 10.440625 140.477393 10.640625 140.377393C 18.640625 138.377393 22.640625 109.177393 24.140625 75.277393C 25.640625 41.477393 18.140625 13.777393 10.740625 10.277393C 10.440625 10.177393 10.240625 10.077393 10.040625 9.977393C 21.940625 14.077393 35.240625 14.077393 48.040625 17.477393C 59.140625 20.477393 71.240625 20.077393 82.740625 23.277393C 83.040625 23.277393 83.240625 23.277393 83.440625 23.377393C 90.240625 26.677393 97.040625 48.177393 96.140625 75.277393C 95.240625 102.577393 89.940625 123.577393 83.340625 127.177393C 83.140625 127.177393 82.940625 127.377393 82.740625 127.377393"></path></g></g></g><g id="g-root-sy_4_line_1utoa0vr9l4p4-fill" data-item-order="-157322" transform="translate(445.890625, 461.5)"></g><g id="g-root-sy_4_line_1utoa0vr9l4p4-stroke" data-item-order="-157322" transform="translate(445.890625, 461.5)"><g id="sy_4_line_1utoa0vr9l4p4-stroke" fill="none" stroke-linecap="round" stroke-linejoin="round" stroke-miterlimit="4" stroke="#484848" stroke-width="2" stroke-opacity="1"><g><path d="M 10 12L 10 48.5M 10 12C 10.5 24.2 8.4 36.5 10 48.5"></path><path d="M 16.5 18L 10 11.5L 3.5 18M 16.5 18C 14.2 16 12.7 13 10 11.5C 7.5 13.3 5.8 15.9 3.5 18" stroke-dasharray="none"></path></g></g></g><g id="g-root-sy_3_cu_cu_1utoa0vr9l4p5-fill" data-item-order="-157319" transform="translate(328.85546875, 320.39306640625)"><g id="sy_3_cu_cu_1utoa0vr9l4p5-fill-merged" stroke="none" fill="#e9ffb9" fill-opacity="1"><g><path d="M10.435 179.007L17.035 182.207L35.035 168.607L19.135 161.007L10.435 179.007 M35.035 168.607L29.735 138.207L12.835 158.207L17.035 182.207L35.035 168.607 M12.835 158.207L85.635 158.507L88.735 138.507L29.735 138.207L12.835 158.207 M88.735 138.507L25.535 118.307L22.935 138.507L85.635 158.507L88.735 138.507 M22.935 138.507L87.735 135.007L90.235 114.907L25.535 118.307L22.935 138.507 M90.235 114.907L31.335 97.007L28.135 117.007L87.735 135.007L90.235 114.907 M28.135 117.007L89.135 118.207L92.835 98.307L31.335 97.007L28.135 117.007 M92.835 98.307L25.435 73.707L22.135 93.807L89.135 118.207L92.835 98.307 M22.135 93.807L95.235 91.807L97.935 71.707L25.435 73.707L22.135 93.807 M97.935 71.707L25.935 50.207L22.635 70.107L95.235 91.807L97.935 71.707 M22.635 70.107L89.735 73.407L93.535 53.507L25.935 50.207L22.635 70.107 M93.535 53.507L23.235 30.107L21.135 50.507L89.735 73.407L93.535 53.507 M21.135 50.507L81.835 43.607L83.635 23.307L23.235 30.107L21.135 50.507 M83.635 23.307L28.135 7.007L14.335 23.807L81.835 43.607L83.635 23.307 M14.335 23.807L16.035 27.007L33.735 17.707L28.135 7.007L14.335 23.807" fill-rule="nonzero"></path></g></g></g><g id="g-root-sy_3_cu_cu_1utoa0vr9l4p5-stroke" data-item-order="-157319" transform="translate(328.85546875, 320.39306640625)"><g id="sy_3_cu_cu_1utoa0vr9l4p5-stroke" fill="none" stroke-linecap="round" stroke-linejoin="round" stroke-miterlimit="4" stroke="#484848" stroke-width="4" stroke-opacity="1"><g><path d="M 10 177.8333C 10.2397 177.7601 10.4795 177.6871 10.7195 177.6141C 18.7684 173.2059 25.0353 137.3119 25.0353 93.7945C 25.0353 50.7724 18.9363 15.2154 11.0195 10.1538L 10.5616 10C 33.2637 16.9071 57.4382 23.0675 82.8962 28.5297L 83.5932 28.7677C 91.1456 32.1647 97.0358 59.9959 97.0358 93.8257C 97.0358 127.7636 91.108 155.6644 83.5208 158.9155L 82.9431 159.1224C 57.527 164.5744 33.3898 170.7222 10.7195 177.6141L 10.7183 177.6148L 10 177.8333ZM 10.035156 177.806934C 10.235156 177.806934 10.535156 177.706934 10.735156 177.606934C 18.135156 172.206934 25.735156 137.306934 25.035156 93.806934C 24.335156 50.806934 19.135156 14.806934 11.035156 10.106934C 10.835156 10.106934 10.735156 10.106934 10.535156 10.006934C 21.235156 14.006934 32.735156 16.806934 44.435156 19.506934C 56.935156 22.306934 69.635156 25.906934 82.935156 28.506934C 83.135156 28.606934 83.435156 28.606934 83.635156 28.806934C 87.435156 29.306934 90.135156 37.406934 92.735156 47.906934C 95.635156 59.606934 96.235156 75.906934 97.035156 93.806934C 98.635156 127.706934 91.335156 156.206934 83.535156 158.906934C 83.335156 159.006934 83.135156 159.106934 82.935156 159.106934C 57.235156 162.806934 32.935156 169.406934 10.735156 177.606934C 10.435156 177.706934 10.235156 177.806934 10.035156 177.806934"></path></g></g></g><g id="g-root-sy_3_line_1qdurwfr9l5he-fill" data-item-order="-157314" transform="translate(367.890625, 283.75)"></g><g id="g-root-sy_3_line_1qdurwfr9l5he-stroke" data-item-order="-157314" transform="translate(367.890625, 283.75)"><g id="sy_3_line_1qdurwfr9l5he-stroke" fill="none" stroke-linecap="round" stroke-linejoin="round" stroke-miterlimit="4" stroke="#484848" stroke-width="2" stroke-opacity="1"><g><path d="M 10 10L 10 54.75M 10 10C 11.4 24.9 10 39.8 10 54.8"></path><path d="M 3.5 48.8L 10 55.3L 16.5 48.8M 3.5 48.8C 6.3 50.1 7.8 53.1 10 55.3C 11.6 52.7 14.4 51 16.5 48.8" stroke-dasharray="none"></path></g></g></g><g id="g-root-sy_2_cu_cu_1qdurwfr9l5hf-fill" data-item-order="-157311" transform="translate(256.015625, 292.9951171875)"><g id="sy_2_cu_cu_1qdurwfr9l5hf-fill-merged" stroke="none" fill="#c8ffe5" fill-opacity="1"><g><path d="M13.375 237.205L18.175 238.305L34.475 221.705L17.975 217.705L13.375 237.205 M34.475 221.705L27.175 193.305L11.375 212.305L18.175 238.305L34.475 221.705 M11.375 212.305L65.775 215.905L69.875 196.105L27.175 193.305L11.375 212.305 M69.875 196.105L24.675 180.405L22.075 200.605L65.775 215.905L69.875 196.105 M22.075 200.605L91.775 195.405L93.875 175.205L24.675 180.405L22.075 200.605 M93.875 175.205L23.875 155.405L21.175 175.505L91.775 195.405L93.875 175.205 M21.175 175.505L95.375 174.905L97.775 154.905L23.875 155.405L21.175 175.505 M97.775 154.905L24.675 136.405L22.175 156.405L95.375 174.905L97.775 154.905 M22.175 156.405L90.075 156.105L93.875 136.105L24.675 136.405L22.175 156.405 M93.875 136.105L27.075 109.305L22.975 129.205L90.075 156.105L93.875 136.105 M22.975 129.205L91.175 131.405L94.675 111.505L27.075 109.305L22.975 129.205 M94.675 111.505L25.975 89.205L22.775 109.205L91.175 131.405L94.675 111.505 M22.775 109.205L94.275 109.105L96.575 89.105L25.975 89.205L22.775 109.205 M96.575 89.105L26.675 72.505L24.775 92.705L94.275 109.105L96.575 89.105 M24.775 92.705L91.175 89.305L94.275 69.105L26.675 72.505L24.775 92.705 M94.275 69.105L25.275 43.605L21.575 63.605L91.175 89.305L94.275 69.105 M21.575 63.605L88.875 64.305L91.275 44.305L25.275 43.605L21.575 63.605 M91.275 44.305L18.075 27.205L15.775 47.205L88.875 64.305L91.275 44.305 M15.775 47.205L68.675 47.105L72.575 27.105L18.075 27.205L15.775 47.205 M72.575 27.105L16.975 4.205L20.075 27.105L68.675 47.105L72.575 27.105 M20.075 27.105L28.775 20.405L16.475 4.605L16.975 4.205L20.075 27.105" fill-rule="nonzero"></path></g></g></g><g id="g-root-sy_2_cu_cu_1qdurwfr9l5hf-stroke" data-item-order="-157311" transform="translate(256.015625, 292.9951171875)"><g id="sy_2_cu_cu_1qdurwfr9l5hf-stroke" fill="none" stroke-linecap="round" stroke-linejoin="round" stroke-miterlimit="4" stroke="#484848" stroke-width="4" stroke-opacity="1"><g><path d="M 82.8393 205.2313C 56.4672 213.2779 32.0884 222.335 10 232.479L 10.9302 232.0517C 19.3574 225.4414 25.8756 178.2993 25.8756 121.2392C 25.8756 63.9929 19.317 16.7353 10.85 10.3685C 10.5815 10.2458 10.3133 10.123 10.0454 10L 10.8443 10.3642C 10.8462 10.3656 10.8481 10.367 10.85 10.3685C 32.8705 20.4268 57.1515 29.4116 83.4009 37.398L 83.8594 37.5518C 91.7762 42.6133 97.8751 78.1703 97.8751 121.1925C 97.8751 164.7122 91.6076 200.6077 83.5581 205.0128L 82.8393 205.2313ZM 82.875 205.204883C 55.975 211.504883 32.575 223.404883 9.975 232.504883C 10.275 232.204883 10.575 232.204883 10.975 232.004883C 15.475 228.404883 20.175 212.804883 22.275 189.804883C 23.975 170.804883 25.375 147.104883 25.875 121.204883C 26.175 101.604883 25.975 83.104883 23.775 67.104883C 21.475 50.604883 20.875 36.404883 17.875 26.504883C 15.375 18.104883 13.575 12.104883 10.875 10.404883C 10.575 10.304883 10.275 10.204883 10.075 10.004883C 10.375 10.004883 10.675 10.104883 10.875 10.404883C 19.375 18.904883 32.875 21.604883 45.375 24.604883C 57.975 27.604883 69.975 34.204883 83.375 37.404883C 83.575 37.404883 83.675 37.504883 83.875 37.504883C 91.775 42.604883 96.675 78.204883 97.875 121.204883C 99.075 164.704883 91.575 200.504883 83.575 205.004883C 83.375 205.104883 83.075 205.104883 82.875 205.204883"></path></g></g></g><g id="g-root-sy_2_line_1qdurwfr9l5hg-fill" data-item-order="-157306" transform="translate(295.890625, 499)"></g><g id="g-root-sy_2_line_1qdurwfr9l5hg-stroke" data-item-order="-157306" transform="translate(295.890625, 499)"><g id="sy_2_line_1qdurwfr9l5hg-stroke" fill="none" stroke-linecap="round" stroke-linejoin="round" stroke-miterlimit="4" stroke="#484848" stroke-width="2" stroke-opacity="1"><g><path d="M 10 12L 10 59M 10 12C 10.5 27.7 9.1 43.4 10 59"></path><path d="M 16.5 18L 10 11.5L 3.5 18M 16.5 18C 14.2 16 12.4 13.5 10 11.5C 8.1 13.9 5.5 15.7 3.5 18" stroke-dasharray="none"></path></g></g></g><g id="g-root-sy_1_cu_1qdurwfr9l5hh-fill" data-item-order="-157303" transform="translate(163.890625, 248.22412109375)"><g id="sy_1_cu_1qdurwfr9l5hh-fill-merged" stroke="none" fill="#d1f4ff" fill-opacity="1"><g><path d="M37.2 11.476L25.6 4.576L14.8 21.476L26.9 28.676L37.2 11.476 M14.8 21.476L60.7 53.376L67.4 33.676L25.6 4.576L14.8 21.476 M67.4 33.676L22 31.476L18.9 51.376L60.7 53.376L67.4 33.676 M18.9 51.376L96.9 72.376L100.4 52.576L22 31.476L18.9 51.376 M100.4 52.576L22.2 45.876L18.9 65.676L96.9 72.376L100.4 52.576 M18.9 65.676L105.9 87.276L108.1 67.276L22.2 45.876L18.9 65.676 M108.1 67.276L17.6 69.576L15.5 89.576L105.9 87.276L108.1 67.276 M15.5 89.576L115.7 113.176L117.7 93.076L17.6 69.576L15.5 89.576 M117.7 93.076L12.6 96.076L10.9 116.176L115.7 113.176L117.7 93.076 M10.9 116.176L115.8 137.076L117.9 117.076L12.6 96.076L10.9 116.176 M117.9 117.076L11.4 115.876L9.2 135.776L115.8 137.076L117.9 117.076 M9.2 135.776L116.3 158.676L118.7 138.676L11.4 115.876L9.2 135.776 M118.7 138.676L12.2 135.576L10.2 155.476L116.3 158.676L118.7 138.676 M10.2 155.476L117.8 174.476L119.1 154.376L12.2 135.576L10.2 155.476 M119.1 154.376L11.3 159.376L10.2 179.476L117.8 174.476L119.1 154.376 M10.2 179.476L113.7 195.476L114.9 175.476L11.3 159.376L10.2 179.476 M114.9 175.476L9.2 179.476L7.7 199.576L113.7 195.476L114.9 175.476 M7.7 199.576L114.1 219.076L116.2 199.076L9.2 179.476L7.7 199.576 M116.2 199.076L9.3 196.176L7.2 216.176L114.1 219.076L116.2 199.076 M7.2 216.176L114.2 235.776L115.8 215.776L9.3 196.176L7.2 216.176 M115.8 215.776L13.4 217.776L10.9 237.776L114.2 235.776L115.8 215.776 M10.9 237.776L106.3 263.576L109 243.576L13.4 217.776L10.9 237.776 M109 243.576 H13.8L12.1 263.576 H106.3L109 243.576 M12.1 263.576L103.7 279.676L105.7 259.676L13.8 243.576L12.1 263.576 M105.7 259.676L19 257.876L13.6 277.776L103.7 279.676L105.7 259.676 M13.6 277.776L61.5 304.076L66.6 284.076L19 257.876L13.6 277.776 M66.6 284.076L28.7 284.176L15.7 304.276L61.5 304.076L66.6 284.076 M15.7 304.276L24.9 325.276L41.3 312.876L28.7 284.176L15.7 304.276 M41.3 312.876L32 305.276L19.3 320.676L24.9 325.276L41.3 312.876" fill-rule="nonzero"></path></g></g></g><g id="g-root-sy_1_cu_1qdurwfr9l5hh-stroke" data-item-order="-157303" transform="translate(163.890625, 248.22412109375)"><g id="sy_1_cu_1qdurwfr9l5hh-stroke" fill="none" stroke-linecap="round" stroke-linejoin="round" stroke-miterlimit="4" stroke="#484848" stroke-width="4" stroke-opacity="1"><g><path d="M 10 166C 10 252.156423 18.058875 322.000002 28 322.000002C 37.941126 322.000002 46 252.156423 46 166.000002C 46 79.843581 37.941126 10.000002 28 10.000002C 18.058875 10.000002 10 79.843581 10 166.000002M 30.074219 320.97261C 50.050419 304.56721 75.196019 289.61681 103.055219 276.82271C 111.482419 270.21241 118.000519 223.07031 118.000519 166.01021C 118.000519 108.75101 111.439019 61.48501 102.969319 55.13521C 75.101219 42.34061 50.079119 27.45231 30.096419 11.04541M 10 165.975879C 10.3 196.375879 12.1 224.575879 12.7 248.575879C 13.3 270.375879 16.1 288.575879 19 301.275879C 22.1 314.375879 24.7 321.875879 28 321.975879C 31.5 322.175879 35.4 313.175879 37.7 297.675879C 39.7 284.075879 43.3 265.575879 43.6 243.575879C 43.9 220.675879 45.5 194.275879 46 165.975879C 46.7 122.575879 44.5 83.175879 40.6 54.975879C 36.9 27.275879 32.7 8.375879 28 9.975879C 24.9 11.075879 21.6 17.375879 19.1 30.275879C 16.6 43.375879 14.8 62.075879 12.7 84.475879C 10.4 108.175879 8.6 136.175879 10 165.975879M 30.1 320.975879C 39.2 312.675879 49.7 304.375879 62 298.475879C 75.5 292.075879 88.3 283.075879 103.1 276.775879C 106.9 272.975879 109.4 259.675879 113.7 240.075879C 118 220.575879 117.1 194.375879 118 165.975879C 119 135.375879 117.3 107.375879 113.1 87.375879C 109.5 70.075879 106.3 58.675879 103 55.175879C 90.7 48.475879 78.5 42.575879 66.9 36.475879C 53 29.075879 41.4 19.375879 30.1 11.075879"></path></g></g></g><g id="g-root-sy_1_line_1hi7rnjr9l6a6-fill" data-item-order="-157298" transform="translate(223.890625, 224)"></g><g id="g-root-sy_1_line_1hi7rnjr9l6a6-stroke" data-item-order="-157298" transform="translate(223.890625, 224)"><g id="sy_1_line_1hi7rnjr9l6a6-stroke" fill="none" stroke-linecap="round" stroke-linejoin="round" stroke-miterlimit="4" stroke="#484848" stroke-width="2" stroke-opacity="1"><g><path d="M 10 10L 10 61M 10 10C 11 27 8.6 44 10 61"></path><path d="M 3.5 55L 10 61.5L 16.5 55M 3.5 55C 6 56.7 7.3 60.1 10 61.5C 12 59.1 14 56.8 16.5 55" stroke-dasharray="none"></path></g></g></g><g id="g-root-tx_download_1lvjdfjr9v01w-fill" data-item-order="0" transform="translate(443.77734375, 260)"><g id="tx_download_1lvjdfjr9v01w-fill-merged" stroke="none" fill="#484848" fill-opacity="1"><g><text style="font: 20px &quot;Shantell Sans&quot;, cursive; white-space: pre;" transform="translate(78.11328125, 34)" font-size="20px" font-family="'Shantell Sans', cursive"><tspan x="-62.26" y="1.5" dominant-baseline="ideographic">Download in </tspan><tspan x="-66.11" y="25.5" dominant-baseline="ideographic">Every Format</tspan></text></g></g></g><g id="g-root-tx_download_1lvjdfjr9v01w-stroke" data-item-order="0" transform="translate(443.77734375, 260)"></g><g id="g-root-tx_aigenera_4mya4fr9v022-fill" data-item-order="0" transform="translate(225.26953125, 560)"><g id="tx_aigenera_4mya4fr9v022-fill-merged" stroke="none" fill="#484848" fill-opacity="1"><g><text style="font: 20px &quot;Shantell Sans&quot;, cursive; white-space: pre;" transform="translate(80.62109375, 46)" font-size="20px" font-family="'Shantell Sans', cursive"><tspan x="-68.62" y="-10.5" dominant-baseline="ideographic">AI-Generated </tspan><tspan x="-46.15" y="13.5" dominant-baseline="ideographic">Technical </tspan><tspan x="-33.96" y="37.5" dominant-baseline="ideographic">Sheets</tspan></text></g></g></g><g id="g-root-tx_aigenera_4mya4fr9v022-stroke" data-item-order="0" transform="translate(225.26953125, 560)"></g><g id="g-root-tx_competit_qtfbnjr9v0u8-fill" data-item-order="0" transform="translate(304.87890625, 200)"><g id="tx_competit_qtfbnjr9v0u8-fill-merged" stroke="none" fill="#484848" fill-opacity="1"><g><text style="font: 20px &quot;Shantell Sans&quot;, cursive; white-space: pre;" transform="translate(73.01171875, 46)" font-size="20px" font-family="'Shantell Sans', cursive"><tspan x="-61.01" y="-10.5" dominant-baseline="ideographic">Competition </tspan><tspan x="-48.04" y="13.5" dominant-baseline="ideographic">Results &amp; </tspan><tspan x="-40.69" y="37.5" dominant-baseline="ideographic">Awards</tspan></text></g></g></g><g id="g-root-tx_competit_qtfbnjr9v0u8-stroke" data-item-order="0" transform="translate(304.87890625, 200)"></g><g id="g-root-ic_cogn_1d3n7pbr9tkp8-fill" data-item-order="0" transform="translate(211.890625, 380)"></g><g id="g-root-ic_cogn_1d3n7pbr9tkp8-stroke" data-item-order="0" transform="translate(211.890625, 380)"><g id="ic_cogn_1d3n7pbr9tkp8-stroke" fill="none" stroke-linecap="round" stroke-linejoin="round" stroke-miterlimit="4" stroke="#484848" stroke-width="2" stroke-opacity="1"><g><path d="M 26.3001 27.900021C 29.17198 27.900021 31.5 25.571899 31.5 22.70002C 31.5 19.82814 29.17198 17.5 26.3001 17.5C 23.428219 17.5 21.1001 19.82814 21.1001 22.70002C 21.1001 25.571899 23.428219 27.900021 26.3001 27.900021ZM 17.300039 38.5C 17.300039 33.5 21.300041 29.5 26.300039 29.5C 31.299999 29.5 35.299999 33.5 35.299999 38.5L 17.300039 38.5ZM 38.5 23.5L 47.299999 23.5M 38.5 29.5L 50.5 29.5M 56.5 31.5L 56.5 14.5C 56.5 12.9 55.099998 11.5 53.5 11.5L 14.5 11.5C 12.9 11.5 11.5 12.9 11.5 14.5L 11.5 44.5C 11.5 46.099998 12.9 47.5 14.5 47.5L 31.5 47.5M 47.5 56.5C 52.4706 56.5 56.5 52.4706 56.5 47.5C 56.5 42.5294 52.4706 38.5 47.5 38.5C 42.5294 38.5 38.5 42.5294 38.5 47.5C 38.5 52.4706 42.5294 56.5 47.5 56.5ZM 10 10M 50.5 45.5L 47.299999 49.700001C 47.099998 49.900002 46.900002 50.099998 46.700001 50.099998C 46.5 50.099998 46.299999 50.099998 46.099998 49.900002L 44.5 48.299999M 26.4 28C 29.200001 27.799999 31.799999 25.6 31.6 22.799999C 31.200001 19.799999 29.200001 16.799999 26.4 17.6C 23.6 18.200001 20.799999 19.799999 21.200001 22.799999C 21.4 25.6 23.6 26.799999 26.4 28M 17.4 38.599998C 16.4 33.599998 21.6 27.6 26.4 29.6C 31 31.4 34.400002 33.599998 35.200001 38.599998C 29.200001 38.200001 23.200001 39.200001 17.4 38.599998M 38.599998 23.6C 41.200001 22.4 44.400002 23 47.400002 23.6M 38.599998 29.6C 42.599998 29.4 46.599998 29 50.599998 29.6M 56.599998 31.6C 56.200001 25.799999 56.599998 20.200001 56.599998 14.6C 56.400002 13 55 11.4 53.599998 11.6C 40.599998 12.8 27.4 9.4 14.6 11.6C 13 11.8 11 13 11.6 14.6C 15 23.799999 13 34.599998 11.6 44.599998C 11.2 46 13 47 14.6 47.599998C 20 49.200001 25.799999 47.400002 31.6 47.599998M 47.599998 56.599998C 52.200001 55.200001 57.599998 52.400002 56.599998 47.599998C 55.400002 42.599998 52.400002 39.599998 47.599998 38.599998C 42.599998 37.400002 37.200001 42.799999 38.599998 47.599998C 39.799999 52.200001 42.599998 55.799999 47.599998 56.599998M 10 10M 50.599998 45.599998C 49.599998 47 48.200001 48.200001 47.400002 49.799999C 47 50 47 50.200001 46.599998 50.200001C 46.599998 50 46.400002 50 46 50C 45.400002 49.599998 45.200001 48.599998 44.400002 48.400002"></path></g></g></g><g id="g-root-ic_1_1upxfi7r9pdz6-fill" data-item-order="0" transform="translate(283.890625, 380)"></g><g id="g-root-ic_1_1upxfi7r9pdz6-stroke" data-item-order="0" transform="translate(283.890625, 380)"><g id="ic_1_1upxfi7r9pdz6-stroke" fill="none" stroke-linecap="round" stroke-linejoin="round" stroke-miterlimit="4" stroke="#484848" stroke-width="2" stroke-opacity="1"><g><path d="M 49 35L 49 22.950001C 49 16.350197 43.649803 11 37.049999 11L 13 11C 11.895431 11 11 11.895431 11 13L 11 55C 11 56.104568 11.895431 57 13 57L 31 57M 39 11.16L 39 19C 39 20.104568 39.895432 21 41 21L 48.84 21M 37 57L 37 45C 37 42.790859 38.790863 41 41 41C 43.209141 41 45 42.790859 45 45L 45 57M 37 49L 45 49M 53 41L 53 57M 49 57L 57 57M 49 41L 57 41M 49 35C 50.400002 31.200001 48.400002 26.799999 49 23C 50.200001 16.4 43.200001 8.6 37 11C 29.6 13.8 20.6 13.6 13 11C 12 10.6 11 11.8 11 13C 11.8 27 10.6 41 11 55C 11 56.200001 11.8 57 13 57C 19 56.599998 25 56.799999 31 57M 39 11.2C 39.200001 13.8 38.799999 16.4 39 19C 39 20.200001 39.799999 21 41 21C 43.599998 21.200001 46.200001 21 48.799999 21M 37 57C 38.200001 53.200001 37 49 37 45C 37 42.799999 38.799999 41 41 41C 43.200001 41 45.799999 43 45 45C 43.599998 48.799999 45.599998 53 45 57M 37 49C 39.599998 49.200001 42.400002 49.599998 45 49M 53 41C 52.799999 46.400002 53.599998 51.799999 53 57M 49 57C 51.599998 56.400002 54.400002 57.599998 57 57M 49 41C 51.599998 40.400002 54.400002 40.599998 57 41"></path></g></g></g><g id="g-root-ic_meda_909vwfr9pclc-fill" data-item-order="0" transform="translate(355.890625, 380)"></g><g id="g-root-ic_meda_909vwfr9pclc-stroke" data-item-order="0" transform="translate(355.890625, 380)"><g id="ic_meda_909vwfr9pclc-stroke" fill="none" stroke-linecap="round" stroke-linejoin="round" stroke-miterlimit="4" stroke="#484848" stroke-width="2" stroke-opacity="1"><g><path d="M 19 42C 19 50.284271 25.715729 57 34 57C 42.284271 57 49 50.284271 49 42C 49 33.715729 42.284271 27.000002 34 27.000002C 25.715729 27.000002 19 33.715729 19 42ZM 46 11L 40.276001 23.02M 44.396 24.939999L 51 11M 51 11L 44.396 24.939999M 47.976002 27.709999L 56 11M 22 11L 27.724001 23.02M 23.602001 24.939999L 17 11M 17 11L 23.602001 24.939999M 20.02 27.709999L 12 11M 34.944 34.573997L 37 39L 41 39C 41.413235 38.983528 41.792332 39.228237 41.947472 39.611599C 42.102608 39.994961 42.000389 40.434448 41.692001 40.709999L 38.220001 44.125999L 40.143997 48.543999C 40.316662 48.958889 40.205589 49.437683 39.867897 49.73418C 39.530205 50.030682 39.041069 50.07888 38.652 49.854L 34 47.243999L 29.354 49.858002C 28.96493 50.082882 28.475792 50.034679 28.1381 49.738182C 27.800409 49.441685 27.689339 48.962891 27.862 48.548L 29.785999 44.130001L 26.313999 40.714001C 26.000841 40.440781 25.894554 39.999489 26.048979 39.613647C 26.203403 39.227814 26.58481 38.981709 27 39L 31 39L 33.057999 34.57C 33.240257 34.216808 33.604774 33.995251 34.00222 33.996094C 34.399662 33.996937 34.763237 34.220039 34.944 34.573997ZM 19 42C 19 50.200001 26 59.200001 34 57C 42 54.799999 48.200001 50.200001 49 42C 49.799999 33.799999 42.200001 26 34 27C 25.799999 28 21.200001 34 19 42M 46 11C 44.400002 15.2 43 19.6 40.200001 23M 44.400002 25C 46.599998 20.4 49.599998 16 51 11M 51 11C 47.400002 14.6 47.799999 21 44.400002 25M 48 27.799999C 50.200001 22 52.400002 16 56 11M 22 11C 24.6 14.6 26.6 18.799999 27.799999 23M 23.6 25C 20.6 20.799999 17.4 16.200001 17 11M 17 11C 19.6 15.4 21.200001 20.4 23.6 25M 20 27.799999C 19 21.6 14.4 16.6 12 11M 35 34.599998C 35.799999 36 36.200001 37.599998 37 39C 38.200001 38.599998 39.799999 38.599998 41 39C 41.400002 39.200001 42 39.200001 42 39.599998C 42 40 42 40.400002 41.599998 40.799999C 40.599998 42 39.599998 43.400002 38.200001 44.200001C 38.799999 45.599998 39.400002 47.200001 40.200001 48.599998C 40.400002 49 40.200001 49.400002 39.799999 49.799999C 39.599998 50.200001 39 50 38.599998 49.799999C 37 49.200001 35.799999 47.799999 34 47.200001C 32.400002 48.200001 30.6 48.599998 29.4 49.799999C 29 50.200001 28.6 50 28.200001 49.799999C 27.799999 49.599998 27.799999 49 27.799999 48.599998C 27.799999 47 28.6 45.200001 29.799999 44.200001C 28.4 43.400002 27.4 41.799999 26.4 40.799999C 26 40.400002 25.799999 40 26 39.599998C 26.200001 39.200001 26.6 39 27 39C 28.4 38.799999 29.6 39 31 39C 31.799999 37.599998 32 35.799999 33 34.599998C 33.400002 34.200001 33.599998 34 34 34C 34.400002 34 34.799999 34.200001 35 34.599998"></path></g></g></g><g id="g-root-ic_bott_dfgwxrr9peyt-fill" data-item-order="0" transform="translate(427.890625, 380)"></g><g id="g-root-ic_bott_dfgwxrr9peyt-stroke" data-item-order="0" transform="translate(427.890625, 380)"><g id="ic_bott_dfgwxrr9peyt-stroke" fill="none" stroke-linecap="round" stroke-linejoin="round" stroke-miterlimit="4" stroke="#484848" stroke-width="2" stroke-opacity="1"><g><path d="M 36 37L 36 41.778C 35.947739 44.699142 37.959774 47.253075 40.812 47.886002C 42.576771 48.242485 44.408348 47.78764 45.801327 46.64698C 47.194309 45.506317 48.001438 43.800415 48 42L 48 37C 48 36.447716 47.552284 36 47 36L 37 36C 36.447716 36 36 36.447716 36 37ZM 42 48L 42 57M 37 57L 47 57M 36 31.724001C 35.99979 31.256199 35.835602 30.803272 35.535999 30.444L 31.464001 25.556C 31.164396 25.196728 31.00021 24.743801 31 24.276001L 31 13C 31 11.895431 30.10457 11 29 11L 27 11C 25.895432 11 25 11.895431 25 13L 25 24.276001C 24.99979 24.743801 24.835604 25.196728 24.535999 25.556L 20.464001 30.444C 20.164396 30.803272 20.00021 31.256199 20 31.724001L 20 55C 20 56.104568 20.895432 57 22 57L 33 57M 25 17L 31 17M 36 37C 35.799999 38.599998 35.599998 40.200001 36 41.799999C 36.799999 44.599998 38 47.400002 40.799999 47.799999C 42.400002 48.599998 44.200001 47.400002 45.799999 46.599998C 47.400002 45.799999 48 43.799999 48 42C 48 40.400002 47.599998 38.599998 48 37C 48.200001 36.400002 47.599998 36.200001 47 36C 43.799999 35.200001 40.200001 36.799999 37 36C 36.400002 35.799999 35.799999 36.400002 36 37M 42 48C 42 51 42 54 42 57M 37 57C 40.400002 57 43.799999 57.400002 47 57M 36 31.799999C 36 31.200001 36 30.6 35.599998 30.4C 33.799999 29.4 33 27 31.4 25.6C 31.200001 25.200001 30.799999 24.799999 31 24.200001C 31.799999 20.6 30.799999 16.799999 31 13C 31 11.8 30 11.4 29 11C 28.4 10.8 27.6 11.2 27 11C 26 10.8 25.4 12 25 13C 24 16.6 25.6 20.6 25 24.200001C 25 24.799999 24.799999 25.200001 24.6 25.6C 23.799999 27.6 22 29 20.4 30.4C 20.200001 30.799999 20.200001 31.200001 20 31.799999C 18 39.200001 18.4 47.400002 20 55C 20.200001 56 21 57.200001 22 57C 25.6 56.200001 29.4 56.200001 33 57M 25 17C 27 17.200001 29 16.4 31 17"></path></g></g></g><g id="g-root-ic_read_mb3x6nr9pde7-fill" data-item-order="0" transform="translate(499.890625, 380)"></g><g id="g-root-ic_read_mb3x6nr9pde7-stroke" data-item-order="0" transform="translate(499.890625, 380)"><g id="ic_read_mb3x6nr9pde7-stroke" fill="none" stroke-linecap="round" stroke-linejoin="round" stroke-miterlimit="4" stroke="#484848" stroke-width="2" stroke-opacity="1"><g><path d="M 18.273441 35.871201L 18.273441 17.09498C 18.273441 15.65584 19.435139 14.494141 20.874279 14.494141L 44.882599 14.494141C 45.5588 14.494141 46.2178 14.75422 46.703201 15.239719L 51.904999 20.23332C 52.407799 20.718819 52.6852 21.395039 52.6852 22.088581L 52.6852 50.9058C 52.6852 52.345001 51.523399 53.506802 50.0844 53.506802L 20.874279 53.506802C 19.435139 53.506802 18.273441 52.345001 18.273441 50.9058L 18.273441 46.9566M 26.136721 22.14258L 39.382797 22.14258M 26.136721 29.164061L 43.292999 29.164061M 39.382797 44.744202C 39.382797 45.848801 38.4874 46.744202 37.382797 46.744202L 17.316401 46.744202C 16.21184 46.744202 15.316401 45.848801 15.316401 44.744202L 15.316401 38.050598C 15.316401 36.945999 16.21184 36.050598 17.316401 36.050598L 37.382797 36.050598C 38.4874 36.050598 39.382797 36.945999 39.382797 38.050598L 39.382797 44.744202ZM 18.200001 35.799999C 18.200001 29.6 18.799999 23.4 18.200001 17C 18.200001 15.6 19.4 14.8 20.799999 14.4C 28.799999 13 37 13.4 44.799999 14.4C 45.599998 14.6 46.200001 14.8 46.799999 15.2C 48.200001 17 49.799999 19 52 20.200001C 52.599998 20.6 52.599998 21.4 52.599998 22C 53 31.6 52.200001 41.400002 52.599998 51C 52.799999 52.400002 51.599998 53.599998 50 53.599998C 40.400002 52.799999 30.6 54.599998 20.799999 53.599998C 19.4 53.400002 18.6 52.200001 18.200001 51C 18 49.599998 17.799999 48.200001 18.200001 47M 26.200001 22.200001C 30.6 21.6 35.200001 20.6 39.400002 22.200001M 26.200001 29.200001C 31.799999 28.200001 37.599998 29.4 43.200001 29.200001M 39.400002 44.799999C 39.599998 45.799999 38.400002 46.599998 37.400002 46.799999C 30.799999 48.200001 23.799999 48 17.4 46.799999C 16.200001 46.599998 15.4 45.799999 15.4 44.799999C 15.2 42.599998 16 40.200001 15.4 38C 15 37 16.200001 35.799999 17.4 36C 23.799999 37.599998 30.799999 35.799999 37.400002 36C 38.400002 36 39 37 39.400002 38C 40.200001 40.200001 39.400002 42.599998 39.400002 44.799999"></path></g></g></g><g id="g-root-ic_mess_vbqq4fr9l69s-fill" data-item-order="0" transform="translate(571.890625, 380)"></g><g id="g-root-ic_mess_vbqq4fr9l69s-stroke" data-item-order="0" transform="translate(571.890625, 380)"><g id="ic_mess_vbqq4fr9l69s-stroke" fill="none" stroke-linecap="round" stroke-linejoin="round" stroke-miterlimit="4" stroke="#484848" stroke-width="2" stroke-opacity="1"><g><path d="M 55.400002 25.1L 14.4 25.1M 55.400002 41.099998L 14.4 41.099998M 40 54.48C 42.880001 50.099998 44.82 42.16 44.82 33.099998C 44.82 24.040001 42.959999 16.1 40 11.72M 29.719999 54.48C 26.82 50.099998 24.9 42.16 24.9 33.099998C 24.9 24.040001 26.9 16.1 29.719999 11.72M 11.2 55.459999L 16.18 44.66C 10.314265 35.160789 12.493597 22.774128 21.249332 15.847445C 30.005068 8.920761 42.560799 9.65048 50.455162 17.544842C 58.349522 25.439201 59.079239 37.994934 52.152557 46.750668C 45.225872 55.506405 32.839211 57.685738 23.34 51.82L 12.54 56.799999C 12.155515 56.990494 11.692357 56.914463 11.388947 56.611053C 11.085535 56.307644 11.009508 55.844486 11.2 55.459999ZM 55.400002 25.200001C 41.799999 26.200001 27.6 21.6 14.4 25.200001M 55.400002 41.200001C 41.799999 40 27.799999 38 14.4 41.200001M 40 54.400002C 43.200001 50.400002 45.200001 42.200001 44.799999 33C 44.400002 24 43.599998 15.6 40 11.8M 29.799999 54.400002C 26.200001 50.599998 24.4 42.200001 25 33C 25.4 24 25.799999 15 29.799999 11.8M 11.2 55.400002C 12.2 51.599998 15 48.400002 16.200001 44.599998C 9 36 11.4 21.200001 21.200001 15.8C 31 10.6 43.599998 8.8 50.400002 17.6C 57.400002 26.4 57.799999 37.200001 52.200001 46.799999C 46.400002 56.400002 32.799999 57.599998 23.4 51.799999C 19.6 52.799999 16.200001 55.400002 12.6 56.799999C 12.2 57 11.8 57 11.4 56.599998C 11 56.400002 11 55.799999 11.2 55.400002"></path></g></g></g><g id="g-root-tx_verified_1d1rsfzr9uzv2-fill" data-item-order="0" transform="translate(68.3359375, 368)"><g id="tx_verified_1d1rsfzr9uzv2-fill-merged" stroke="none" fill="#484848" fill-opacity="1"><g><text style="font: 20px &quot;Shantell Sans&quot;, cursive; white-space: pre;" transform="translate(93.5546875, 46)" font-size="20px" font-family="'Shantell Sans', cursive"><tspan x="-75.97" y="-10.5" dominant-baseline="ideographic">Verified </tspan><tspan x="-81.55" y="13.5" dominant-baseline="ideographic">Brewery </tspan><tspan x="-66.37" y="37.5" dominant-baseline="ideographic">Owner</tspan></text></g></g></g><g id="g-root-tx_verified_1d1rsfzr9uzv2-stroke" data-item-order="0" transform="translate(68.3359375, 368)"></g><g id="g-root-tx_globaldi_1unfj5rr9v18o-fill" data-item-order="0" transform="translate(643.890625, 380)"><g id="tx_globaldi_1unfj5rr9v18o-fill-merged" stroke="none" fill="#484848" fill-opacity="1"><g><text style="font: 20px &quot;Shantell Sans&quot;, cursive; white-space: pre;" transform="translate(10, 34)" font-size="20px" font-family="'Shantell Sans', cursive"><tspan x="2" y="1.5" dominant-baseline="ideographic">Global </tspan><tspan x="2" y="25.5" dominant-baseline="ideographic">Discovery</tspan></text></g></g></g><g id="g-root-tx_globaldi_1unfj5rr9v18o-stroke" data-item-order="0" transform="translate(643.890625, 380)"></g><g id="g-root-tx_verified_1qcltq7r9v1fw-fill" data-item-order="0" transform="translate(154.109375, 140)"><g id="tx_verified_1qcltq7r9v1fw-fill-merged" stroke="none" fill="#484848" fill-opacity="1"><g><text style="font: 20px &quot;Shantell Sans&quot;, cursive; white-space: pre;" transform="translate(79.78125, 46)" font-size="20px" font-family="'Shantell Sans', cursive"><tspan x="-39.2" y="-10.5" dominant-baseline="ideographic">Verified </tspan><tspan x="-67.78" y="13.5" dominant-baseline="ideographic">International </tspan><tspan x="-33.32" y="37.5" dominant-baseline="ideographic">Profile</tspan></text></g></g></g><g id="g-root-tx_verified_1qcltq7r9v1fw-stroke" data-item-order="0" transform="translate(154.109375, 140)"></g><g id="g-root-tx_foodpair_zp2bwfr9uz9q-fill" data-item-order="0" transform="translate(374.04296875, 512)"><g id="tx_foodpair_zp2bwfr9uz9q-fill-merged" stroke="none" fill="#484848" fill-opacity="1"><g><text style="font: 20px &quot;Shantell Sans&quot;, cursive; white-space: pre;" transform="translate(75.84765625, 34)" font-size="20px" font-family="'Shantell Sans', cursive"><tspan x="-63.85" y="1.5" dominant-baseline="ideographic">Food Pairing </tspan><tspan x="-60.84" y="25.5" dominant-baseline="ideographic">Suggestions</tspan></text></g></g></g><g id="g-root-tx_foodpair_zp2bwfr9uz9q-stroke" data-item-order="0" transform="translate(374.04296875, 512)"></g><g id="g-root-tx_download_zlxygvr9uyv6-fill" data-item-order="0" transform="translate(517.703125, 524.0634765625)"><g id="tx_download_zlxygvr9uyv6-fill-merged" stroke="none" fill="#484848" fill-opacity="1"><g><text style="font: 20px &quot;Shantell Sans&quot;, cursive; white-space: pre;" transform="translate(76.1875, 46)" font-size="20px" font-family="'Shantell Sans', cursive"><tspan x="-64.19" y="-10.5" dominant-baseline="ideographic">Download in </tspan><tspan x="-30.03" y="13.5" dominant-baseline="ideographic">Every </tspan><tspan x="-50.61" y="37.5" dominant-baseline="ideographic">Language</tspan></text></g></g></g><g id="g-root-tx_download_zlxygvr9uyv6-stroke" data-item-order="0" transform="translate(517.703125, 524.0634765625)"></g><g id="g-root-tx_sakeplat_1hi7rnjr9l6a7-fill" data-item-order="0" transform="translate(191.625, 38)"><g id="tx_sakeplat_1hi7rnjr9l6a7-fill-merged" stroke="none" fill="#484848" fill-opacity="1"><g><text style="font: bold 25px &quot;Shantell Sans&quot;, cursive; white-space: pre;" transform="translate(216.265625, 25)" font-weight="bold" font-size="25px" font-family="'Shantell Sans', cursive"><tspan x="-204.27" y="16.5" dominant-baseline="ideographic">Sake Platform Resource Access</tspan></text></g></g></g><g id="g-root-tx_sakeplat_1hi7rnjr9l6a7-stroke" data-item-order="0" transform="translate(191.625, 38)"></g></g></g></svg>